<svg width="41" height="41" viewBox="0 0 41 41" fill="none" xmlns="http://www.w3.org/2000/svg">
<path d="M20.5 0C9.1754 0 0 9.1754 0 20.5C0 31.8246 9.1754 41 20.5 41C31.8246 41 41 31.8246 41 20.5C41 9.1754 31.8246 0 20.5 0ZM30.006 13.945C29.7002 17.1853 28.3611 25.0546 27.6833 28.6835C27.394 30.221 26.8319 30.7335 26.2863 30.7831C25.096 30.8905 24.195 29.9978 23.0377 29.2373C21.2357 28.0552 20.2107 27.3196 18.4665 26.1623C16.4413 24.8315 17.7556 24.0958 18.9046 22.8972C19.2105 22.5831 24.4512 17.8135 24.5504 17.3837C24.5669 17.3258 24.5752 17.1274 24.4512 17.02C24.3272 16.9125 24.1536 16.9538 24.0296 16.9786C23.8478 17.0172 20.9657 18.9212 15.3833 22.6905C14.5677 23.2526 13.8265 23.5254 13.1597 23.5089C12.424 23.4923 11.0188 23.0956 9.96895 22.7567C8.6877 22.3433 7.6627 22.1202 7.75363 21.4093C7.79772 21.0401 8.30746 20.6626 9.28286 20.2768C15.2565 17.6757 19.2408 15.9591 21.2357 15.127C26.931 12.7629 28.1131 12.3496 28.8819 12.3331C29.0554 12.3331 29.4274 12.3744 29.6754 12.5728C29.8373 12.7151 29.9404 12.9125 29.9647 13.1266C30.0094 13.397 30.0233 13.6715 30.006 13.945Z" fill="white"/>
</svg>
