<svg width="22" height="19" viewBox="0 0 22 19" fill="none" xmlns="http://www.w3.org/2000/svg">
<path d="M0.00195312 1.58333C0.00195312 0.707552 0.704185 0 1.57338 0H20.4305C21.2997 0 22.002 0.707552 22.002 1.58333C22.002 2.45911 21.2997 3.16667 20.4305 3.16667H1.57338C0.704185 3.16667 0.00195312 2.45911 0.00195312 1.58333ZM0.00195312 9.5C0.00195312 8.62422 0.704185 7.91667 1.57338 7.91667H20.4305C21.2997 7.91667 22.002 8.62422 22.002 9.5C22.002 10.3758 21.2997 11.0833 20.4305 11.0833H1.57338C0.704185 11.0833 0.00195312 10.3758 0.00195312 9.5ZM22.002 17.4167C22.002 18.2924 21.2997 19 20.4305 19H1.57338C0.704185 19 0.00195312 18.2924 0.00195312 17.4167C0.00195312 16.5409 0.704185 15.8333 1.57338 15.8333H20.4305C21.2997 15.8333 22.002 16.5409 22.002 17.4167Z" fill="white" fill-opacity="0.46"/>
</svg>
