<svg width="28" height="28" viewBox="0 0 28 28" fill="none" xmlns="http://www.w3.org/2000/svg">
<path d="M0.527202 24.5273C-0.175734 25.2302 -0.175734 26.3698 0.527202 27.0727C1.23014 27.7757 2.36985 27.7757 3.07279 27.0727L0.527202 24.5273ZM15.0727 15.0727C15.7757 14.3698 15.7757 13.2302 15.0727 12.5273C14.3698 11.8243 13.2302 11.8243 12.5273 12.5273L15.0727 15.0727ZM12.5273 12.5273C11.8243 13.2302 11.8243 14.3698 12.5273 15.0727C13.2302 15.7757 14.3698 15.7757 15.0727 15.0727L12.5273 12.5273ZM27.0727 3.07279C27.7757 2.36985 27.7757 1.23014 27.0727 0.527202C26.3698 -0.175734 25.2302 -0.175734 24.5273 0.527202L27.0727 3.07279ZM15.0727 12.5273C14.3698 11.8243 13.2302 11.8243 12.5273 12.5273C11.8243 13.2302 11.8243 14.3698 12.5273 15.0727L15.0727 12.5273ZM24.5273 27.0727C25.2302 27.7757 26.3698 27.7757 27.0727 27.0727C27.7757 26.3698 27.7757 25.2302 27.0727 24.5273L24.5273 27.0727ZM12.5273 15.0727C13.2302 15.7757 14.3698 15.7757 15.0727 15.0727C15.7757 14.3698 15.7757 13.2302 15.0727 12.5273L12.5273 15.0727ZM3.07279 0.527202C2.36985 -0.175734 1.23014 -0.175734 0.527202 0.527202C-0.175734 1.23014 -0.175734 2.36985 0.527202 3.07279L3.07279 0.527202ZM3.07279 27.0727L15.0727 15.0727L12.5273 12.5273L0.527202 24.5273L3.07279 27.0727ZM15.0727 15.0727L27.0727 3.07279L24.5273 0.527202L12.5273 12.5273L15.0727 15.0727ZM12.5273 15.0727L24.5273 27.0727L27.0727 24.5273L15.0727 12.5273L12.5273 15.0727ZM15.0727 12.5273L3.07279 0.527202L0.527202 3.07279L12.5273 15.0727L15.0727 12.5273Z" fill="white" fill-opacity="0.51"/>
</svg>
