<svg width="1440" height="196" viewBox="0 0 1440 196" fill="none" xmlns="http://www.w3.org/2000/svg">
<path d="M656.976 49.2H663.528L663.504 66H659.904V51.12L653.376 66H648.288L641.784 51.12V66H638.184V49.2H644.736L650.88 63.96L656.976 49.2ZM683.143 49.2H687.463L678.655 59.424V66H674.911V59.424L666.079 49.2H670.567L676.855 56.808L683.143 49.2ZM712.294 66L710.542 62.232H699.934L698.182 66H694.462L702.43 49.2H708.166L716.134 66H712.294ZM701.23 59.424H709.246L705.238 50.784L701.23 59.424ZM727.62 49.2C730.868 49.2 733.412 49.944 735.252 51.432C737.108 52.92 738.036 54.976 738.036 57.6C738.036 60.224 737.108 62.28 735.252 63.768C733.412 65.256 730.868 66 727.62 66H718.692V49.2H727.62ZM727.236 62.928C729.524 62.928 731.268 62.456 732.468 61.512C733.684 60.568 734.292 59.264 734.292 57.6C734.292 55.936 733.684 54.632 732.468 53.688C731.268 52.744 729.524 52.272 727.236 52.272H722.436V62.928H727.236ZM750.284 49.2C753.532 49.2 756.076 49.944 757.916 51.432C759.772 52.92 760.7 54.976 760.7 57.6C760.7 60.224 759.772 62.28 757.916 63.768C756.076 65.256 753.532 66 750.284 66H741.356V49.2H750.284ZM749.9 62.928C752.188 62.928 753.932 62.456 755.132 61.512C756.348 60.568 756.956 59.264 756.956 57.6C756.956 55.936 756.348 54.632 755.132 53.688C753.932 52.744 752.188 52.272 749.9 52.272H745.1V62.928H749.9ZM764.02 66V49.2H767.764V66H764.02ZM787.633 60.048L791.257 60.24C790.937 62.16 789.961 63.648 788.329 64.704C786.713 65.76 784.497 66.288 781.681 66.288C778.321 66.288 775.713 65.512 773.857 63.96C772.017 62.392 771.097 60.272 771.097 57.6C771.097 54.944 772.001 52.832 773.809 51.264C775.617 49.696 778.153 48.912 781.417 48.912C784.057 48.912 786.217 49.432 787.897 50.472C789.593 51.496 790.617 52.888 790.969 54.648L787.369 54.888C787.113 54.008 786.433 53.304 785.329 52.776C784.241 52.232 782.937 51.96 781.417 51.96C779.321 51.96 777.697 52.48 776.545 53.52C775.409 54.56 774.841 55.92 774.841 57.6C774.841 59.28 775.433 60.64 776.617 61.68C777.801 62.72 779.489 63.24 781.681 63.24C783.329 63.24 784.665 62.944 785.689 62.352C786.729 61.744 787.377 60.976 787.633 60.048ZM792.39 52.272V49.2H810.75V52.272H803.454V66H799.71V52.272H792.39ZM813.567 66V49.2H817.311V66H813.567ZM823.476 63.936C821.588 62.368 820.644 60.256 820.644 57.6C820.644 54.944 821.588 52.832 823.476 51.264C825.364 49.696 828.004 48.912 831.396 48.912C834.788 48.912 837.428 49.696 839.316 51.264C841.22 52.832 842.172 54.944 842.172 57.6C842.172 60.256 841.22 62.368 839.316 63.936C837.428 65.504 834.788 66.288 831.396 66.288C828.004 66.288 825.364 65.504 823.476 63.936ZM826.212 53.52C824.996 54.56 824.388 55.92 824.388 57.6C824.388 59.28 824.996 60.64 826.212 61.68C827.444 62.72 829.172 63.24 831.396 63.24C833.62 63.24 835.348 62.72 836.58 61.68C837.812 60.64 838.428 59.28 838.428 57.6C838.428 55.92 837.812 54.56 836.58 53.52C835.348 52.48 833.62 51.96 831.396 51.96C829.172 51.96 827.444 52.48 826.212 53.52ZM861.113 49.2H864.713V66H858.329L849.089 51.192V66H845.489V49.2H851.873L861.113 64.008V49.2Z" fill="black"/>
<path d="M916.976 49.2H923.528L923.504 66H919.904V51.12L913.376 66H908.288L901.784 51.12V66H898.184V49.2H904.736L910.88 63.96L916.976 49.2ZM943.143 49.2H947.463L938.655 59.424V66H934.911V59.424L926.079 49.2H930.567L936.855 56.808L943.143 49.2ZM972.294 66L970.542 62.232H959.934L958.182 66H954.462L962.43 49.2H968.166L976.134 66H972.294ZM961.23 59.424H969.246L965.238 50.784L961.23 59.424ZM987.62 49.2C990.868 49.2 993.412 49.944 995.252 51.432C997.108 52.92 998.036 54.976 998.036 57.6C998.036 60.224 997.108 62.28 995.252 63.768C993.412 65.256 990.868 66 987.62 66H978.692V49.2H987.62ZM987.236 62.928C989.524 62.928 991.268 62.456 992.468 61.512C993.684 60.568 994.292 59.264 994.292 57.6C994.292 55.936 993.684 54.632 992.468 53.688C991.268 52.744 989.524 52.272 987.236 52.272H982.436V62.928H987.236ZM1010.28 49.2C1013.53 49.2 1016.08 49.944 1017.92 51.432C1019.77 52.92 1020.7 54.976 1020.7 57.6C1020.7 60.224 1019.77 62.28 1017.92 63.768C1016.08 65.256 1013.53 66 1010.28 66H1001.36V49.2H1010.28ZM1009.9 62.928C1012.19 62.928 1013.93 62.456 1015.13 61.512C1016.35 60.568 1016.96 59.264 1016.96 57.6C1016.96 55.936 1016.35 54.632 1015.13 53.688C1013.93 52.744 1012.19 52.272 1009.9 52.272H1005.1V62.928H1009.9ZM1024.02 66V49.2H1027.76V66H1024.02ZM1047.63 60.048L1051.26 60.24C1050.94 62.16 1049.96 63.648 1048.33 64.704C1046.71 65.76 1044.5 66.288 1041.68 66.288C1038.32 66.288 1035.71 65.512 1033.86 63.96C1032.02 62.392 1031.1 60.272 1031.1 57.6C1031.1 54.944 1032 52.832 1033.81 51.264C1035.62 49.696 1038.15 48.912 1041.42 48.912C1044.06 48.912 1046.22 49.432 1047.9 50.472C1049.59 51.496 1050.62 52.888 1050.97 54.648L1047.37 54.888C1047.11 54.008 1046.43 53.304 1045.33 52.776C1044.24 52.232 1042.94 51.96 1041.42 51.96C1039.32 51.96 1037.7 52.48 1036.55 53.52C1035.41 54.56 1034.84 55.92 1034.84 57.6C1034.84 59.28 1035.43 60.64 1036.62 61.68C1037.8 62.72 1039.49 63.24 1041.68 63.24C1043.33 63.24 1044.67 62.944 1045.69 62.352C1046.73 61.744 1047.38 60.976 1047.63 60.048ZM1052.39 52.272V49.2H1070.75V52.272H1063.45V66H1059.71V52.272H1052.39ZM1073.57 66V49.2H1077.31V66H1073.57ZM1083.48 63.936C1081.59 62.368 1080.64 60.256 1080.64 57.6C1080.64 54.944 1081.59 52.832 1083.48 51.264C1085.36 49.696 1088 48.912 1091.4 48.912C1094.79 48.912 1097.43 49.696 1099.32 51.264C1101.22 52.832 1102.17 54.944 1102.17 57.6C1102.17 60.256 1101.22 62.368 1099.32 63.936C1097.43 65.504 1094.79 66.288 1091.4 66.288C1088 66.288 1085.36 65.504 1083.48 63.936ZM1086.21 53.52C1085 54.56 1084.39 55.92 1084.39 57.6C1084.39 59.28 1085 60.64 1086.21 61.68C1087.44 62.72 1089.17 63.24 1091.4 63.24C1093.62 63.24 1095.35 62.72 1096.58 61.68C1097.81 60.64 1098.43 59.28 1098.43 57.6C1098.43 55.92 1097.81 54.56 1096.58 53.52C1095.35 52.48 1093.62 51.96 1091.4 51.96C1089.17 51.96 1087.44 52.48 1086.21 53.52ZM1121.11 49.2H1124.71V66H1118.33L1109.09 51.192V66H1105.49V49.2H1111.87L1121.11 64.008V49.2Z" fill="black"/>
<path d="M1278.98 7.2H1285.53L1285.5 24H1281.9V9.12L1275.38 24H1270.29L1263.78 9.12V24H1260.18V7.2H1266.74L1272.88 21.96L1278.98 7.2ZM1305.14 7.2H1309.46L1300.65 17.424V24H1296.91V17.424L1288.08 7.2H1292.57L1298.85 14.808L1305.14 7.2ZM1334.29 24L1332.54 20.232H1321.93L1320.18 24H1316.46L1324.43 7.2H1330.17L1338.13 24H1334.29ZM1323.23 17.424H1331.25L1327.24 8.784L1323.23 17.424ZM1349.62 7.2C1352.87 7.2 1355.41 7.944 1357.25 9.432C1359.11 10.92 1360.04 12.976 1360.04 15.6C1360.04 18.224 1359.11 20.28 1357.25 21.768C1355.41 23.256 1352.87 24 1349.62 24H1340.69V7.2H1349.62ZM1349.24 20.928C1351.52 20.928 1353.27 20.456 1354.47 19.512C1355.68 18.568 1356.29 17.264 1356.29 15.6C1356.29 13.936 1355.68 12.632 1354.47 11.688C1353.27 10.744 1351.52 10.272 1349.24 10.272H1344.44V20.928H1349.24ZM1372.28 7.2C1375.53 7.2 1378.08 7.944 1379.92 9.432C1381.77 10.92 1382.7 12.976 1382.7 15.6C1382.7 18.224 1381.77 20.28 1379.92 21.768C1378.08 23.256 1375.53 24 1372.28 24H1363.36V7.2H1372.28ZM1371.9 20.928C1374.19 20.928 1375.93 20.456 1377.13 19.512C1378.35 18.568 1378.96 17.264 1378.96 15.6C1378.96 13.936 1378.35 12.632 1377.13 11.688C1375.93 10.744 1374.19 10.272 1371.9 10.272H1367.1V20.928H1371.9ZM1386.02 24V7.2H1389.76V24H1386.02ZM1409.63 18.048L1413.26 18.24C1412.94 20.16 1411.96 21.648 1410.33 22.704C1408.71 23.76 1406.5 24.288 1403.68 24.288C1400.32 24.288 1397.71 23.512 1395.86 21.96C1394.02 20.392 1393.1 18.272 1393.1 15.6C1393.1 12.944 1394 10.832 1395.81 9.264C1397.62 7.696 1400.15 6.912 1403.42 6.912C1406.06 6.912 1408.22 7.432 1409.9 8.472C1411.59 9.496 1412.62 10.888 1412.97 12.648L1409.37 12.888C1409.11 12.008 1408.43 11.304 1407.33 10.776C1406.24 10.232 1404.94 9.96 1403.42 9.96C1401.32 9.96 1399.7 10.48 1398.55 11.52C1397.41 12.56 1396.84 13.92 1396.84 15.6C1396.84 17.28 1397.43 18.64 1398.62 19.68C1399.8 20.72 1401.49 21.24 1403.68 21.24C1405.33 21.24 1406.67 20.944 1407.69 20.352C1408.73 19.744 1409.38 18.976 1409.63 18.048ZM1414.39 10.272V7.2H1432.75V10.272H1425.45V24H1421.71V10.272H1414.39ZM1435.57 24V7.2H1439.31V24H1435.57ZM1445.48 21.936C1443.59 20.368 1442.64 18.256 1442.64 15.6C1442.64 12.944 1443.59 10.832 1445.48 9.264C1447.36 7.696 1450 6.912 1453.4 6.912C1456.79 6.912 1459.43 7.696 1461.32 9.264C1463.22 10.832 1464.17 12.944 1464.17 15.6C1464.17 18.256 1463.22 20.368 1461.32 21.936C1459.43 23.504 1456.79 24.288 1453.4 24.288C1450 24.288 1447.36 23.504 1445.48 21.936ZM1448.21 11.52C1447 12.56 1446.39 13.92 1446.39 15.6C1446.39 17.28 1447 18.64 1448.21 19.68C1449.44 20.72 1451.17 21.24 1453.4 21.24C1455.62 21.24 1457.35 20.72 1458.58 19.68C1459.81 18.64 1460.43 17.28 1460.43 15.6C1460.43 13.92 1459.81 12.56 1458.58 11.52C1457.35 10.48 1455.62 9.96 1453.4 9.96C1451.17 9.96 1449.44 10.48 1448.21 11.52ZM1483.11 7.2H1486.71V24H1480.33L1471.09 9.192V24H1467.49V7.2H1473.87L1483.11 22.008V7.2Z" fill="black"/>
<path d="M1013.98 7.2H1020.53L1020.5 24H1016.9V9.12L1010.38 24H1005.29L998.784 9.12V24H995.184V7.2H1001.74L1007.88 21.96L1013.98 7.2ZM1040.14 7.2H1044.46L1035.65 17.424V24H1031.91V17.424L1023.08 7.2H1027.57L1033.85 14.808L1040.14 7.2ZM1069.29 24L1067.54 20.232H1056.93L1055.18 24H1051.46L1059.43 7.2H1065.17L1073.13 24H1069.29ZM1058.23 17.424H1066.25L1062.24 8.784L1058.23 17.424ZM1084.62 7.2C1087.87 7.2 1090.41 7.944 1092.25 9.432C1094.11 10.92 1095.04 12.976 1095.04 15.6C1095.04 18.224 1094.11 20.28 1092.25 21.768C1090.41 23.256 1087.87 24 1084.62 24H1075.69V7.2H1084.62ZM1084.24 20.928C1086.52 20.928 1088.27 20.456 1089.47 19.512C1090.68 18.568 1091.29 17.264 1091.29 15.6C1091.29 13.936 1090.68 12.632 1089.47 11.688C1088.27 10.744 1086.52 10.272 1084.24 10.272H1079.44V20.928H1084.24ZM1107.28 7.2C1110.53 7.2 1113.08 7.944 1114.92 9.432C1116.77 10.92 1117.7 12.976 1117.7 15.6C1117.7 18.224 1116.77 20.28 1114.92 21.768C1113.08 23.256 1110.53 24 1107.28 24H1098.36V7.2H1107.28ZM1106.9 20.928C1109.19 20.928 1110.93 20.456 1112.13 19.512C1113.35 18.568 1113.96 17.264 1113.96 15.6C1113.96 13.936 1113.35 12.632 1112.13 11.688C1110.93 10.744 1109.19 10.272 1106.9 10.272H1102.1V20.928H1106.9ZM1121.02 24V7.2H1124.76V24H1121.02ZM1144.63 18.048L1148.26 18.24C1147.94 20.16 1146.96 21.648 1145.33 22.704C1143.71 23.76 1141.5 24.288 1138.68 24.288C1135.32 24.288 1132.71 23.512 1130.86 21.96C1129.02 20.392 1128.1 18.272 1128.1 15.6C1128.1 12.944 1129 10.832 1130.81 9.264C1132.62 7.696 1135.15 6.912 1138.42 6.912C1141.06 6.912 1143.22 7.432 1144.9 8.472C1146.59 9.496 1147.62 10.888 1147.97 12.648L1144.37 12.888C1144.11 12.008 1143.43 11.304 1142.33 10.776C1141.24 10.232 1139.94 9.96 1138.42 9.96C1136.32 9.96 1134.7 10.48 1133.55 11.52C1132.41 12.56 1131.84 13.92 1131.84 15.6C1131.84 17.28 1132.43 18.64 1133.62 19.68C1134.8 20.72 1136.49 21.24 1138.68 21.24C1140.33 21.24 1141.67 20.944 1142.69 20.352C1143.73 19.744 1144.38 18.976 1144.63 18.048ZM1149.39 10.272V7.2H1167.75V10.272H1160.45V24H1156.71V10.272H1149.39ZM1170.57 24V7.2H1174.31V24H1170.57ZM1180.48 21.936C1178.59 20.368 1177.64 18.256 1177.64 15.6C1177.64 12.944 1178.59 10.832 1180.48 9.264C1182.36 7.696 1185 6.912 1188.4 6.912C1191.79 6.912 1194.43 7.696 1196.32 9.264C1198.22 10.832 1199.17 12.944 1199.17 15.6C1199.17 18.256 1198.22 20.368 1196.32 21.936C1194.43 23.504 1191.79 24.288 1188.4 24.288C1185 24.288 1182.36 23.504 1180.48 21.936ZM1183.21 11.52C1182 12.56 1181.39 13.92 1181.39 15.6C1181.39 17.28 1182 18.64 1183.21 19.68C1184.44 20.72 1186.17 21.24 1188.4 21.24C1190.62 21.24 1192.35 20.72 1193.58 19.68C1194.81 18.64 1195.43 17.28 1195.43 15.6C1195.43 13.92 1194.81 12.56 1193.58 11.52C1192.35 10.48 1190.62 9.96 1188.4 9.96C1186.17 9.96 1184.44 10.48 1183.21 11.52ZM1218.11 7.2H1221.71V24H1215.33L1206.09 9.192V24H1202.49V7.2H1208.87L1218.11 22.008V7.2Z" fill="black"/>
<path d="M748.976 7.2H755.528L755.504 24H751.904V9.12L745.376 24H740.288L733.784 9.12V24H730.184V7.2H736.736L742.88 21.96L748.976 7.2ZM775.143 7.2H779.463L770.655 17.424V24H766.911V17.424L758.079 7.2H762.567L768.855 14.808L775.143 7.2ZM804.294 24L802.542 20.232H791.934L790.182 24H786.462L794.43 7.2H800.166L808.134 24H804.294ZM793.23 17.424H801.246L797.238 8.784L793.23 17.424ZM819.62 7.2C822.868 7.2 825.412 7.944 827.252 9.432C829.108 10.92 830.036 12.976 830.036 15.6C830.036 18.224 829.108 20.28 827.252 21.768C825.412 23.256 822.868 24 819.62 24H810.692V7.2H819.62ZM819.236 20.928C821.524 20.928 823.268 20.456 824.468 19.512C825.684 18.568 826.292 17.264 826.292 15.6C826.292 13.936 825.684 12.632 824.468 11.688C823.268 10.744 821.524 10.272 819.236 10.272H814.436V20.928H819.236ZM842.284 7.2C845.532 7.2 848.076 7.944 849.916 9.432C851.772 10.92 852.7 12.976 852.7 15.6C852.7 18.224 851.772 20.28 849.916 21.768C848.076 23.256 845.532 24 842.284 24H833.356V7.2H842.284ZM841.9 20.928C844.188 20.928 845.932 20.456 847.132 19.512C848.348 18.568 848.956 17.264 848.956 15.6C848.956 13.936 848.348 12.632 847.132 11.688C845.932 10.744 844.188 10.272 841.9 10.272H837.1V20.928H841.9ZM856.02 24V7.2H859.764V24H856.02ZM879.633 18.048L883.257 18.24C882.937 20.16 881.961 21.648 880.329 22.704C878.713 23.76 876.497 24.288 873.681 24.288C870.321 24.288 867.713 23.512 865.857 21.96C864.017 20.392 863.097 18.272 863.097 15.6C863.097 12.944 864.001 10.832 865.809 9.264C867.617 7.696 870.153 6.912 873.417 6.912C876.057 6.912 878.217 7.432 879.897 8.472C881.593 9.496 882.617 10.888 882.969 12.648L879.369 12.888C879.113 12.008 878.433 11.304 877.329 10.776C876.241 10.232 874.937 9.96 873.417 9.96C871.321 9.96 869.697 10.48 868.545 11.52C867.409 12.56 866.841 13.92 866.841 15.6C866.841 17.28 867.433 18.64 868.617 19.68C869.801 20.72 871.489 21.24 873.681 21.24C875.329 21.24 876.665 20.944 877.689 20.352C878.729 19.744 879.377 18.976 879.633 18.048ZM884.39 10.272V7.2H902.75V10.272H895.454V24H891.71V10.272H884.39ZM905.567 24V7.2H909.311V24H905.567ZM915.476 21.936C913.588 20.368 912.644 18.256 912.644 15.6C912.644 12.944 913.588 10.832 915.476 9.264C917.364 7.696 920.004 6.912 923.396 6.912C926.788 6.912 929.428 7.696 931.316 9.264C933.22 10.832 934.172 12.944 934.172 15.6C934.172 18.256 933.22 20.368 931.316 21.936C929.428 23.504 926.788 24.288 923.396 24.288C920.004 24.288 917.364 23.504 915.476 21.936ZM918.212 11.52C916.996 12.56 916.388 13.92 916.388 15.6C916.388 17.28 916.996 18.64 918.212 19.68C919.444 20.72 921.172 21.24 923.396 21.24C925.62 21.24 927.348 20.72 928.58 19.68C929.812 18.64 930.428 17.28 930.428 15.6C930.428 13.92 929.812 12.56 928.58 11.52C927.348 10.48 925.62 9.96 923.396 9.96C921.172 9.96 919.444 10.48 918.212 11.52ZM953.113 7.2H956.713V24H950.329L941.089 9.192V24H937.489V7.2H943.873L953.113 22.008V7.2Z" fill="black"/>
<path d="M483.976 7.2H490.528L490.504 24H486.904V9.12L480.376 24H475.288L468.784 9.12V24H465.184V7.2H471.736L477.88 21.96L483.976 7.2ZM510.143 7.2H514.463L505.655 17.424V24H501.911V17.424L493.079 7.2H497.567L503.855 14.808L510.143 7.2ZM539.294 24L537.542 20.232H526.934L525.182 24H521.462L529.43 7.2H535.166L543.134 24H539.294ZM528.23 17.424H536.246L532.238 8.784L528.23 17.424ZM554.62 7.2C557.868 7.2 560.412 7.944 562.252 9.432C564.108 10.92 565.036 12.976 565.036 15.6C565.036 18.224 564.108 20.28 562.252 21.768C560.412 23.256 557.868 24 554.62 24H545.692V7.2H554.62ZM554.236 20.928C556.524 20.928 558.268 20.456 559.468 19.512C560.684 18.568 561.292 17.264 561.292 15.6C561.292 13.936 560.684 12.632 559.468 11.688C558.268 10.744 556.524 10.272 554.236 10.272H549.436V20.928H554.236ZM577.284 7.2C580.532 7.2 583.076 7.944 584.916 9.432C586.772 10.92 587.7 12.976 587.7 15.6C587.7 18.224 586.772 20.28 584.916 21.768C583.076 23.256 580.532 24 577.284 24H568.356V7.2H577.284ZM576.9 20.928C579.188 20.928 580.932 20.456 582.132 19.512C583.348 18.568 583.956 17.264 583.956 15.6C583.956 13.936 583.348 12.632 582.132 11.688C580.932 10.744 579.188 10.272 576.9 10.272H572.1V20.928H576.9ZM591.02 24V7.2H594.764V24H591.02ZM614.633 18.048L618.257 18.24C617.937 20.16 616.961 21.648 615.329 22.704C613.713 23.76 611.497 24.288 608.681 24.288C605.321 24.288 602.713 23.512 600.857 21.96C599.017 20.392 598.097 18.272 598.097 15.6C598.097 12.944 599.001 10.832 600.809 9.264C602.617 7.696 605.153 6.912 608.417 6.912C611.057 6.912 613.217 7.432 614.897 8.472C616.593 9.496 617.617 10.888 617.969 12.648L614.369 12.888C614.113 12.008 613.433 11.304 612.329 10.776C611.241 10.232 609.937 9.96 608.417 9.96C606.321 9.96 604.697 10.48 603.545 11.52C602.409 12.56 601.841 13.92 601.841 15.6C601.841 17.28 602.433 18.64 603.617 19.68C604.801 20.72 606.489 21.24 608.681 21.24C610.329 21.24 611.665 20.944 612.689 20.352C613.729 19.744 614.377 18.976 614.633 18.048ZM619.39 10.272V7.2H637.75V10.272H630.454V24H626.71V10.272H619.39ZM640.567 24V7.2H644.311V24H640.567ZM650.476 21.936C648.588 20.368 647.644 18.256 647.644 15.6C647.644 12.944 648.588 10.832 650.476 9.264C652.364 7.696 655.004 6.912 658.396 6.912C661.788 6.912 664.428 7.696 666.316 9.264C668.22 10.832 669.172 12.944 669.172 15.6C669.172 18.256 668.22 20.368 666.316 21.936C664.428 23.504 661.788 24.288 658.396 24.288C655.004 24.288 652.364 23.504 650.476 21.936ZM653.212 11.52C651.996 12.56 651.388 13.92 651.388 15.6C651.388 17.28 651.996 18.64 653.212 19.68C654.444 20.72 656.172 21.24 658.396 21.24C660.62 21.24 662.348 20.72 663.58 19.68C664.812 18.64 665.428 17.28 665.428 15.6C665.428 13.92 664.812 12.56 663.58 11.52C662.348 10.48 660.62 9.96 658.396 9.96C656.172 9.96 654.444 10.48 653.212 11.52ZM688.113 7.2H691.713V24H685.329L676.089 9.192V24H672.489V7.2H678.873L688.113 22.008V7.2Z" fill="black"/>
<path d="M218.976 7.2H225.528L225.504 24H221.904V9.12L215.376 24H210.288L203.784 9.12V24H200.184V7.2H206.736L212.88 21.96L218.976 7.2ZM245.143 7.2H249.463L240.655 17.424V24H236.911V17.424L228.079 7.2H232.567L238.855 14.808L245.143 7.2ZM274.294 24L272.542 20.232H261.934L260.182 24H256.462L264.43 7.2H270.166L278.134 24H274.294ZM263.23 17.424H271.246L267.238 8.784L263.23 17.424ZM289.62 7.2C292.868 7.2 295.412 7.944 297.252 9.432C299.108 10.92 300.036 12.976 300.036 15.6C300.036 18.224 299.108 20.28 297.252 21.768C295.412 23.256 292.868 24 289.62 24H280.692V7.2H289.62ZM289.236 20.928C291.524 20.928 293.268 20.456 294.468 19.512C295.684 18.568 296.292 17.264 296.292 15.6C296.292 13.936 295.684 12.632 294.468 11.688C293.268 10.744 291.524 10.272 289.236 10.272H284.436V20.928H289.236ZM312.284 7.2C315.532 7.2 318.076 7.944 319.916 9.432C321.772 10.92 322.7 12.976 322.7 15.6C322.7 18.224 321.772 20.28 319.916 21.768C318.076 23.256 315.532 24 312.284 24H303.356V7.2H312.284ZM311.9 20.928C314.188 20.928 315.932 20.456 317.132 19.512C318.348 18.568 318.956 17.264 318.956 15.6C318.956 13.936 318.348 12.632 317.132 11.688C315.932 10.744 314.188 10.272 311.9 10.272H307.1V20.928H311.9ZM326.02 24V7.2H329.764V24H326.02ZM349.633 18.048L353.257 18.24C352.937 20.16 351.961 21.648 350.329 22.704C348.713 23.76 346.497 24.288 343.681 24.288C340.321 24.288 337.713 23.512 335.857 21.96C334.017 20.392 333.097 18.272 333.097 15.6C333.097 12.944 334.001 10.832 335.809 9.264C337.617 7.696 340.153 6.912 343.417 6.912C346.057 6.912 348.217 7.432 349.897 8.472C351.593 9.496 352.617 10.888 352.969 12.648L349.369 12.888C349.113 12.008 348.433 11.304 347.329 10.776C346.241 10.232 344.937 9.96 343.417 9.96C341.321 9.96 339.697 10.48 338.545 11.52C337.409 12.56 336.841 13.92 336.841 15.6C336.841 17.28 337.433 18.64 338.617 19.68C339.801 20.72 341.489 21.24 343.681 21.24C345.329 21.24 346.665 20.944 347.689 20.352C348.729 19.744 349.377 18.976 349.633 18.048ZM354.39 10.272V7.2H372.75V10.272H365.454V24H361.71V10.272H354.39ZM375.567 24V7.2H379.311V24H375.567ZM385.476 21.936C383.588 20.368 382.644 18.256 382.644 15.6C382.644 12.944 383.588 10.832 385.476 9.264C387.364 7.696 390.004 6.912 393.396 6.912C396.788 6.912 399.428 7.696 401.316 9.264C403.22 10.832 404.172 12.944 404.172 15.6C404.172 18.256 403.22 20.368 401.316 21.936C399.428 23.504 396.788 24.288 393.396 24.288C390.004 24.288 387.364 23.504 385.476 21.936ZM388.212 11.52C386.996 12.56 386.388 13.92 386.388 15.6C386.388 17.28 386.996 18.64 388.212 19.68C389.444 20.72 391.172 21.24 393.396 21.24C395.62 21.24 397.348 20.72 398.58 19.68C399.812 18.64 400.428 17.28 400.428 15.6C400.428 13.92 399.812 12.56 398.58 11.52C397.348 10.48 395.62 9.96 393.396 9.96C391.172 9.96 389.444 10.48 388.212 11.52ZM423.113 7.2H426.713V24H420.329L411.089 9.192V24H407.489V7.2H413.873L423.113 22.008V7.2Z" fill="black"/>
<path d="M-46.024 7.2H-39.472L-39.496 24H-43.096V9.12L-49.624 24H-54.712L-61.216 9.12V24H-64.816V7.2H-58.264L-52.12 21.96L-46.024 7.2ZM-19.8572 7.2H-15.5372L-24.3452 17.424V24H-28.0892V17.424L-36.9212 7.2H-32.4332L-26.1452 14.808L-19.8572 7.2ZM9.29413 24L7.54213 20.232H-3.06587L-4.81787 24H-8.53787L-0.569875 7.2H5.16613L13.1341 24H9.29413ZM-1.76987 17.424H6.24613L2.23813 8.784L-1.76987 17.424ZM24.6198 7.2C27.8678 7.2 30.4118 7.944 32.2518 9.432C34.1078 10.92 35.0358 12.976 35.0358 15.6C35.0358 18.224 34.1078 20.28 32.2518 21.768C30.4118 23.256 27.8678 24 24.6198 24H15.6918V7.2H24.6198ZM24.2358 20.928C26.5238 20.928 28.2678 20.456 29.4678 19.512C30.6838 18.568 31.2918 17.264 31.2918 15.6C31.2918 13.936 30.6838 12.632 29.4678 11.688C28.2678 10.744 26.5238 10.272 24.2358 10.272H19.4358V20.928H24.2358ZM47.2839 7.2C50.5319 7.2 53.0759 7.944 54.9159 9.432C56.7719 10.92 57.6999 12.976 57.6999 15.6C57.6999 18.224 56.7719 20.28 54.9159 21.768C53.0759 23.256 50.5319 24 47.2839 24H38.3559V7.2H47.2839ZM46.8999 20.928C49.1879 20.928 50.9319 20.456 52.1319 19.512C53.3479 18.568 53.9559 17.264 53.9559 15.6C53.9559 13.936 53.3479 12.632 52.1319 11.688C50.9319 10.744 49.1879 10.272 46.8999 10.272H42.0999V20.928H46.8999ZM61.0199 24V7.2H64.7639V24H61.0199ZM84.6333 18.048L88.2573 18.24C87.9373 20.16 86.9613 21.648 85.3293 22.704C83.7133 23.76 81.4973 24.288 78.6813 24.288C75.3213 24.288 72.7133 23.512 70.8573 21.96C69.0173 20.392 68.0973 18.272 68.0973 15.6C68.0973 12.944 69.0013 10.832 70.8093 9.264C72.6173 7.696 75.1533 6.912 78.4173 6.912C81.0573 6.912 83.2173 7.432 84.8973 8.472C86.5933 9.496 87.6173 10.888 87.9693 12.648L84.3693 12.888C84.1133 12.008 83.4333 11.304 82.3293 10.776C81.2413 10.232 79.9373 9.96 78.4173 9.96C76.3213 9.96 74.6973 10.48 73.5453 11.52C72.4093 12.56 71.8413 13.92 71.8413 15.6C71.8413 17.28 72.4333 18.64 73.6173 19.68C74.8013 20.72 76.4893 21.24 78.6813 21.24C80.3293 21.24 81.6653 20.944 82.6893 20.352C83.7293 19.744 84.3773 18.976 84.6333 18.048ZM89.3896 10.272V7.2H107.75V10.272H100.454V24H96.7096V10.272H89.3896ZM110.567 24V7.2H114.311V24H110.567ZM120.476 21.936C118.588 20.368 117.644 18.256 117.644 15.6C117.644 12.944 118.588 10.832 120.476 9.264C122.364 7.696 125.004 6.912 128.396 6.912C131.788 6.912 134.428 7.696 136.316 9.264C138.22 10.832 139.172 12.944 139.172 15.6C139.172 18.256 138.22 20.368 136.316 21.936C134.428 23.504 131.788 24.288 128.396 24.288C125.004 24.288 122.364 23.504 120.476 21.936ZM123.212 11.52C121.996 12.56 121.388 13.92 121.388 15.6C121.388 17.28 121.996 18.64 123.212 19.68C124.444 20.72 126.172 21.24 128.396 21.24C130.62 21.24 132.348 20.72 133.58 19.68C134.812 18.64 135.428 17.28 135.428 15.6C135.428 13.92 134.812 12.56 133.58 11.52C132.348 10.48 130.62 9.96 128.396 9.96C126.172 9.96 124.444 10.48 123.212 11.52ZM158.113 7.2H161.713V24H155.329L146.089 9.192V24H142.489V7.2H148.873L158.113 22.008V7.2Z" fill="black"/>
<path d="M1176.98 49.2H1183.53L1183.5 66H1179.9V51.12L1173.38 66H1168.29L1161.78 51.12V66H1158.18V49.2H1164.74L1170.88 63.96L1176.98 49.2ZM1203.14 49.2H1207.46L1198.65 59.424V66H1194.91V59.424L1186.08 49.2H1190.57L1196.85 56.808L1203.14 49.2ZM1232.29 66L1230.54 62.232H1219.93L1218.18 66H1214.46L1222.43 49.2H1228.17L1236.13 66H1232.29ZM1221.23 59.424H1229.25L1225.24 50.784L1221.23 59.424ZM1247.62 49.2C1250.87 49.2 1253.41 49.944 1255.25 51.432C1257.11 52.92 1258.04 54.976 1258.04 57.6C1258.04 60.224 1257.11 62.28 1255.25 63.768C1253.41 65.256 1250.87 66 1247.62 66H1238.69V49.2H1247.62ZM1247.24 62.928C1249.52 62.928 1251.27 62.456 1252.47 61.512C1253.68 60.568 1254.29 59.264 1254.29 57.6C1254.29 55.936 1253.68 54.632 1252.47 53.688C1251.27 52.744 1249.52 52.272 1247.24 52.272H1242.44V62.928H1247.24ZM1270.28 49.2C1273.53 49.2 1276.08 49.944 1277.92 51.432C1279.77 52.92 1280.7 54.976 1280.7 57.6C1280.7 60.224 1279.77 62.28 1277.92 63.768C1276.08 65.256 1273.53 66 1270.28 66H1261.36V49.2H1270.28ZM1269.9 62.928C1272.19 62.928 1273.93 62.456 1275.13 61.512C1276.35 60.568 1276.96 59.264 1276.96 57.6C1276.96 55.936 1276.35 54.632 1275.13 53.688C1273.93 52.744 1272.19 52.272 1269.9 52.272H1265.1V62.928H1269.9ZM1284.02 66V49.2H1287.76V66H1284.02ZM1307.63 60.048L1311.26 60.24C1310.94 62.16 1309.96 63.648 1308.33 64.704C1306.71 65.76 1304.5 66.288 1301.68 66.288C1298.32 66.288 1295.71 65.512 1293.86 63.96C1292.02 62.392 1291.1 60.272 1291.1 57.6C1291.1 54.944 1292 52.832 1293.81 51.264C1295.62 49.696 1298.15 48.912 1301.42 48.912C1304.06 48.912 1306.22 49.432 1307.9 50.472C1309.59 51.496 1310.62 52.888 1310.97 54.648L1307.37 54.888C1307.11 54.008 1306.43 53.304 1305.33 52.776C1304.24 52.232 1302.94 51.96 1301.42 51.96C1299.32 51.96 1297.7 52.48 1296.55 53.52C1295.41 54.56 1294.84 55.92 1294.84 57.6C1294.84 59.28 1295.43 60.64 1296.62 61.68C1297.8 62.72 1299.49 63.24 1301.68 63.24C1303.33 63.24 1304.67 62.944 1305.69 62.352C1306.73 61.744 1307.38 60.976 1307.63 60.048ZM1312.39 52.272V49.2H1330.75V52.272H1323.45V66H1319.71V52.272H1312.39ZM1333.57 66V49.2H1337.31V66H1333.57ZM1343.48 63.936C1341.59 62.368 1340.64 60.256 1340.64 57.6C1340.64 54.944 1341.59 52.832 1343.48 51.264C1345.36 49.696 1348 48.912 1351.4 48.912C1354.79 48.912 1357.43 49.696 1359.32 51.264C1361.22 52.832 1362.17 54.944 1362.17 57.6C1362.17 60.256 1361.22 62.368 1359.32 63.936C1357.43 65.504 1354.79 66.288 1351.4 66.288C1348 66.288 1345.36 65.504 1343.48 63.936ZM1346.21 53.52C1345 54.56 1344.39 55.92 1344.39 57.6C1344.39 59.28 1345 60.64 1346.21 61.68C1347.44 62.72 1349.17 63.24 1351.4 63.24C1353.62 63.24 1355.35 62.72 1356.58 61.68C1357.81 60.64 1358.43 59.28 1358.43 57.6C1358.43 55.92 1357.81 54.56 1356.58 53.52C1355.35 52.48 1353.62 51.96 1351.4 51.96C1349.17 51.96 1347.44 52.48 1346.21 53.52ZM1381.11 49.2H1384.71V66H1378.33L1369.09 51.192V66H1365.49V49.2H1371.87L1381.11 64.008V49.2Z" fill="black"/>
<path d="M136.976 49.2H143.528L143.504 66H139.904V51.12L133.376 66H128.288L121.784 51.12V66H118.184V49.2H124.736L130.88 63.96L136.976 49.2ZM163.143 49.2H167.463L158.655 59.424V66H154.911V59.424L146.079 49.2H150.567L156.855 56.808L163.143 49.2ZM192.294 66L190.542 62.232H179.934L178.182 66H174.462L182.43 49.2H188.166L196.134 66H192.294ZM181.23 59.424H189.246L185.238 50.784L181.23 59.424ZM207.62 49.2C210.868 49.2 213.412 49.944 215.252 51.432C217.108 52.92 218.036 54.976 218.036 57.6C218.036 60.224 217.108 62.28 215.252 63.768C213.412 65.256 210.868 66 207.62 66H198.692V49.2H207.62ZM207.236 62.928C209.524 62.928 211.268 62.456 212.468 61.512C213.684 60.568 214.292 59.264 214.292 57.6C214.292 55.936 213.684 54.632 212.468 53.688C211.268 52.744 209.524 52.272 207.236 52.272H202.436V62.928H207.236ZM230.284 49.2C233.532 49.2 236.076 49.944 237.916 51.432C239.772 52.92 240.7 54.976 240.7 57.6C240.7 60.224 239.772 62.28 237.916 63.768C236.076 65.256 233.532 66 230.284 66H221.356V49.2H230.284ZM229.9 62.928C232.188 62.928 233.932 62.456 235.132 61.512C236.348 60.568 236.956 59.264 236.956 57.6C236.956 55.936 236.348 54.632 235.132 53.688C233.932 52.744 232.188 52.272 229.9 52.272H225.1V62.928H229.9ZM244.02 66V49.2H247.764V66H244.02ZM267.633 60.048L271.257 60.24C270.937 62.16 269.961 63.648 268.329 64.704C266.713 65.76 264.497 66.288 261.681 66.288C258.321 66.288 255.713 65.512 253.857 63.96C252.017 62.392 251.097 60.272 251.097 57.6C251.097 54.944 252.001 52.832 253.809 51.264C255.617 49.696 258.153 48.912 261.417 48.912C264.057 48.912 266.217 49.432 267.897 50.472C269.593 51.496 270.617 52.888 270.969 54.648L267.369 54.888C267.113 54.008 266.433 53.304 265.329 52.776C264.241 52.232 262.937 51.96 261.417 51.96C259.321 51.96 257.697 52.48 256.545 53.52C255.409 54.56 254.841 55.92 254.841 57.6C254.841 59.28 255.433 60.64 256.617 61.68C257.801 62.72 259.489 63.24 261.681 63.24C263.329 63.24 264.665 62.944 265.689 62.352C266.729 61.744 267.377 60.976 267.633 60.048ZM272.39 52.272V49.2H290.75V52.272H283.454V66H279.71V52.272H272.39ZM293.567 66V49.2H297.311V66H293.567ZM303.476 63.936C301.588 62.368 300.644 60.256 300.644 57.6C300.644 54.944 301.588 52.832 303.476 51.264C305.364 49.696 308.004 48.912 311.396 48.912C314.788 48.912 317.428 49.696 319.316 51.264C321.22 52.832 322.172 54.944 322.172 57.6C322.172 60.256 321.22 62.368 319.316 63.936C317.428 65.504 314.788 66.288 311.396 66.288C308.004 66.288 305.364 65.504 303.476 63.936ZM306.212 53.52C304.996 54.56 304.388 55.92 304.388 57.6C304.388 59.28 304.996 60.64 306.212 61.68C307.444 62.72 309.172 63.24 311.396 63.24C313.62 63.24 315.348 62.72 316.58 61.68C317.812 60.64 318.428 59.28 318.428 57.6C318.428 55.92 317.812 54.56 316.58 53.52C315.348 52.48 313.62 51.96 311.396 51.96C309.172 51.96 307.444 52.48 306.212 53.52ZM341.113 49.2H344.713V66H338.329L329.089 51.192V66H325.489V49.2H331.873L341.113 64.008V49.2Z" fill="black"/>
<path d="M-123.024 49.2H-116.472L-116.496 66H-120.096V51.12L-126.624 66H-131.712L-138.216 51.12V66H-141.816V49.2H-135.264L-129.12 63.96L-123.024 49.2ZM-96.8572 49.2H-92.5372L-101.345 59.424V66H-105.089V59.424L-113.921 49.2H-109.433L-103.145 56.808L-96.8572 49.2ZM-67.7059 66L-69.4579 62.232H-80.0659L-81.8179 66H-85.5379L-77.5699 49.2H-71.8339L-63.8659 66H-67.7059ZM-78.7699 59.424H-70.7539L-74.7619 50.784L-78.7699 59.424ZM-52.3802 49.2C-49.1322 49.2 -46.5882 49.944 -44.7482 51.432C-42.8922 52.92 -41.9642 54.976 -41.9642 57.6C-41.9642 60.224 -42.8922 62.28 -44.7482 63.768C-46.5882 65.256 -49.1322 66 -52.3802 66H-61.3082V49.2H-52.3802ZM-52.7642 62.928C-50.4762 62.928 -48.7322 62.456 -47.5322 61.512C-46.3162 60.568 -45.7082 59.264 -45.7082 57.6C-45.7082 55.936 -46.3162 54.632 -47.5322 53.688C-48.7322 52.744 -50.4762 52.272 -52.7642 52.272H-57.5642V62.928H-52.7642ZM-29.7161 49.2C-26.4681 49.2 -23.9241 49.944 -22.0841 51.432C-20.2281 52.92 -19.3001 54.976 -19.3001 57.6C-19.3001 60.224 -20.2281 62.28 -22.0841 63.768C-23.9241 65.256 -26.4681 66 -29.7161 66H-38.6441V49.2H-29.7161ZM-30.1001 62.928C-27.8121 62.928 -26.0681 62.456 -24.8681 61.512C-23.6521 60.568 -23.0441 59.264 -23.0441 57.6C-23.0441 55.936 -23.6521 54.632 -24.8681 53.688C-26.0681 52.744 -27.8121 52.272 -30.1001 52.272H-34.9001V62.928H-30.1001ZM-15.9801 66V49.2H-12.2361V66H-15.9801ZM7.63331 60.048L11.2573 60.24C10.9373 62.16 9.96131 63.648 8.32931 64.704C6.71331 65.76 4.49731 66.288 1.68131 66.288C-1.67869 66.288 -4.28669 65.512 -6.14269 63.96C-7.98269 62.392 -8.90269 60.272 -8.90269 57.6C-8.90269 54.944 -7.99869 52.832 -6.19069 51.264C-4.38269 49.696 -1.84669 48.912 1.41731 48.912C4.05731 48.912 6.21731 49.432 7.89731 50.472C9.59331 51.496 10.6173 52.888 10.9693 54.648L7.36931 54.888C7.11331 54.008 6.43331 53.304 5.32931 52.776C4.24131 52.232 2.93731 51.96 1.41731 51.96C-0.678687 51.96 -2.30269 52.48 -3.45469 53.52C-4.59069 54.56 -5.15869 55.92 -5.15869 57.6C-5.15869 59.28 -4.56669 60.64 -3.38269 61.68C-2.19869 62.72 -0.510687 63.24 1.68131 63.24C3.32931 63.24 4.66531 62.944 5.68931 62.352C6.72931 61.744 7.37731 60.976 7.63331 60.048ZM12.3896 52.272V49.2H30.7496V52.272H23.4536V66H19.7096V52.272H12.3896ZM33.5668 66V49.2H37.3108V66H33.5668ZM43.4762 63.936C41.5882 62.368 40.6442 60.256 40.6442 57.6C40.6442 54.944 41.5882 52.832 43.4762 51.264C45.3642 49.696 48.0042 48.912 51.3962 48.912C54.7882 48.912 57.4282 49.696 59.3162 51.264C61.2202 52.832 62.1722 54.944 62.1722 57.6C62.1722 60.256 61.2202 62.368 59.3162 63.936C57.4282 65.504 54.7882 66.288 51.3962 66.288C48.0042 66.288 45.3642 65.504 43.4762 63.936ZM46.2122 53.52C44.9962 54.56 44.3882 55.92 44.3882 57.6C44.3882 59.28 44.9962 60.64 46.2122 61.68C47.4442 62.72 49.1722 63.24 51.3962 63.24C53.6202 63.24 55.3482 62.72 56.5802 61.68C57.8122 60.64 58.4282 59.28 58.4282 57.6C58.4282 55.92 57.8122 54.56 56.5802 53.52C55.3482 52.48 53.6202 51.96 51.3962 51.96C49.1722 51.96 47.4442 52.48 46.2122 53.52ZM81.1127 49.2H84.7127V66H78.3287L69.0887 51.192V66H65.4887V49.2H71.8727L81.1127 64.008V49.2Z" fill="black"/>
<path d="M136.976 91.2H143.528L143.504 108H139.904V93.12L133.376 108H128.288L121.784 93.12V108H118.184V91.2H124.736L130.88 105.96L136.976 91.2ZM163.143 91.2H167.463L158.655 101.424V108H154.911V101.424L146.079 91.2H150.567L156.855 98.808L163.143 91.2ZM192.294 108L190.542 104.232H179.934L178.182 108H174.462L182.43 91.2H188.166L196.134 108H192.294ZM181.23 101.424H189.246L185.238 92.784L181.23 101.424ZM207.62 91.2C210.868 91.2 213.412 91.944 215.252 93.432C217.108 94.92 218.036 96.976 218.036 99.6C218.036 102.224 217.108 104.28 215.252 105.768C213.412 107.256 210.868 108 207.62 108H198.692V91.2H207.62ZM207.236 104.928C209.524 104.928 211.268 104.456 212.468 103.512C213.684 102.568 214.292 101.264 214.292 99.6C214.292 97.936 213.684 96.632 212.468 95.688C211.268 94.744 209.524 94.272 207.236 94.272H202.436V104.928H207.236ZM230.284 91.2C233.532 91.2 236.076 91.944 237.916 93.432C239.772 94.92 240.7 96.976 240.7 99.6C240.7 102.224 239.772 104.28 237.916 105.768C236.076 107.256 233.532 108 230.284 108H221.356V91.2H230.284ZM229.9 104.928C232.188 104.928 233.932 104.456 235.132 103.512C236.348 102.568 236.956 101.264 236.956 99.6C236.956 97.936 236.348 96.632 235.132 95.688C233.932 94.744 232.188 94.272 229.9 94.272H225.1V104.928H229.9ZM244.02 108V91.2H247.764V108H244.02ZM267.633 102.048L271.257 102.24C270.937 104.16 269.961 105.648 268.329 106.704C266.713 107.76 264.497 108.288 261.681 108.288C258.321 108.288 255.713 107.512 253.857 105.96C252.017 104.392 251.097 102.272 251.097 99.6C251.097 96.944 252.001 94.832 253.809 93.264C255.617 91.696 258.153 90.912 261.417 90.912C264.057 90.912 266.217 91.432 267.897 92.472C269.593 93.496 270.617 94.888 270.969 96.648L267.369 96.888C267.113 96.008 266.433 95.304 265.329 94.776C264.241 94.232 262.937 93.96 261.417 93.96C259.321 93.96 257.697 94.48 256.545 95.52C255.409 96.56 254.841 97.92 254.841 99.6C254.841 101.28 255.433 102.64 256.617 103.68C257.801 104.72 259.489 105.24 261.681 105.24C263.329 105.24 264.665 104.944 265.689 104.352C266.729 103.744 267.377 102.976 267.633 102.048ZM272.39 94.272V91.2H290.75V94.272H283.454V108H279.71V94.272H272.39ZM293.567 108V91.2H297.311V108H293.567ZM303.476 105.936C301.588 104.368 300.644 102.256 300.644 99.6C300.644 96.944 301.588 94.832 303.476 93.264C305.364 91.696 308.004 90.912 311.396 90.912C314.788 90.912 317.428 91.696 319.316 93.264C321.22 94.832 322.172 96.944 322.172 99.6C322.172 102.256 321.22 104.368 319.316 105.936C317.428 107.504 314.788 108.288 311.396 108.288C308.004 108.288 305.364 107.504 303.476 105.936ZM306.212 95.52C304.996 96.56 304.388 97.92 304.388 99.6C304.388 101.28 304.996 102.64 306.212 103.68C307.444 104.72 309.172 105.24 311.396 105.24C313.62 105.24 315.348 104.72 316.58 103.68C317.812 102.64 318.428 101.28 318.428 99.6C318.428 97.92 317.812 96.56 316.58 95.52C315.348 94.48 313.62 93.96 311.396 93.96C309.172 93.96 307.444 94.48 306.212 95.52ZM341.113 91.2H344.713V108H338.329L329.089 93.192V108H325.489V91.2H331.873L341.113 106.008V91.2Z" fill="black"/>
<path d="M21.976 133.2H28.528L28.504 150H24.904V135.12L18.376 150H13.288L6.784 135.12V150H3.184V133.2H9.736L15.88 147.96L21.976 133.2ZM48.1428 133.2H52.4628L43.6548 143.424V150H39.9108V143.424L31.0788 133.2H35.5668L41.8548 140.808L48.1428 133.2ZM77.2941 150L75.5421 146.232H64.9341L63.1821 150H59.4621L67.4301 133.2H73.1661L81.1341 150H77.2941ZM66.2301 143.424H74.2461L70.2381 134.784L66.2301 143.424ZM92.6198 133.2C95.8678 133.2 98.4118 133.944 100.252 135.432C102.108 136.92 103.036 138.976 103.036 141.6C103.036 144.224 102.108 146.28 100.252 147.768C98.4118 149.256 95.8678 150 92.6198 150H83.6918V133.2H92.6198ZM92.2358 146.928C94.5238 146.928 96.2678 146.456 97.4678 145.512C98.6838 144.568 99.2918 143.264 99.2918 141.6C99.2918 139.936 98.6838 138.632 97.4678 137.688C96.2678 136.744 94.5238 136.272 92.2358 136.272H87.4358V146.928H92.2358ZM115.284 133.2C118.532 133.2 121.076 133.944 122.916 135.432C124.772 136.92 125.7 138.976 125.7 141.6C125.7 144.224 124.772 146.28 122.916 147.768C121.076 149.256 118.532 150 115.284 150H106.356V133.2H115.284ZM114.9 146.928C117.188 146.928 118.932 146.456 120.132 145.512C121.348 144.568 121.956 143.264 121.956 141.6C121.956 139.936 121.348 138.632 120.132 137.688C118.932 136.744 117.188 136.272 114.9 136.272H110.1V146.928H114.9ZM129.02 150V133.2H132.764V150H129.02ZM152.633 144.048L156.257 144.24C155.937 146.16 154.961 147.648 153.329 148.704C151.713 149.76 149.497 150.288 146.681 150.288C143.321 150.288 140.713 149.512 138.857 147.96C137.017 146.392 136.097 144.272 136.097 141.6C136.097 138.944 137.001 136.832 138.809 135.264C140.617 133.696 143.153 132.912 146.417 132.912C149.057 132.912 151.217 133.432 152.897 134.472C154.593 135.496 155.617 136.888 155.969 138.648L152.369 138.888C152.113 138.008 151.433 137.304 150.329 136.776C149.241 136.232 147.937 135.96 146.417 135.96C144.321 135.96 142.697 136.48 141.545 137.52C140.409 138.56 139.841 139.92 139.841 141.6C139.841 143.28 140.433 144.64 141.617 145.68C142.801 146.72 144.489 147.24 146.681 147.24C148.329 147.24 149.665 146.944 150.689 146.352C151.729 145.744 152.377 144.976 152.633 144.048ZM157.39 136.272V133.2H175.75V136.272H168.454V150H164.71V136.272H157.39ZM178.567 150V133.2H182.311V150H178.567ZM188.476 147.936C186.588 146.368 185.644 144.256 185.644 141.6C185.644 138.944 186.588 136.832 188.476 135.264C190.364 133.696 193.004 132.912 196.396 132.912C199.788 132.912 202.428 133.696 204.316 135.264C206.22 136.832 207.172 138.944 207.172 141.6C207.172 144.256 206.22 146.368 204.316 147.936C202.428 149.504 199.788 150.288 196.396 150.288C193.004 150.288 190.364 149.504 188.476 147.936ZM191.212 137.52C189.996 138.56 189.388 139.92 189.388 141.6C189.388 143.28 189.996 144.64 191.212 145.68C192.444 146.72 194.172 147.24 196.396 147.24C198.62 147.24 200.348 146.72 201.58 145.68C202.812 144.64 203.428 143.28 203.428 141.6C203.428 139.92 202.812 138.56 201.58 137.52C200.348 136.48 198.62 135.96 196.396 135.96C194.172 135.96 192.444 136.48 191.212 137.52ZM226.113 133.2H229.713V150H223.329L214.089 135.192V150H210.489V133.2H216.873L226.113 148.008V133.2Z" fill="black"/>
<path d="M-140.024 174.2H-133.472L-133.496 191H-137.096V176.12L-143.624 191H-148.712L-155.216 176.12V191H-158.816V174.2H-152.264L-146.12 188.96L-140.024 174.2ZM-113.857 174.2H-109.537L-118.345 184.424V191H-122.089V184.424L-130.921 174.2H-126.433L-120.145 181.808L-113.857 174.2ZM-84.7059 191L-86.4579 187.232H-97.0659L-98.8179 191H-102.538L-94.5699 174.2H-88.8339L-80.8659 191H-84.7059ZM-95.7699 184.424H-87.7539L-91.7619 175.784L-95.7699 184.424ZM-69.3802 174.2C-66.1322 174.2 -63.5882 174.944 -61.7482 176.432C-59.8922 177.92 -58.9642 179.976 -58.9642 182.6C-58.9642 185.224 -59.8922 187.28 -61.7482 188.768C-63.5882 190.256 -66.1322 191 -69.3802 191H-78.3082V174.2H-69.3802ZM-69.7642 187.928C-67.4762 187.928 -65.7322 187.456 -64.5322 186.512C-63.3162 185.568 -62.7082 184.264 -62.7082 182.6C-62.7082 180.936 -63.3162 179.632 -64.5322 178.688C-65.7322 177.744 -67.4762 177.272 -69.7642 177.272H-74.5642V187.928H-69.7642ZM-46.7161 174.2C-43.4681 174.2 -40.9241 174.944 -39.0841 176.432C-37.2281 177.92 -36.3001 179.976 -36.3001 182.6C-36.3001 185.224 -37.2281 187.28 -39.0841 188.768C-40.9241 190.256 -43.4681 191 -46.7161 191H-55.6441V174.2H-46.7161ZM-47.1001 187.928C-44.8121 187.928 -43.0681 187.456 -41.8681 186.512C-40.6521 185.568 -40.0441 184.264 -40.0441 182.6C-40.0441 180.936 -40.6521 179.632 -41.8681 178.688C-43.0681 177.744 -44.8121 177.272 -47.1001 177.272H-51.9001V187.928H-47.1001ZM-32.9801 191V174.2H-29.2361V191H-32.9801ZM-9.36669 185.048L-5.74269 185.24C-6.06269 187.16 -7.03869 188.648 -8.67069 189.704C-10.2867 190.76 -12.5027 191.288 -15.3187 191.288C-18.6787 191.288 -21.2867 190.512 -23.1427 188.96C-24.9827 187.392 -25.9027 185.272 -25.9027 182.6C-25.9027 179.944 -24.9987 177.832 -23.1907 176.264C-21.3827 174.696 -18.8467 173.912 -15.5827 173.912C-12.9427 173.912 -10.7827 174.432 -9.10269 175.472C-7.40669 176.496 -6.38269 177.888 -6.03069 179.648L-9.63069 179.888C-9.88669 179.008 -10.5667 178.304 -11.6707 177.776C-12.7587 177.232 -14.0627 176.96 -15.5827 176.96C-17.6787 176.96 -19.3027 177.48 -20.4547 178.52C-21.5907 179.56 -22.1587 180.92 -22.1587 182.6C-22.1587 184.28 -21.5667 185.64 -20.3827 186.68C-19.1987 187.72 -17.5107 188.24 -15.3187 188.24C-13.6707 188.24 -12.3347 187.944 -11.3107 187.352C-10.2707 186.744 -9.62269 185.976 -9.36669 185.048ZM-4.61037 177.272V174.2H13.7496V177.272H6.45363V191H2.70963V177.272H-4.61037ZM16.5668 191V174.2H20.3108V191H16.5668ZM26.4762 188.936C24.5882 187.368 23.6442 185.256 23.6442 182.6C23.6442 179.944 24.5882 177.832 26.4762 176.264C28.3642 174.696 31.0042 173.912 34.3962 173.912C37.7882 173.912 40.4282 174.696 42.3162 176.264C44.2202 177.832 45.1722 179.944 45.1722 182.6C45.1722 185.256 44.2202 187.368 42.3162 188.936C40.4282 190.504 37.7882 191.288 34.3962 191.288C31.0042 191.288 28.3642 190.504 26.4762 188.936ZM29.2122 178.52C27.9962 179.56 27.3882 180.92 27.3882 182.6C27.3882 184.28 27.9962 185.64 29.2122 186.68C30.4442 187.72 32.1722 188.24 34.3962 188.24C36.6202 188.24 38.3482 187.72 39.5802 186.68C40.8122 185.64 41.4282 184.28 41.4282 182.6C41.4282 180.92 40.8122 179.56 39.5802 178.52C38.3482 177.48 36.6202 176.96 34.3962 176.96C32.1722 176.96 30.4442 177.48 29.2122 178.52ZM64.1127 174.2H67.7127V191H61.3287L52.0887 176.192V191H48.4887V174.2H54.8727L64.1127 189.008V174.2Z" fill="black"/>
<path d="M282.976 133.2H289.528L289.504 150H285.904V135.12L279.376 150H274.288L267.784 135.12V150H264.184V133.2H270.736L276.88 147.96L282.976 133.2ZM309.143 133.2H313.463L304.655 143.424V150H300.911V143.424L292.079 133.2H296.567L302.855 140.808L309.143 133.2ZM338.294 150L336.542 146.232H325.934L324.182 150H320.462L328.43 133.2H334.166L342.134 150H338.294ZM327.23 143.424H335.246L331.238 134.784L327.23 143.424ZM353.62 133.2C356.868 133.2 359.412 133.944 361.252 135.432C363.108 136.92 364.036 138.976 364.036 141.6C364.036 144.224 363.108 146.28 361.252 147.768C359.412 149.256 356.868 150 353.62 150H344.692V133.2H353.62ZM353.236 146.928C355.524 146.928 357.268 146.456 358.468 145.512C359.684 144.568 360.292 143.264 360.292 141.6C360.292 139.936 359.684 138.632 358.468 137.688C357.268 136.744 355.524 136.272 353.236 136.272H348.436V146.928H353.236ZM376.284 133.2C379.532 133.2 382.076 133.944 383.916 135.432C385.772 136.92 386.7 138.976 386.7 141.6C386.7 144.224 385.772 146.28 383.916 147.768C382.076 149.256 379.532 150 376.284 150H367.356V133.2H376.284ZM375.9 146.928C378.188 146.928 379.932 146.456 381.132 145.512C382.348 144.568 382.956 143.264 382.956 141.6C382.956 139.936 382.348 138.632 381.132 137.688C379.932 136.744 378.188 136.272 375.9 136.272H371.1V146.928H375.9ZM390.02 150V133.2H393.764V150H390.02ZM413.633 144.048L417.257 144.24C416.937 146.16 415.961 147.648 414.329 148.704C412.713 149.76 410.497 150.288 407.681 150.288C404.321 150.288 401.713 149.512 399.857 147.96C398.017 146.392 397.097 144.272 397.097 141.6C397.097 138.944 398.001 136.832 399.809 135.264C401.617 133.696 404.153 132.912 407.417 132.912C410.057 132.912 412.217 133.432 413.897 134.472C415.593 135.496 416.617 136.888 416.969 138.648L413.369 138.888C413.113 138.008 412.433 137.304 411.329 136.776C410.241 136.232 408.937 135.96 407.417 135.96C405.321 135.96 403.697 136.48 402.545 137.52C401.409 138.56 400.841 139.92 400.841 141.6C400.841 143.28 401.433 144.64 402.617 145.68C403.801 146.72 405.489 147.24 407.681 147.24C409.329 147.24 410.665 146.944 411.689 146.352C412.729 145.744 413.377 144.976 413.633 144.048ZM418.39 136.272V133.2H436.75V136.272H429.454V150H425.71V136.272H418.39ZM439.567 150V133.2H443.311V150H439.567ZM449.476 147.936C447.588 146.368 446.644 144.256 446.644 141.6C446.644 138.944 447.588 136.832 449.476 135.264C451.364 133.696 454.004 132.912 457.396 132.912C460.788 132.912 463.428 133.696 465.316 135.264C467.22 136.832 468.172 138.944 468.172 141.6C468.172 144.256 467.22 146.368 465.316 147.936C463.428 149.504 460.788 150.288 457.396 150.288C454.004 150.288 451.364 149.504 449.476 147.936ZM452.212 137.52C450.996 138.56 450.388 139.92 450.388 141.6C450.388 143.28 450.996 144.64 452.212 145.68C453.444 146.72 455.172 147.24 457.396 147.24C459.62 147.24 461.348 146.72 462.58 145.68C463.812 144.64 464.428 143.28 464.428 141.6C464.428 139.92 463.812 138.56 462.58 137.52C461.348 136.48 459.62 135.96 457.396 135.96C455.172 135.96 453.444 136.48 452.212 137.52ZM487.113 133.2H490.713V150H484.329L475.089 135.192V150H471.489V133.2H477.873L487.113 148.008V133.2Z" fill="black"/>
<path d="M120.976 174.2H127.528L127.504 191H123.904V176.12L117.376 191H112.288L105.784 176.12V191H102.184V174.2H108.736L114.88 188.96L120.976 174.2ZM147.143 174.2H151.463L142.655 184.424V191H138.911V184.424L130.079 174.2H134.567L140.855 181.808L147.143 174.2ZM176.294 191L174.542 187.232H163.934L162.182 191H158.462L166.43 174.2H172.166L180.134 191H176.294ZM165.23 184.424H173.246L169.238 175.784L165.23 184.424ZM191.62 174.2C194.868 174.2 197.412 174.944 199.252 176.432C201.108 177.92 202.036 179.976 202.036 182.6C202.036 185.224 201.108 187.28 199.252 188.768C197.412 190.256 194.868 191 191.62 191H182.692V174.2H191.62ZM191.236 187.928C193.524 187.928 195.268 187.456 196.468 186.512C197.684 185.568 198.292 184.264 198.292 182.6C198.292 180.936 197.684 179.632 196.468 178.688C195.268 177.744 193.524 177.272 191.236 177.272H186.436V187.928H191.236ZM214.284 174.2C217.532 174.2 220.076 174.944 221.916 176.432C223.772 177.92 224.7 179.976 224.7 182.6C224.7 185.224 223.772 187.28 221.916 188.768C220.076 190.256 217.532 191 214.284 191H205.356V174.2H214.284ZM213.9 187.928C216.188 187.928 217.932 187.456 219.132 186.512C220.348 185.568 220.956 184.264 220.956 182.6C220.956 180.936 220.348 179.632 219.132 178.688C217.932 177.744 216.188 177.272 213.9 177.272H209.1V187.928H213.9ZM228.02 191V174.2H231.764V191H228.02ZM251.633 185.048L255.257 185.24C254.937 187.16 253.961 188.648 252.329 189.704C250.713 190.76 248.497 191.288 245.681 191.288C242.321 191.288 239.713 190.512 237.857 188.96C236.017 187.392 235.097 185.272 235.097 182.6C235.097 179.944 236.001 177.832 237.809 176.264C239.617 174.696 242.153 173.912 245.417 173.912C248.057 173.912 250.217 174.432 251.897 175.472C253.593 176.496 254.617 177.888 254.969 179.648L251.369 179.888C251.113 179.008 250.433 178.304 249.329 177.776C248.241 177.232 246.937 176.96 245.417 176.96C243.321 176.96 241.697 177.48 240.545 178.52C239.409 179.56 238.841 180.92 238.841 182.6C238.841 184.28 239.433 185.64 240.617 186.68C241.801 187.72 243.489 188.24 245.681 188.24C247.329 188.24 248.665 187.944 249.689 187.352C250.729 186.744 251.377 185.976 251.633 185.048ZM256.39 177.272V174.2H274.75V177.272H267.454V191H263.71V177.272H256.39ZM277.567 191V174.2H281.311V191H277.567ZM287.476 188.936C285.588 187.368 284.644 185.256 284.644 182.6C284.644 179.944 285.588 177.832 287.476 176.264C289.364 174.696 292.004 173.912 295.396 173.912C298.788 173.912 301.428 174.696 303.316 176.264C305.22 177.832 306.172 179.944 306.172 182.6C306.172 185.256 305.22 187.368 303.316 188.936C301.428 190.504 298.788 191.288 295.396 191.288C292.004 191.288 289.364 190.504 287.476 188.936ZM290.212 178.52C288.996 179.56 288.388 180.92 288.388 182.6C288.388 184.28 288.996 185.64 290.212 186.68C291.444 187.72 293.172 188.24 295.396 188.24C297.62 188.24 299.348 187.72 300.58 186.68C301.812 185.64 302.428 184.28 302.428 182.6C302.428 180.92 301.812 179.56 300.58 178.52C299.348 177.48 297.62 176.96 295.396 176.96C293.172 176.96 291.444 177.48 290.212 178.52ZM325.113 174.2H328.713V191H322.329L313.089 176.192V191H309.489V174.2H315.873L325.113 189.008V174.2Z" fill="black"/>
<path d="M543.976 133.2H550.528L550.504 150H546.904V135.12L540.376 150H535.288L528.784 135.12V150H525.184V133.2H531.736L537.88 147.96L543.976 133.2ZM570.143 133.2H574.463L565.655 143.424V150H561.911V143.424L553.079 133.2H557.567L563.855 140.808L570.143 133.2ZM599.294 150L597.542 146.232H586.934L585.182 150H581.462L589.43 133.2H595.166L603.134 150H599.294ZM588.23 143.424H596.246L592.238 134.784L588.23 143.424ZM614.62 133.2C617.868 133.2 620.412 133.944 622.252 135.432C624.108 136.92 625.036 138.976 625.036 141.6C625.036 144.224 624.108 146.28 622.252 147.768C620.412 149.256 617.868 150 614.62 150H605.692V133.2H614.62ZM614.236 146.928C616.524 146.928 618.268 146.456 619.468 145.512C620.684 144.568 621.292 143.264 621.292 141.6C621.292 139.936 620.684 138.632 619.468 137.688C618.268 136.744 616.524 136.272 614.236 136.272H609.436V146.928H614.236ZM637.284 133.2C640.532 133.2 643.076 133.944 644.916 135.432C646.772 136.92 647.7 138.976 647.7 141.6C647.7 144.224 646.772 146.28 644.916 147.768C643.076 149.256 640.532 150 637.284 150H628.356V133.2H637.284ZM636.9 146.928C639.188 146.928 640.932 146.456 642.132 145.512C643.348 144.568 643.956 143.264 643.956 141.6C643.956 139.936 643.348 138.632 642.132 137.688C640.932 136.744 639.188 136.272 636.9 136.272H632.1V146.928H636.9ZM651.02 150V133.2H654.764V150H651.02ZM674.633 144.048L678.257 144.24C677.937 146.16 676.961 147.648 675.329 148.704C673.713 149.76 671.497 150.288 668.681 150.288C665.321 150.288 662.713 149.512 660.857 147.96C659.017 146.392 658.097 144.272 658.097 141.6C658.097 138.944 659.001 136.832 660.809 135.264C662.617 133.696 665.153 132.912 668.417 132.912C671.057 132.912 673.217 133.432 674.897 134.472C676.593 135.496 677.617 136.888 677.969 138.648L674.369 138.888C674.113 138.008 673.433 137.304 672.329 136.776C671.241 136.232 669.937 135.96 668.417 135.96C666.321 135.96 664.697 136.48 663.545 137.52C662.409 138.56 661.841 139.92 661.841 141.6C661.841 143.28 662.433 144.64 663.617 145.68C664.801 146.72 666.489 147.24 668.681 147.24C670.329 147.24 671.665 146.944 672.689 146.352C673.729 145.744 674.377 144.976 674.633 144.048ZM679.39 136.272V133.2H697.75V136.272H690.454V150H686.71V136.272H679.39ZM700.567 150V133.2H704.311V150H700.567ZM710.476 147.936C708.588 146.368 707.644 144.256 707.644 141.6C707.644 138.944 708.588 136.832 710.476 135.264C712.364 133.696 715.004 132.912 718.396 132.912C721.788 132.912 724.428 133.696 726.316 135.264C728.22 136.832 729.172 138.944 729.172 141.6C729.172 144.256 728.22 146.368 726.316 147.936C724.428 149.504 721.788 150.288 718.396 150.288C715.004 150.288 712.364 149.504 710.476 147.936ZM713.212 137.52C711.996 138.56 711.388 139.92 711.388 141.6C711.388 143.28 711.996 144.64 713.212 145.68C714.444 146.72 716.172 147.24 718.396 147.24C720.62 147.24 722.348 146.72 723.58 145.68C724.812 144.64 725.428 143.28 725.428 141.6C725.428 139.92 724.812 138.56 723.58 137.52C722.348 136.48 720.62 135.96 718.396 135.96C716.172 135.96 714.444 136.48 713.212 137.52ZM748.113 133.2H751.713V150H745.329L736.089 135.192V150H732.489V133.2H738.873L748.113 148.008V133.2Z" fill="black"/>
<path d="M381.976 174.2H388.528L388.504 191H384.904V176.12L378.376 191H373.288L366.784 176.12V191H363.184V174.2H369.736L375.88 188.96L381.976 174.2ZM408.143 174.2H412.463L403.655 184.424V191H399.911V184.424L391.079 174.2H395.567L401.855 181.808L408.143 174.2ZM437.294 191L435.542 187.232H424.934L423.182 191H419.462L427.43 174.2H433.166L441.134 191H437.294ZM426.23 184.424H434.246L430.238 175.784L426.23 184.424ZM452.62 174.2C455.868 174.2 458.412 174.944 460.252 176.432C462.108 177.92 463.036 179.976 463.036 182.6C463.036 185.224 462.108 187.28 460.252 188.768C458.412 190.256 455.868 191 452.62 191H443.692V174.2H452.62ZM452.236 187.928C454.524 187.928 456.268 187.456 457.468 186.512C458.684 185.568 459.292 184.264 459.292 182.6C459.292 180.936 458.684 179.632 457.468 178.688C456.268 177.744 454.524 177.272 452.236 177.272H447.436V187.928H452.236ZM475.284 174.2C478.532 174.2 481.076 174.944 482.916 176.432C484.772 177.92 485.7 179.976 485.7 182.6C485.7 185.224 484.772 187.28 482.916 188.768C481.076 190.256 478.532 191 475.284 191H466.356V174.2H475.284ZM474.9 187.928C477.188 187.928 478.932 187.456 480.132 186.512C481.348 185.568 481.956 184.264 481.956 182.6C481.956 180.936 481.348 179.632 480.132 178.688C478.932 177.744 477.188 177.272 474.9 177.272H470.1V187.928H474.9ZM489.02 191V174.2H492.764V191H489.02ZM512.633 185.048L516.257 185.24C515.937 187.16 514.961 188.648 513.329 189.704C511.713 190.76 509.497 191.288 506.681 191.288C503.321 191.288 500.713 190.512 498.857 188.96C497.017 187.392 496.097 185.272 496.097 182.6C496.097 179.944 497.001 177.832 498.809 176.264C500.617 174.696 503.153 173.912 506.417 173.912C509.057 173.912 511.217 174.432 512.897 175.472C514.593 176.496 515.617 177.888 515.969 179.648L512.369 179.888C512.113 179.008 511.433 178.304 510.329 177.776C509.241 177.232 507.937 176.96 506.417 176.96C504.321 176.96 502.697 177.48 501.545 178.52C500.409 179.56 499.841 180.92 499.841 182.6C499.841 184.28 500.433 185.64 501.617 186.68C502.801 187.72 504.489 188.24 506.681 188.24C508.329 188.24 509.665 187.944 510.689 187.352C511.729 186.744 512.377 185.976 512.633 185.048ZM517.39 177.272V174.2H535.75V177.272H528.454V191H524.71V177.272H517.39ZM538.567 191V174.2H542.311V191H538.567ZM548.476 188.936C546.588 187.368 545.644 185.256 545.644 182.6C545.644 179.944 546.588 177.832 548.476 176.264C550.364 174.696 553.004 173.912 556.396 173.912C559.788 173.912 562.428 174.696 564.316 176.264C566.22 177.832 567.172 179.944 567.172 182.6C567.172 185.256 566.22 187.368 564.316 188.936C562.428 190.504 559.788 191.288 556.396 191.288C553.004 191.288 550.364 190.504 548.476 188.936ZM551.212 178.52C549.996 179.56 549.388 180.92 549.388 182.6C549.388 184.28 549.996 185.64 551.212 186.68C552.444 187.72 554.172 188.24 556.396 188.24C558.62 188.24 560.348 187.72 561.58 186.68C562.812 185.64 563.428 184.28 563.428 182.6C563.428 180.92 562.812 179.56 561.58 178.52C560.348 177.48 558.62 176.96 556.396 176.96C554.172 176.96 552.444 177.48 551.212 178.52ZM586.113 174.2H589.713V191H583.329L574.089 176.192V191H570.489V174.2H576.873L586.113 189.008V174.2Z" fill="black"/>
<path d="M804.976 133.2H811.528L811.504 150H807.904V135.12L801.376 150H796.288L789.784 135.12V150H786.184V133.2H792.736L798.88 147.96L804.976 133.2ZM831.143 133.2H835.463L826.655 143.424V150H822.911V143.424L814.079 133.2H818.567L824.855 140.808L831.143 133.2ZM860.294 150L858.542 146.232H847.934L846.182 150H842.462L850.43 133.2H856.166L864.134 150H860.294ZM849.23 143.424H857.246L853.238 134.784L849.23 143.424ZM875.62 133.2C878.868 133.2 881.412 133.944 883.252 135.432C885.108 136.92 886.036 138.976 886.036 141.6C886.036 144.224 885.108 146.28 883.252 147.768C881.412 149.256 878.868 150 875.62 150H866.692V133.2H875.62ZM875.236 146.928C877.524 146.928 879.268 146.456 880.468 145.512C881.684 144.568 882.292 143.264 882.292 141.6C882.292 139.936 881.684 138.632 880.468 137.688C879.268 136.744 877.524 136.272 875.236 136.272H870.436V146.928H875.236ZM898.284 133.2C901.532 133.2 904.076 133.944 905.916 135.432C907.772 136.92 908.7 138.976 908.7 141.6C908.7 144.224 907.772 146.28 905.916 147.768C904.076 149.256 901.532 150 898.284 150H889.356V133.2H898.284ZM897.9 146.928C900.188 146.928 901.932 146.456 903.132 145.512C904.348 144.568 904.956 143.264 904.956 141.6C904.956 139.936 904.348 138.632 903.132 137.688C901.932 136.744 900.188 136.272 897.9 136.272H893.1V146.928H897.9ZM912.02 150V133.2H915.764V150H912.02ZM935.633 144.048L939.257 144.24C938.937 146.16 937.961 147.648 936.329 148.704C934.713 149.76 932.497 150.288 929.681 150.288C926.321 150.288 923.713 149.512 921.857 147.96C920.017 146.392 919.097 144.272 919.097 141.6C919.097 138.944 920.001 136.832 921.809 135.264C923.617 133.696 926.153 132.912 929.417 132.912C932.057 132.912 934.217 133.432 935.897 134.472C937.593 135.496 938.617 136.888 938.969 138.648L935.369 138.888C935.113 138.008 934.433 137.304 933.329 136.776C932.241 136.232 930.937 135.96 929.417 135.96C927.321 135.96 925.697 136.48 924.545 137.52C923.409 138.56 922.841 139.92 922.841 141.6C922.841 143.28 923.433 144.64 924.617 145.68C925.801 146.72 927.489 147.24 929.681 147.24C931.329 147.24 932.665 146.944 933.689 146.352C934.729 145.744 935.377 144.976 935.633 144.048ZM940.39 136.272V133.2H958.75V136.272H951.454V150H947.71V136.272H940.39ZM961.567 150V133.2H965.311V150H961.567ZM971.476 147.936C969.588 146.368 968.644 144.256 968.644 141.6C968.644 138.944 969.588 136.832 971.476 135.264C973.364 133.696 976.004 132.912 979.396 132.912C982.788 132.912 985.428 133.696 987.316 135.264C989.22 136.832 990.172 138.944 990.172 141.6C990.172 144.256 989.22 146.368 987.316 147.936C985.428 149.504 982.788 150.288 979.396 150.288C976.004 150.288 973.364 149.504 971.476 147.936ZM974.212 137.52C972.996 138.56 972.388 139.92 972.388 141.6C972.388 143.28 972.996 144.64 974.212 145.68C975.444 146.72 977.172 147.24 979.396 147.24C981.62 147.24 983.348 146.72 984.58 145.68C985.812 144.64 986.428 143.28 986.428 141.6C986.428 139.92 985.812 138.56 984.58 137.52C983.348 136.48 981.62 135.96 979.396 135.96C977.172 135.96 975.444 136.48 974.212 137.52ZM1009.11 133.2H1012.71V150H1006.33L997.089 135.192V150H993.489V133.2H999.873L1009.11 148.008V133.2Z" fill="black"/>
<path d="M642.976 174.2H649.528L649.504 191H645.904V176.12L639.376 191H634.288L627.784 176.12V191H624.184V174.2H630.736L636.88 188.96L642.976 174.2ZM669.143 174.2H673.463L664.655 184.424V191H660.911V184.424L652.079 174.2H656.567L662.855 181.808L669.143 174.2ZM698.294 191L696.542 187.232H685.934L684.182 191H680.462L688.43 174.2H694.166L702.134 191H698.294ZM687.23 184.424H695.246L691.238 175.784L687.23 184.424ZM713.62 174.2C716.868 174.2 719.412 174.944 721.252 176.432C723.108 177.92 724.036 179.976 724.036 182.6C724.036 185.224 723.108 187.28 721.252 188.768C719.412 190.256 716.868 191 713.62 191H704.692V174.2H713.62ZM713.236 187.928C715.524 187.928 717.268 187.456 718.468 186.512C719.684 185.568 720.292 184.264 720.292 182.6C720.292 180.936 719.684 179.632 718.468 178.688C717.268 177.744 715.524 177.272 713.236 177.272H708.436V187.928H713.236ZM736.284 174.2C739.532 174.2 742.076 174.944 743.916 176.432C745.772 177.92 746.7 179.976 746.7 182.6C746.7 185.224 745.772 187.28 743.916 188.768C742.076 190.256 739.532 191 736.284 191H727.356V174.2H736.284ZM735.9 187.928C738.188 187.928 739.932 187.456 741.132 186.512C742.348 185.568 742.956 184.264 742.956 182.6C742.956 180.936 742.348 179.632 741.132 178.688C739.932 177.744 738.188 177.272 735.9 177.272H731.1V187.928H735.9ZM750.02 191V174.2H753.764V191H750.02ZM773.633 185.048L777.257 185.24C776.937 187.16 775.961 188.648 774.329 189.704C772.713 190.76 770.497 191.288 767.681 191.288C764.321 191.288 761.713 190.512 759.857 188.96C758.017 187.392 757.097 185.272 757.097 182.6C757.097 179.944 758.001 177.832 759.809 176.264C761.617 174.696 764.153 173.912 767.417 173.912C770.057 173.912 772.217 174.432 773.897 175.472C775.593 176.496 776.617 177.888 776.969 179.648L773.369 179.888C773.113 179.008 772.433 178.304 771.329 177.776C770.241 177.232 768.937 176.96 767.417 176.96C765.321 176.96 763.697 177.48 762.545 178.52C761.409 179.56 760.841 180.92 760.841 182.6C760.841 184.28 761.433 185.64 762.617 186.68C763.801 187.72 765.489 188.24 767.681 188.24C769.329 188.24 770.665 187.944 771.689 187.352C772.729 186.744 773.377 185.976 773.633 185.048ZM778.39 177.272V174.2H796.75V177.272H789.454V191H785.71V177.272H778.39ZM799.567 191V174.2H803.311V191H799.567ZM809.476 188.936C807.588 187.368 806.644 185.256 806.644 182.6C806.644 179.944 807.588 177.832 809.476 176.264C811.364 174.696 814.004 173.912 817.396 173.912C820.788 173.912 823.428 174.696 825.316 176.264C827.22 177.832 828.172 179.944 828.172 182.6C828.172 185.256 827.22 187.368 825.316 188.936C823.428 190.504 820.788 191.288 817.396 191.288C814.004 191.288 811.364 190.504 809.476 188.936ZM812.212 178.52C810.996 179.56 810.388 180.92 810.388 182.6C810.388 184.28 810.996 185.64 812.212 186.68C813.444 187.72 815.172 188.24 817.396 188.24C819.62 188.24 821.348 187.72 822.58 186.68C823.812 185.64 824.428 184.28 824.428 182.6C824.428 180.92 823.812 179.56 822.58 178.52C821.348 177.48 819.62 176.96 817.396 176.96C815.172 176.96 813.444 177.48 812.212 178.52ZM847.113 174.2H850.713V191H844.329L835.089 176.192V191H831.489V174.2H837.873L847.113 189.008V174.2Z" fill="black"/>
<path d="M1065.98 133.2H1072.53L1072.5 150H1068.9V135.12L1062.38 150H1057.29L1050.78 135.12V150H1047.18V133.2H1053.74L1059.88 147.96L1065.98 133.2ZM1092.14 133.2H1096.46L1087.65 143.424V150H1083.91V143.424L1075.08 133.2H1079.57L1085.85 140.808L1092.14 133.2ZM1121.29 150L1119.54 146.232H1108.93L1107.18 150H1103.46L1111.43 133.2H1117.17L1125.13 150H1121.29ZM1110.23 143.424H1118.25L1114.24 134.784L1110.23 143.424ZM1136.62 133.2C1139.87 133.2 1142.41 133.944 1144.25 135.432C1146.11 136.92 1147.04 138.976 1147.04 141.6C1147.04 144.224 1146.11 146.28 1144.25 147.768C1142.41 149.256 1139.87 150 1136.62 150H1127.69V133.2H1136.62ZM1136.24 146.928C1138.52 146.928 1140.27 146.456 1141.47 145.512C1142.68 144.568 1143.29 143.264 1143.29 141.6C1143.29 139.936 1142.68 138.632 1141.47 137.688C1140.27 136.744 1138.52 136.272 1136.24 136.272H1131.44V146.928H1136.24ZM1159.28 133.2C1162.53 133.2 1165.08 133.944 1166.92 135.432C1168.77 136.92 1169.7 138.976 1169.7 141.6C1169.7 144.224 1168.77 146.28 1166.92 147.768C1165.08 149.256 1162.53 150 1159.28 150H1150.36V133.2H1159.28ZM1158.9 146.928C1161.19 146.928 1162.93 146.456 1164.13 145.512C1165.35 144.568 1165.96 143.264 1165.96 141.6C1165.96 139.936 1165.35 138.632 1164.13 137.688C1162.93 136.744 1161.19 136.272 1158.9 136.272H1154.1V146.928H1158.9ZM1173.02 150V133.2H1176.76V150H1173.02ZM1196.63 144.048L1200.26 144.24C1199.94 146.16 1198.96 147.648 1197.33 148.704C1195.71 149.76 1193.5 150.288 1190.68 150.288C1187.32 150.288 1184.71 149.512 1182.86 147.96C1181.02 146.392 1180.1 144.272 1180.1 141.6C1180.1 138.944 1181 136.832 1182.81 135.264C1184.62 133.696 1187.15 132.912 1190.42 132.912C1193.06 132.912 1195.22 133.432 1196.9 134.472C1198.59 135.496 1199.62 136.888 1199.97 138.648L1196.37 138.888C1196.11 138.008 1195.43 137.304 1194.33 136.776C1193.24 136.232 1191.94 135.96 1190.42 135.96C1188.32 135.96 1186.7 136.48 1185.55 137.52C1184.41 138.56 1183.84 139.92 1183.84 141.6C1183.84 143.28 1184.43 144.64 1185.62 145.68C1186.8 146.72 1188.49 147.24 1190.68 147.24C1192.33 147.24 1193.67 146.944 1194.69 146.352C1195.73 145.744 1196.38 144.976 1196.63 144.048ZM1201.39 136.272V133.2H1219.75V136.272H1212.45V150H1208.71V136.272H1201.39ZM1222.57 150V133.2H1226.31V150H1222.57ZM1232.48 147.936C1230.59 146.368 1229.64 144.256 1229.64 141.6C1229.64 138.944 1230.59 136.832 1232.48 135.264C1234.36 133.696 1237 132.912 1240.4 132.912C1243.79 132.912 1246.43 133.696 1248.32 135.264C1250.22 136.832 1251.17 138.944 1251.17 141.6C1251.17 144.256 1250.22 146.368 1248.32 147.936C1246.43 149.504 1243.79 150.288 1240.4 150.288C1237 150.288 1234.36 149.504 1232.48 147.936ZM1235.21 137.52C1234 138.56 1233.39 139.92 1233.39 141.6C1233.39 143.28 1234 144.64 1235.21 145.68C1236.44 146.72 1238.17 147.24 1240.4 147.24C1242.62 147.24 1244.35 146.72 1245.58 145.68C1246.81 144.64 1247.43 143.28 1247.43 141.6C1247.43 139.92 1246.81 138.56 1245.58 137.52C1244.35 136.48 1242.62 135.96 1240.4 135.96C1238.17 135.96 1236.44 136.48 1235.21 137.52ZM1270.11 133.2H1273.71V150H1267.33L1258.09 135.192V150H1254.49V133.2H1260.87L1270.11 148.008V133.2Z" fill="black"/>
<path d="M903.976 174.2H910.528L910.504 191H906.904V176.12L900.376 191H895.288L888.784 176.12V191H885.184V174.2H891.736L897.88 188.96L903.976 174.2ZM930.143 174.2H934.463L925.655 184.424V191H921.911V184.424L913.079 174.2H917.567L923.855 181.808L930.143 174.2ZM959.294 191L957.542 187.232H946.934L945.182 191H941.462L949.43 174.2H955.166L963.134 191H959.294ZM948.23 184.424H956.246L952.238 175.784L948.23 184.424ZM974.62 174.2C977.868 174.2 980.412 174.944 982.252 176.432C984.108 177.92 985.036 179.976 985.036 182.6C985.036 185.224 984.108 187.28 982.252 188.768C980.412 190.256 977.868 191 974.62 191H965.692V174.2H974.62ZM974.236 187.928C976.524 187.928 978.268 187.456 979.468 186.512C980.684 185.568 981.292 184.264 981.292 182.6C981.292 180.936 980.684 179.632 979.468 178.688C978.268 177.744 976.524 177.272 974.236 177.272H969.436V187.928H974.236ZM997.284 174.2C1000.53 174.2 1003.08 174.944 1004.92 176.432C1006.77 177.92 1007.7 179.976 1007.7 182.6C1007.7 185.224 1006.77 187.28 1004.92 188.768C1003.08 190.256 1000.53 191 997.284 191H988.356V174.2H997.284ZM996.9 187.928C999.188 187.928 1000.93 187.456 1002.13 186.512C1003.35 185.568 1003.96 184.264 1003.96 182.6C1003.96 180.936 1003.35 179.632 1002.13 178.688C1000.93 177.744 999.188 177.272 996.9 177.272H992.1V187.928H996.9ZM1011.02 191V174.2H1014.76V191H1011.02ZM1034.63 185.048L1038.26 185.24C1037.94 187.16 1036.96 188.648 1035.33 189.704C1033.71 190.76 1031.5 191.288 1028.68 191.288C1025.32 191.288 1022.71 190.512 1020.86 188.96C1019.02 187.392 1018.1 185.272 1018.1 182.6C1018.1 179.944 1019 177.832 1020.81 176.264C1022.62 174.696 1025.15 173.912 1028.42 173.912C1031.06 173.912 1033.22 174.432 1034.9 175.472C1036.59 176.496 1037.62 177.888 1037.97 179.648L1034.37 179.888C1034.11 179.008 1033.43 178.304 1032.33 177.776C1031.24 177.232 1029.94 176.96 1028.42 176.96C1026.32 176.96 1024.7 177.48 1023.55 178.52C1022.41 179.56 1021.84 180.92 1021.84 182.6C1021.84 184.28 1022.43 185.64 1023.62 186.68C1024.8 187.72 1026.49 188.24 1028.68 188.24C1030.33 188.24 1031.67 187.944 1032.69 187.352C1033.73 186.744 1034.38 185.976 1034.63 185.048ZM1039.39 177.272V174.2H1057.75V177.272H1050.45V191H1046.71V177.272H1039.39ZM1060.57 191V174.2H1064.31V191H1060.57ZM1070.48 188.936C1068.59 187.368 1067.64 185.256 1067.64 182.6C1067.64 179.944 1068.59 177.832 1070.48 176.264C1072.36 174.696 1075 173.912 1078.4 173.912C1081.79 173.912 1084.43 174.696 1086.32 176.264C1088.22 177.832 1089.17 179.944 1089.17 182.6C1089.17 185.256 1088.22 187.368 1086.32 188.936C1084.43 190.504 1081.79 191.288 1078.4 191.288C1075 191.288 1072.36 190.504 1070.48 188.936ZM1073.21 178.52C1072 179.56 1071.39 180.92 1071.39 182.6C1071.39 184.28 1072 185.64 1073.21 186.68C1074.44 187.72 1076.17 188.24 1078.4 188.24C1080.62 188.24 1082.35 187.72 1083.58 186.68C1084.81 185.64 1085.43 184.28 1085.43 182.6C1085.43 180.92 1084.81 179.56 1083.58 178.52C1082.35 177.48 1080.62 176.96 1078.4 176.96C1076.17 176.96 1074.44 177.48 1073.21 178.52ZM1108.11 174.2H1111.71V191H1105.33L1096.09 176.192V191H1092.49V174.2H1098.87L1108.11 189.008V174.2Z" fill="black"/>
<path d="M1326.98 133.2H1333.53L1333.5 150H1329.9V135.12L1323.38 150H1318.29L1311.78 135.12V150H1308.18V133.2H1314.74L1320.88 147.96L1326.98 133.2ZM1353.14 133.2H1357.46L1348.65 143.424V150H1344.91V143.424L1336.08 133.2H1340.57L1346.85 140.808L1353.14 133.2ZM1382.29 150L1380.54 146.232H1369.93L1368.18 150H1364.46L1372.43 133.2H1378.17L1386.13 150H1382.29ZM1371.23 143.424H1379.25L1375.24 134.784L1371.23 143.424ZM1397.62 133.2C1400.87 133.2 1403.41 133.944 1405.25 135.432C1407.11 136.92 1408.04 138.976 1408.04 141.6C1408.04 144.224 1407.11 146.28 1405.25 147.768C1403.41 149.256 1400.87 150 1397.62 150H1388.69V133.2H1397.62ZM1397.24 146.928C1399.52 146.928 1401.27 146.456 1402.47 145.512C1403.68 144.568 1404.29 143.264 1404.29 141.6C1404.29 139.936 1403.68 138.632 1402.47 137.688C1401.27 136.744 1399.52 136.272 1397.24 136.272H1392.44V146.928H1397.24ZM1420.28 133.2C1423.53 133.2 1426.08 133.944 1427.92 135.432C1429.77 136.92 1430.7 138.976 1430.7 141.6C1430.7 144.224 1429.77 146.28 1427.92 147.768C1426.08 149.256 1423.53 150 1420.28 150H1411.36V133.2H1420.28ZM1419.9 146.928C1422.19 146.928 1423.93 146.456 1425.13 145.512C1426.35 144.568 1426.96 143.264 1426.96 141.6C1426.96 139.936 1426.35 138.632 1425.13 137.688C1423.93 136.744 1422.19 136.272 1419.9 136.272H1415.1V146.928H1419.9ZM1434.02 150V133.2H1437.76V150H1434.02ZM1457.63 144.048L1461.26 144.24C1460.94 146.16 1459.96 147.648 1458.33 148.704C1456.71 149.76 1454.5 150.288 1451.68 150.288C1448.32 150.288 1445.71 149.512 1443.86 147.96C1442.02 146.392 1441.1 144.272 1441.1 141.6C1441.1 138.944 1442 136.832 1443.81 135.264C1445.62 133.696 1448.15 132.912 1451.42 132.912C1454.06 132.912 1456.22 133.432 1457.9 134.472C1459.59 135.496 1460.62 136.888 1460.97 138.648L1457.37 138.888C1457.11 138.008 1456.43 137.304 1455.33 136.776C1454.24 136.232 1452.94 135.96 1451.42 135.96C1449.32 135.96 1447.7 136.48 1446.55 137.52C1445.41 138.56 1444.84 139.92 1444.84 141.6C1444.84 143.28 1445.43 144.64 1446.62 145.68C1447.8 146.72 1449.49 147.24 1451.68 147.24C1453.33 147.24 1454.67 146.944 1455.69 146.352C1456.73 145.744 1457.38 144.976 1457.63 144.048ZM1462.39 136.272V133.2H1480.75V136.272H1473.45V150H1469.71V136.272H1462.39ZM1483.57 150V133.2H1487.31V150H1483.57ZM1493.48 147.936C1491.59 146.368 1490.64 144.256 1490.64 141.6C1490.64 138.944 1491.59 136.832 1493.48 135.264C1495.36 133.696 1498 132.912 1501.4 132.912C1504.79 132.912 1507.43 133.696 1509.32 135.264C1511.22 136.832 1512.17 138.944 1512.17 141.6C1512.17 144.256 1511.22 146.368 1509.32 147.936C1507.43 149.504 1504.79 150.288 1501.4 150.288C1498 150.288 1495.36 149.504 1493.48 147.936ZM1496.21 137.52C1495 138.56 1494.39 139.92 1494.39 141.6C1494.39 143.28 1495 144.64 1496.21 145.68C1497.44 146.72 1499.17 147.24 1501.4 147.24C1503.62 147.24 1505.35 146.72 1506.58 145.68C1507.81 144.64 1508.43 143.28 1508.43 141.6C1508.43 139.92 1507.81 138.56 1506.58 137.52C1505.35 136.48 1503.62 135.96 1501.4 135.96C1499.17 135.96 1497.44 136.48 1496.21 137.52ZM1531.11 133.2H1534.71V150H1528.33L1519.09 135.192V150H1515.49V133.2H1521.87L1531.11 148.008V133.2Z" fill="black"/>
<path d="M1164.98 174.2H1171.53L1171.5 191H1167.9V176.12L1161.38 191H1156.29L1149.78 176.12V191H1146.18V174.2H1152.74L1158.88 188.96L1164.98 174.2ZM1191.14 174.2H1195.46L1186.65 184.424V191H1182.91V184.424L1174.08 174.2H1178.57L1184.85 181.808L1191.14 174.2ZM1220.29 191L1218.54 187.232H1207.93L1206.18 191H1202.46L1210.43 174.2H1216.17L1224.13 191H1220.29ZM1209.23 184.424H1217.25L1213.24 175.784L1209.23 184.424ZM1235.62 174.2C1238.87 174.2 1241.41 174.944 1243.25 176.432C1245.11 177.92 1246.04 179.976 1246.04 182.6C1246.04 185.224 1245.11 187.28 1243.25 188.768C1241.41 190.256 1238.87 191 1235.62 191H1226.69V174.2H1235.62ZM1235.24 187.928C1237.52 187.928 1239.27 187.456 1240.47 186.512C1241.68 185.568 1242.29 184.264 1242.29 182.6C1242.29 180.936 1241.68 179.632 1240.47 178.688C1239.27 177.744 1237.52 177.272 1235.24 177.272H1230.44V187.928H1235.24ZM1258.28 174.2C1261.53 174.2 1264.08 174.944 1265.92 176.432C1267.77 177.92 1268.7 179.976 1268.7 182.6C1268.7 185.224 1267.77 187.28 1265.92 188.768C1264.08 190.256 1261.53 191 1258.28 191H1249.36V174.2H1258.28ZM1257.9 187.928C1260.19 187.928 1261.93 187.456 1263.13 186.512C1264.35 185.568 1264.96 184.264 1264.96 182.6C1264.96 180.936 1264.35 179.632 1263.13 178.688C1261.93 177.744 1260.19 177.272 1257.9 177.272H1253.1V187.928H1257.9ZM1272.02 191V174.2H1275.76V191H1272.02ZM1295.63 185.048L1299.26 185.24C1298.94 187.16 1297.96 188.648 1296.33 189.704C1294.71 190.76 1292.5 191.288 1289.68 191.288C1286.32 191.288 1283.71 190.512 1281.86 188.96C1280.02 187.392 1279.1 185.272 1279.1 182.6C1279.1 179.944 1280 177.832 1281.81 176.264C1283.62 174.696 1286.15 173.912 1289.42 173.912C1292.06 173.912 1294.22 174.432 1295.9 175.472C1297.59 176.496 1298.62 177.888 1298.97 179.648L1295.37 179.888C1295.11 179.008 1294.43 178.304 1293.33 177.776C1292.24 177.232 1290.94 176.96 1289.42 176.96C1287.32 176.96 1285.7 177.48 1284.55 178.52C1283.41 179.56 1282.84 180.92 1282.84 182.6C1282.84 184.28 1283.43 185.64 1284.62 186.68C1285.8 187.72 1287.49 188.24 1289.68 188.24C1291.33 188.24 1292.67 187.944 1293.69 187.352C1294.73 186.744 1295.38 185.976 1295.63 185.048ZM1300.39 177.272V174.2H1318.75V177.272H1311.45V191H1307.71V177.272H1300.39ZM1321.57 191V174.2H1325.31V191H1321.57ZM1331.48 188.936C1329.59 187.368 1328.64 185.256 1328.64 182.6C1328.64 179.944 1329.59 177.832 1331.48 176.264C1333.36 174.696 1336 173.912 1339.4 173.912C1342.79 173.912 1345.43 174.696 1347.32 176.264C1349.22 177.832 1350.17 179.944 1350.17 182.6C1350.17 185.256 1349.22 187.368 1347.32 188.936C1345.43 190.504 1342.79 191.288 1339.4 191.288C1336 191.288 1333.36 190.504 1331.48 188.936ZM1334.21 178.52C1333 179.56 1332.39 180.92 1332.39 182.6C1332.39 184.28 1333 185.64 1334.21 186.68C1335.44 187.72 1337.17 188.24 1339.4 188.24C1341.62 188.24 1343.35 187.72 1344.58 186.68C1345.81 185.64 1346.43 184.28 1346.43 182.6C1346.43 180.92 1345.81 179.56 1344.58 178.52C1343.35 177.48 1341.62 176.96 1339.4 176.96C1337.17 176.96 1335.44 177.48 1334.21 178.52ZM1369.11 174.2H1372.71V191H1366.33L1357.09 176.192V191H1353.49V174.2H1359.87L1369.11 189.008V174.2Z" fill="black"/>
<path d="M1418.98 174.2H1425.53L1425.5 191H1421.9V176.12L1415.38 191H1410.29L1403.78 176.12V191H1400.18V174.2H1406.74L1412.88 188.96L1418.98 174.2ZM1445.14 174.2H1449.46L1440.65 184.424V191H1436.91V184.424L1428.08 174.2H1432.57L1438.85 181.808L1445.14 174.2ZM1474.29 191L1472.54 187.232H1461.93L1460.18 191H1456.46L1464.43 174.2H1470.17L1478.13 191H1474.29ZM1463.23 184.424H1471.25L1467.24 175.784L1463.23 184.424ZM1489.62 174.2C1492.87 174.2 1495.41 174.944 1497.25 176.432C1499.11 177.92 1500.04 179.976 1500.04 182.6C1500.04 185.224 1499.11 187.28 1497.25 188.768C1495.41 190.256 1492.87 191 1489.62 191H1480.69V174.2H1489.62ZM1489.24 187.928C1491.52 187.928 1493.27 187.456 1494.47 186.512C1495.68 185.568 1496.29 184.264 1496.29 182.6C1496.29 180.936 1495.68 179.632 1494.47 178.688C1493.27 177.744 1491.52 177.272 1489.24 177.272H1484.44V187.928H1489.24ZM1512.28 174.2C1515.53 174.2 1518.08 174.944 1519.92 176.432C1521.77 177.92 1522.7 179.976 1522.7 182.6C1522.7 185.224 1521.77 187.28 1519.92 188.768C1518.08 190.256 1515.53 191 1512.28 191H1503.36V174.2H1512.28ZM1511.9 187.928C1514.19 187.928 1515.93 187.456 1517.13 186.512C1518.35 185.568 1518.96 184.264 1518.96 182.6C1518.96 180.936 1518.35 179.632 1517.13 178.688C1515.93 177.744 1514.19 177.272 1511.9 177.272H1507.1V187.928H1511.9ZM1526.02 191V174.2H1529.76V191H1526.02ZM1549.63 185.048L1553.26 185.24C1552.94 187.16 1551.96 188.648 1550.33 189.704C1548.71 190.76 1546.5 191.288 1543.68 191.288C1540.32 191.288 1537.71 190.512 1535.86 188.96C1534.02 187.392 1533.1 185.272 1533.1 182.6C1533.1 179.944 1534 177.832 1535.81 176.264C1537.62 174.696 1540.15 173.912 1543.42 173.912C1546.06 173.912 1548.22 174.432 1549.9 175.472C1551.59 176.496 1552.62 177.888 1552.97 179.648L1549.37 179.888C1549.11 179.008 1548.43 178.304 1547.33 177.776C1546.24 177.232 1544.94 176.96 1543.42 176.96C1541.32 176.96 1539.7 177.48 1538.55 178.52C1537.41 179.56 1536.84 180.92 1536.84 182.6C1536.84 184.28 1537.43 185.64 1538.62 186.68C1539.8 187.72 1541.49 188.24 1543.68 188.24C1545.33 188.24 1546.67 187.944 1547.69 187.352C1548.73 186.744 1549.38 185.976 1549.63 185.048ZM1554.39 177.272V174.2H1572.75V177.272H1565.45V191H1561.71V177.272H1554.39ZM1575.57 191V174.2H1579.31V191H1575.57ZM1585.48 188.936C1583.59 187.368 1582.64 185.256 1582.64 182.6C1582.64 179.944 1583.59 177.832 1585.48 176.264C1587.36 174.696 1590 173.912 1593.4 173.912C1596.79 173.912 1599.43 174.696 1601.32 176.264C1603.22 177.832 1604.17 179.944 1604.17 182.6C1604.17 185.256 1603.22 187.368 1601.32 188.936C1599.43 190.504 1596.79 191.288 1593.4 191.288C1590 191.288 1587.36 190.504 1585.48 188.936ZM1588.21 178.52C1587 179.56 1586.39 180.92 1586.39 182.6C1586.39 184.28 1587 185.64 1588.21 186.68C1589.44 187.72 1591.17 188.24 1593.4 188.24C1595.62 188.24 1597.35 187.72 1598.58 186.68C1599.81 185.64 1600.43 184.28 1600.43 182.6C1600.43 180.92 1599.81 179.56 1598.58 178.52C1597.35 177.48 1595.62 176.96 1593.4 176.96C1591.17 176.96 1589.44 177.48 1588.21 178.52ZM1623.11 174.2H1626.71V191H1620.33L1611.09 176.192V191H1607.49V174.2H1613.87L1623.11 189.008V174.2Z" fill="black"/>
<path d="M-123.024 91.2H-116.472L-116.496 108H-120.096V93.12L-126.624 108H-131.712L-138.216 93.12V108H-141.816V91.2H-135.264L-129.12 105.96L-123.024 91.2ZM-96.8572 91.2H-92.5372L-101.345 101.424V108H-105.089V101.424L-113.921 91.2H-109.433L-103.145 98.808L-96.8572 91.2ZM-67.7059 108L-69.4579 104.232H-80.0659L-81.8179 108H-85.5379L-77.5699 91.2H-71.8339L-63.8659 108H-67.7059ZM-78.7699 101.424H-70.7539L-74.7619 92.784L-78.7699 101.424ZM-52.3802 91.2C-49.1322 91.2 -46.5882 91.944 -44.7482 93.432C-42.8922 94.92 -41.9642 96.976 -41.9642 99.6C-41.9642 102.224 -42.8922 104.28 -44.7482 105.768C-46.5882 107.256 -49.1322 108 -52.3802 108H-61.3082V91.2H-52.3802ZM-52.7642 104.928C-50.4762 104.928 -48.7322 104.456 -47.5322 103.512C-46.3162 102.568 -45.7082 101.264 -45.7082 99.6C-45.7082 97.936 -46.3162 96.632 -47.5322 95.688C-48.7322 94.744 -50.4762 94.272 -52.7642 94.272H-57.5642V104.928H-52.7642ZM-29.7161 91.2C-26.4681 91.2 -23.9241 91.944 -22.0841 93.432C-20.2281 94.92 -19.3001 96.976 -19.3001 99.6C-19.3001 102.224 -20.2281 104.28 -22.0841 105.768C-23.9241 107.256 -26.4681 108 -29.7161 108H-38.6441V91.2H-29.7161ZM-30.1001 104.928C-27.8121 104.928 -26.0681 104.456 -24.8681 103.512C-23.6521 102.568 -23.0441 101.264 -23.0441 99.6C-23.0441 97.936 -23.6521 96.632 -24.8681 95.688C-26.0681 94.744 -27.8121 94.272 -30.1001 94.272H-34.9001V104.928H-30.1001ZM-15.9801 108V91.2H-12.2361V108H-15.9801ZM7.63331 102.048L11.2573 102.24C10.9373 104.16 9.96131 105.648 8.32931 106.704C6.71331 107.76 4.49731 108.288 1.68131 108.288C-1.67869 108.288 -4.28669 107.512 -6.14269 105.96C-7.98269 104.392 -8.90269 102.272 -8.90269 99.6C-8.90269 96.944 -7.99869 94.832 -6.19069 93.264C-4.38269 91.696 -1.84669 90.912 1.41731 90.912C4.05731 90.912 6.21731 91.432 7.89731 92.472C9.59331 93.496 10.6173 94.888 10.9693 96.648L7.36931 96.888C7.11331 96.008 6.43331 95.304 5.32931 94.776C4.24131 94.232 2.93731 93.96 1.41731 93.96C-0.678687 93.96 -2.30269 94.48 -3.45469 95.52C-4.59069 96.56 -5.15869 97.92 -5.15869 99.6C-5.15869 101.28 -4.56669 102.64 -3.38269 103.68C-2.19869 104.72 -0.510687 105.24 1.68131 105.24C3.32931 105.24 4.66531 104.944 5.68931 104.352C6.72931 103.744 7.37731 102.976 7.63331 102.048ZM12.3896 94.272V91.2H30.7496V94.272H23.4536V108H19.7096V94.272H12.3896ZM33.5668 108V91.2H37.3108V108H33.5668ZM43.4762 105.936C41.5882 104.368 40.6442 102.256 40.6442 99.6C40.6442 96.944 41.5882 94.832 43.4762 93.264C45.3642 91.696 48.0042 90.912 51.3962 90.912C54.7882 90.912 57.4282 91.696 59.3162 93.264C61.2202 94.832 62.1722 96.944 62.1722 99.6C62.1722 102.256 61.2202 104.368 59.3162 105.936C57.4282 107.504 54.7882 108.288 51.3962 108.288C48.0042 108.288 45.3642 107.504 43.4762 105.936ZM46.2122 95.52C44.9962 96.56 44.3882 97.92 44.3882 99.6C44.3882 101.28 44.9962 102.64 46.2122 103.68C47.4442 104.72 49.1722 105.24 51.3962 105.24C53.6202 105.24 55.3482 104.72 56.5802 103.68C57.8122 102.64 58.4282 101.28 58.4282 99.6C58.4282 97.92 57.8122 96.56 56.5802 95.52C55.3482 94.48 53.6202 93.96 51.3962 93.96C49.1722 93.96 47.4442 94.48 46.2122 95.52ZM81.1127 91.2H84.7127V108H78.3287L69.0887 93.192V108H65.4887V91.2H71.8727L81.1127 106.008V91.2Z" fill="black"/>
<path d="M1113.98 92.2H1120.53L1120.5 109H1116.9V94.12L1110.38 109H1105.29L1098.78 94.12V109H1095.18V92.2H1101.74L1107.88 106.96L1113.98 92.2ZM1140.14 92.2H1144.46L1135.65 102.424V109H1131.91V102.424L1123.08 92.2H1127.57L1133.85 99.808L1140.14 92.2ZM1169.29 109L1167.54 105.232H1156.93L1155.18 109H1151.46L1159.43 92.2H1165.17L1173.13 109H1169.29ZM1158.23 102.424H1166.25L1162.24 93.784L1158.23 102.424ZM1184.62 92.2C1187.87 92.2 1190.41 92.944 1192.25 94.432C1194.11 95.92 1195.04 97.976 1195.04 100.6C1195.04 103.224 1194.11 105.28 1192.25 106.768C1190.41 108.256 1187.87 109 1184.62 109H1175.69V92.2H1184.62ZM1184.24 105.928C1186.52 105.928 1188.27 105.456 1189.47 104.512C1190.68 103.568 1191.29 102.264 1191.29 100.6C1191.29 98.936 1190.68 97.632 1189.47 96.688C1188.27 95.744 1186.52 95.272 1184.24 95.272H1179.44V105.928H1184.24ZM1207.28 92.2C1210.53 92.2 1213.08 92.944 1214.92 94.432C1216.77 95.92 1217.7 97.976 1217.7 100.6C1217.7 103.224 1216.77 105.28 1214.92 106.768C1213.08 108.256 1210.53 109 1207.28 109H1198.36V92.2H1207.28ZM1206.9 105.928C1209.19 105.928 1210.93 105.456 1212.13 104.512C1213.35 103.568 1213.96 102.264 1213.96 100.6C1213.96 98.936 1213.35 97.632 1212.13 96.688C1210.93 95.744 1209.19 95.272 1206.9 95.272H1202.1V105.928H1206.9ZM1221.02 109V92.2H1224.76V109H1221.02ZM1244.63 103.048L1248.26 103.24C1247.94 105.16 1246.96 106.648 1245.33 107.704C1243.71 108.76 1241.5 109.288 1238.68 109.288C1235.32 109.288 1232.71 108.512 1230.86 106.96C1229.02 105.392 1228.1 103.272 1228.1 100.6C1228.1 97.944 1229 95.832 1230.81 94.264C1232.62 92.696 1235.15 91.912 1238.42 91.912C1241.06 91.912 1243.22 92.432 1244.9 93.472C1246.59 94.496 1247.62 95.888 1247.97 97.648L1244.37 97.888C1244.11 97.008 1243.43 96.304 1242.33 95.776C1241.24 95.232 1239.94 94.96 1238.42 94.96C1236.32 94.96 1234.7 95.48 1233.55 96.52C1232.41 97.56 1231.84 98.92 1231.84 100.6C1231.84 102.28 1232.43 103.64 1233.62 104.68C1234.8 105.72 1236.49 106.24 1238.68 106.24C1240.33 106.24 1241.67 105.944 1242.69 105.352C1243.73 104.744 1244.38 103.976 1244.63 103.048ZM1249.39 95.272V92.2H1267.75V95.272H1260.45V109H1256.71V95.272H1249.39ZM1270.57 109V92.2H1274.31V109H1270.57ZM1280.48 106.936C1278.59 105.368 1277.64 103.256 1277.64 100.6C1277.64 97.944 1278.59 95.832 1280.48 94.264C1282.36 92.696 1285 91.912 1288.4 91.912C1291.79 91.912 1294.43 92.696 1296.32 94.264C1298.22 95.832 1299.17 97.944 1299.17 100.6C1299.17 103.256 1298.22 105.368 1296.32 106.936C1294.43 108.504 1291.79 109.288 1288.4 109.288C1285 109.288 1282.36 108.504 1280.48 106.936ZM1283.21 96.52C1282 97.56 1281.39 98.92 1281.39 100.6C1281.39 102.28 1282 103.64 1283.21 104.68C1284.44 105.72 1286.17 106.24 1288.4 106.24C1290.62 106.24 1292.35 105.72 1293.58 104.68C1294.81 103.64 1295.43 102.28 1295.43 100.6C1295.43 98.92 1294.81 97.56 1293.58 96.52C1292.35 95.48 1290.62 94.96 1288.4 94.96C1286.17 94.96 1284.44 95.48 1283.21 96.52ZM1318.11 92.2H1321.71V109H1315.33L1306.09 94.192V109H1302.49V92.2H1308.87L1318.11 107.008V92.2Z" fill="black"/>
<path d="M1370.98 92.2H1377.53L1377.5 109H1373.9V94.12L1367.38 109H1362.29L1355.78 94.12V109H1352.18V92.2H1358.74L1364.88 106.96L1370.98 92.2ZM1397.14 92.2H1401.46L1392.65 102.424V109H1388.91V102.424L1380.08 92.2H1384.57L1390.85 99.808L1397.14 92.2ZM1426.29 109L1424.54 105.232H1413.93L1412.18 109H1408.46L1416.43 92.2H1422.17L1430.13 109H1426.29ZM1415.23 102.424H1423.25L1419.24 93.784L1415.23 102.424ZM1441.62 92.2C1444.87 92.2 1447.41 92.944 1449.25 94.432C1451.11 95.92 1452.04 97.976 1452.04 100.6C1452.04 103.224 1451.11 105.28 1449.25 106.768C1447.41 108.256 1444.87 109 1441.62 109H1432.69V92.2H1441.62ZM1441.24 105.928C1443.52 105.928 1445.27 105.456 1446.47 104.512C1447.68 103.568 1448.29 102.264 1448.29 100.6C1448.29 98.936 1447.68 97.632 1446.47 96.688C1445.27 95.744 1443.52 95.272 1441.24 95.272H1436.44V105.928H1441.24ZM1464.28 92.2C1467.53 92.2 1470.08 92.944 1471.92 94.432C1473.77 95.92 1474.7 97.976 1474.7 100.6C1474.7 103.224 1473.77 105.28 1471.92 106.768C1470.08 108.256 1467.53 109 1464.28 109H1455.36V92.2H1464.28ZM1463.9 105.928C1466.19 105.928 1467.93 105.456 1469.13 104.512C1470.35 103.568 1470.96 102.264 1470.96 100.6C1470.96 98.936 1470.35 97.632 1469.13 96.688C1467.93 95.744 1466.19 95.272 1463.9 95.272H1459.1V105.928H1463.9ZM1478.02 109V92.2H1481.76V109H1478.02ZM1501.63 103.048L1505.26 103.24C1504.94 105.16 1503.96 106.648 1502.33 107.704C1500.71 108.76 1498.5 109.288 1495.68 109.288C1492.32 109.288 1489.71 108.512 1487.86 106.96C1486.02 105.392 1485.1 103.272 1485.1 100.6C1485.1 97.944 1486 95.832 1487.81 94.264C1489.62 92.696 1492.15 91.912 1495.42 91.912C1498.06 91.912 1500.22 92.432 1501.9 93.472C1503.59 94.496 1504.62 95.888 1504.97 97.648L1501.37 97.888C1501.11 97.008 1500.43 96.304 1499.33 95.776C1498.24 95.232 1496.94 94.96 1495.42 94.96C1493.32 94.96 1491.7 95.48 1490.55 96.52C1489.41 97.56 1488.84 98.92 1488.84 100.6C1488.84 102.28 1489.43 103.64 1490.62 104.68C1491.8 105.72 1493.49 106.24 1495.68 106.24C1497.33 106.24 1498.67 105.944 1499.69 105.352C1500.73 104.744 1501.38 103.976 1501.63 103.048ZM1506.39 95.272V92.2H1524.75V95.272H1517.45V109H1513.71V95.272H1506.39ZM1527.57 109V92.2H1531.31V109H1527.57ZM1537.48 106.936C1535.59 105.368 1534.64 103.256 1534.64 100.6C1534.64 97.944 1535.59 95.832 1537.48 94.264C1539.36 92.696 1542 91.912 1545.4 91.912C1548.79 91.912 1551.43 92.696 1553.32 94.264C1555.22 95.832 1556.17 97.944 1556.17 100.6C1556.17 103.256 1555.22 105.368 1553.32 106.936C1551.43 108.504 1548.79 109.288 1545.4 109.288C1542 109.288 1539.36 108.504 1537.48 106.936ZM1540.21 96.52C1539 97.56 1538.39 98.92 1538.39 100.6C1538.39 102.28 1539 103.64 1540.21 104.68C1541.44 105.72 1543.17 106.24 1545.4 106.24C1547.62 106.24 1549.35 105.72 1550.58 104.68C1551.81 103.64 1552.43 102.28 1552.43 100.6C1552.43 98.92 1551.81 97.56 1550.58 96.52C1549.35 95.48 1547.62 94.96 1545.4 94.96C1543.17 94.96 1541.44 95.48 1540.21 96.52ZM1575.11 92.2H1578.71V109H1572.33L1563.09 94.192V109H1559.49V92.2H1565.87L1575.11 107.008V92.2Z" fill="black"/>
</svg>
