<svg width="1440" height="270" viewBox="0 0 1440 270" fill="none" xmlns="http://www.w3.org/2000/svg">
<path d="M373.449 60.2H380.001L379.977 77H376.377V62.096L369.849 77H364.761L358.257 62.12V77H354.657V60.2H361.209L367.353 74.96L373.449 60.2ZM386.175 74.936C384.287 73.368 383.343 71.256 383.343 68.6C383.343 65.944 384.287 63.832 386.175 62.264C388.063 60.696 390.703 59.912 394.095 59.912C397.487 59.912 400.127 60.696 402.015 62.264C403.919 63.832 404.871 65.944 404.871 68.6C404.871 71.256 403.919 73.368 402.015 74.936C400.127 76.504 397.487 77.288 394.095 77.288C390.703 77.288 388.063 76.504 386.175 74.936ZM388.911 64.52C387.695 65.56 387.087 66.92 387.087 68.6C387.087 70.28 387.695 71.64 388.911 72.68C390.143 73.72 391.871 74.24 394.095 74.24C396.319 74.24 398.047 73.72 399.279 72.68C400.511 71.64 401.127 70.28 401.127 68.6C401.127 66.92 400.511 65.56 399.279 64.52C398.047 63.48 396.319 62.96 394.095 62.96C391.871 62.96 390.143 63.48 388.911 64.52ZM425.256 60.2V77H421.512V70.616H416.616L411 77H406.248L412.44 70.568C410.728 70.44 409.376 69.968 408.384 69.152C407.408 68.32 406.92 67.112 406.92 65.528C406.92 63.784 407.52 62.464 408.72 61.568C409.936 60.656 411.512 60.2 413.448 60.2H425.256ZM413.64 67.784H421.512V63.2H413.64C412.744 63.2 412.024 63.408 411.48 63.824C410.936 64.224 410.664 64.792 410.664 65.528C410.664 66.248 410.928 66.808 411.456 67.208C412 67.592 412.728 67.784 413.64 67.784ZM455.785 60.2H462.337L462.313 77H458.713V62.096L452.185 77H447.097L440.593 62.12V77H436.993V60.2H443.545L449.689 74.96L455.785 60.2ZM466.711 77V60.2H470.455V77H466.711ZM490.325 71.048L493.949 71.24C493.629 73.16 492.653 74.648 491.021 75.704C489.405 76.76 487.189 77.288 484.373 77.288C481.013 77.288 478.405 76.512 476.549 74.96C474.709 73.392 473.789 71.272 473.789 68.6C473.789 65.944 474.693 63.832 476.501 62.264C478.309 60.696 480.845 59.912 484.109 59.912C486.749 59.912 488.909 60.432 490.589 61.472C492.285 62.496 493.309 63.888 493.661 65.648L490.061 65.888C489.805 65.008 489.125 64.304 488.021 63.776C486.933 63.232 485.629 62.96 484.109 62.96C482.013 62.96 480.389 63.48 479.237 64.52C478.101 65.56 477.533 66.92 477.533 68.6C477.533 70.28 478.125 71.64 479.309 72.68C480.493 73.72 482.181 74.24 484.373 74.24C486.021 74.24 487.357 73.944 488.381 73.352C489.421 72.744 490.069 71.976 490.325 71.048ZM496.993 77V60.2H500.737V77H496.993ZM522.334 60.2V77H518.59V70.616H513.694L508.078 77H503.326L509.518 70.568C507.806 70.44 506.454 69.968 505.462 69.152C504.486 68.32 503.998 67.112 503.998 65.528C503.998 63.784 504.598 62.464 505.798 61.568C507.014 60.656 508.59 60.2 510.526 60.2H522.334ZM510.718 67.784H518.59V63.2H510.718C509.822 63.2 509.102 63.408 508.558 63.824C508.014 64.224 507.742 64.792 507.742 65.528C507.742 66.248 508.006 66.808 508.534 67.208C509.078 67.592 509.806 67.784 510.718 67.784Z" fill="black"/>
<path d="M1.44866 195.2H8.00066L7.97666 212H4.37666V197.096L-2.15134 212H-7.23934L-13.7433 197.12V212H-17.3433V195.2H-10.7913L-4.64734 209.96L1.44866 195.2ZM14.1754 209.936C12.2874 208.368 11.3434 206.256 11.3434 203.6C11.3434 200.944 12.2874 198.832 14.1754 197.264C16.0634 195.696 18.7034 194.912 22.0954 194.912C25.4874 194.912 28.1274 195.696 30.0154 197.264C31.9194 198.832 32.8714 200.944 32.8714 203.6C32.8714 206.256 31.9194 208.368 30.0154 209.936C28.1274 211.504 25.4874 212.288 22.0954 212.288C18.7034 212.288 16.0634 211.504 14.1754 209.936ZM16.9114 199.52C15.6954 200.56 15.0874 201.92 15.0874 203.6C15.0874 205.28 15.6954 206.64 16.9114 207.68C18.1434 208.72 19.8714 209.24 22.0954 209.24C24.3194 209.24 26.0474 208.72 27.2794 207.68C28.5114 206.64 29.1274 205.28 29.1274 203.6C29.1274 201.92 28.5114 200.56 27.2794 199.52C26.0474 198.48 24.3194 197.96 22.0954 197.96C19.8714 197.96 18.1434 198.48 16.9114 199.52ZM53.2558 195.2V212H49.5118V205.616H44.6158L38.9998 212H34.2478L40.4398 205.568C38.7278 205.44 37.3758 204.968 36.3838 204.152C35.4078 203.32 34.9198 202.112 34.9198 200.528C34.9198 198.784 35.5198 197.464 36.7198 196.568C37.9358 195.656 39.5118 195.2 41.4478 195.2H53.2558ZM41.6398 202.784H49.5118V198.2H41.6398C40.7438 198.2 40.0238 198.408 39.4798 198.824C38.9358 199.224 38.6638 199.792 38.6638 200.528C38.6638 201.248 38.9278 201.808 39.4558 202.208C39.9998 202.592 40.7278 202.784 41.6398 202.784ZM83.7846 195.2H90.3366L90.3126 212H86.7126V197.096L80.1846 212H75.0966L68.5926 197.12V212H64.9926V195.2H71.5446L77.6886 209.96L83.7846 195.2ZM94.7113 212V195.2H98.4553V212H94.7113ZM118.325 206.048L121.949 206.24C121.629 208.16 120.653 209.648 119.021 210.704C117.405 211.76 115.189 212.288 112.373 212.288C109.013 212.288 106.405 211.512 104.549 209.96C102.709 208.392 101.789 206.272 101.789 203.6C101.789 200.944 102.693 198.832 104.501 197.264C106.309 195.696 108.845 194.912 112.109 194.912C114.749 194.912 116.909 195.432 118.589 196.472C120.285 197.496 121.309 198.888 121.661 200.648L118.061 200.888C117.805 200.008 117.125 199.304 116.021 198.776C114.933 198.232 113.629 197.96 112.109 197.96C110.013 197.96 108.389 198.48 107.237 199.52C106.101 200.56 105.533 201.92 105.533 203.6C105.533 205.28 106.125 206.64 107.309 207.68C108.493 208.72 110.181 209.24 112.373 209.24C114.021 209.24 115.357 208.944 116.381 208.352C117.421 207.744 118.069 206.976 118.325 206.048ZM124.993 212V195.2H128.737V212H124.993ZM150.334 195.2V212H146.59V205.616H141.694L136.078 212H131.326L137.518 205.568C135.806 205.44 134.454 204.968 133.462 204.152C132.486 203.32 131.998 202.112 131.998 200.528C131.998 198.784 132.598 197.464 133.798 196.568C135.014 195.656 136.59 195.2 138.526 195.2H150.334ZM138.718 202.784H146.59V198.2H138.718C137.822 198.2 137.102 198.408 136.558 198.824C136.014 199.224 135.742 199.792 135.742 200.528C135.742 201.248 136.006 201.808 136.534 202.208C137.078 202.592 137.806 202.784 138.718 202.784Z" fill="black"/>
<path d="M98.4487 240.2H105.001L104.977 257H101.377V242.096L94.8487 257H89.7607L83.2567 242.12V257H79.6567V240.2H86.2087L92.3527 254.96L98.4487 240.2ZM111.175 254.936C109.287 253.368 108.343 251.256 108.343 248.6C108.343 245.944 109.287 243.832 111.175 242.264C113.063 240.696 115.703 239.912 119.095 239.912C122.487 239.912 125.127 240.696 127.015 242.264C128.919 243.832 129.871 245.944 129.871 248.6C129.871 251.256 128.919 253.368 127.015 254.936C125.127 256.504 122.487 257.288 119.095 257.288C115.703 257.288 113.063 256.504 111.175 254.936ZM113.911 244.52C112.695 245.56 112.087 246.92 112.087 248.6C112.087 250.28 112.695 251.64 113.911 252.68C115.143 253.72 116.871 254.24 119.095 254.24C121.319 254.24 123.047 253.72 124.279 252.68C125.511 251.64 126.127 250.28 126.127 248.6C126.127 246.92 125.511 245.56 124.279 244.52C123.047 243.48 121.319 242.96 119.095 242.96C116.871 242.96 115.143 243.48 113.911 244.52ZM150.256 240.2V257H146.512V250.616H141.616L136 257H131.248L137.44 250.568C135.728 250.44 134.376 249.968 133.384 249.152C132.408 248.32 131.92 247.112 131.92 245.528C131.92 243.784 132.52 242.464 133.72 241.568C134.936 240.656 136.512 240.2 138.448 240.2H150.256ZM138.64 247.784H146.512V243.2H138.64C137.744 243.2 137.024 243.408 136.48 243.824C135.936 244.224 135.664 244.792 135.664 245.528C135.664 246.248 135.928 246.808 136.456 247.208C137 247.592 137.728 247.784 138.64 247.784ZM180.785 240.2H187.337L187.313 257H183.713V242.096L177.185 257H172.097L165.593 242.12V257H161.993V240.2H168.545L174.689 254.96L180.785 240.2ZM191.711 257V240.2H195.455V257H191.711ZM215.325 251.048L218.949 251.24C218.629 253.16 217.653 254.648 216.021 255.704C214.405 256.76 212.189 257.288 209.373 257.288C206.013 257.288 203.405 256.512 201.549 254.96C199.709 253.392 198.789 251.272 198.789 248.6C198.789 245.944 199.693 243.832 201.501 242.264C203.309 240.696 205.845 239.912 209.109 239.912C211.749 239.912 213.909 240.432 215.589 241.472C217.285 242.496 218.309 243.888 218.661 245.648L215.061 245.888C214.805 245.008 214.125 244.304 213.021 243.776C211.933 243.232 210.629 242.96 209.109 242.96C207.013 242.96 205.389 243.48 204.237 244.52C203.101 245.56 202.533 246.92 202.533 248.6C202.533 250.28 203.125 251.64 204.309 252.68C205.493 253.72 207.181 254.24 209.373 254.24C211.021 254.24 212.357 253.944 213.381 253.352C214.421 252.744 215.069 251.976 215.325 251.048ZM221.993 257V240.2H225.737V257H221.993ZM247.334 240.2V257H243.59V250.616H238.694L233.078 257H228.326L234.518 250.568C232.806 250.44 231.454 249.968 230.462 249.152C229.486 248.32 228.998 247.112 228.998 245.528C228.998 243.784 229.598 242.464 230.798 241.568C232.014 240.656 233.59 240.2 235.526 240.2H247.334ZM235.718 247.784H243.59V243.2H235.718C234.822 243.2 234.102 243.408 233.558 243.824C233.014 244.224 232.742 244.792 232.742 245.528C232.742 246.248 233.006 246.808 233.534 247.208C234.078 247.592 234.806 247.784 235.718 247.784Z" fill="black"/>
<path d="M101.449 15.2H108.001L107.977 32H104.377V17.096L97.8487 32H92.7607L86.2567 17.12V32H82.6567V15.2H89.2087L95.3527 29.96L101.449 15.2ZM114.175 29.936C112.287 28.368 111.343 26.256 111.343 23.6C111.343 20.944 112.287 18.832 114.175 17.264C116.063 15.696 118.703 14.912 122.095 14.912C125.487 14.912 128.127 15.696 130.015 17.264C131.919 18.832 132.871 20.944 132.871 23.6C132.871 26.256 131.919 28.368 130.015 29.936C128.127 31.504 125.487 32.288 122.095 32.288C118.703 32.288 116.063 31.504 114.175 29.936ZM116.911 19.52C115.695 20.56 115.087 21.92 115.087 23.6C115.087 25.28 115.695 26.64 116.911 27.68C118.143 28.72 119.871 29.24 122.095 29.24C124.319 29.24 126.047 28.72 127.279 27.68C128.511 26.64 129.127 25.28 129.127 23.6C129.127 21.92 128.511 20.56 127.279 19.52C126.047 18.48 124.319 17.96 122.095 17.96C119.871 17.96 118.143 18.48 116.911 19.52ZM153.256 15.2V32H149.512V25.616H144.616L139 32H134.248L140.44 25.568C138.728 25.44 137.376 24.968 136.384 24.152C135.408 23.32 134.92 22.112 134.92 20.528C134.92 18.784 135.52 17.464 136.72 16.568C137.936 15.656 139.512 15.2 141.448 15.2H153.256ZM141.64 22.784H149.512V18.2H141.64C140.744 18.2 140.024 18.408 139.48 18.824C138.936 19.224 138.664 19.792 138.664 20.528C138.664 21.248 138.928 21.808 139.456 22.208C140 22.592 140.728 22.784 141.64 22.784ZM183.785 15.2H190.337L190.313 32H186.713V17.096L180.185 32H175.097L168.593 17.12V32H164.993V15.2H171.545L177.689 29.96L183.785 15.2ZM194.711 32V15.2H198.455V32H194.711ZM218.325 26.048L221.949 26.24C221.629 28.16 220.653 29.648 219.021 30.704C217.405 31.76 215.189 32.288 212.373 32.288C209.013 32.288 206.405 31.512 204.549 29.96C202.709 28.392 201.789 26.272 201.789 23.6C201.789 20.944 202.693 18.832 204.501 17.264C206.309 15.696 208.845 14.912 212.109 14.912C214.749 14.912 216.909 15.432 218.589 16.472C220.285 17.496 221.309 18.888 221.661 20.648L218.061 20.888C217.805 20.008 217.125 19.304 216.021 18.776C214.933 18.232 213.629 17.96 212.109 17.96C210.013 17.96 208.389 18.48 207.237 19.52C206.101 20.56 205.533 21.92 205.533 23.6C205.533 25.28 206.125 26.64 207.309 27.68C208.493 28.72 210.181 29.24 212.373 29.24C214.021 29.24 215.357 28.944 216.381 28.352C217.421 27.744 218.069 26.976 218.325 26.048ZM224.993 32V15.2H228.737V32H224.993ZM250.334 15.2V32H246.59V25.616H241.694L236.078 32H231.326L237.518 25.568C235.806 25.44 234.454 24.968 233.462 24.152C232.486 23.32 231.998 22.112 231.998 20.528C231.998 18.784 232.598 17.464 233.798 16.568C235.014 15.656 236.59 15.2 238.526 15.2H250.334ZM238.718 22.784H246.59V18.2H238.718C237.822 18.2 237.102 18.408 236.558 18.824C236.014 19.224 235.742 19.792 235.742 20.528C235.742 21.248 236.006 21.808 236.534 22.208C237.078 22.592 237.806 22.784 238.718 22.784Z" fill="black"/>
<path d="M-102.551 15.2H-95.9993L-96.0233 32H-99.6233V17.096L-106.151 32H-111.239L-117.743 17.12V32H-121.343V15.2H-114.791L-108.647 29.96L-102.551 15.2ZM-89.8246 29.936C-91.7126 28.368 -92.6566 26.256 -92.6566 23.6C-92.6566 20.944 -91.7126 18.832 -89.8246 17.264C-87.9366 15.696 -85.2966 14.912 -81.9046 14.912C-78.5126 14.912 -75.8726 15.696 -73.9846 17.264C-72.0806 18.832 -71.1286 20.944 -71.1286 23.6C-71.1286 26.256 -72.0806 28.368 -73.9846 29.936C-75.8726 31.504 -78.5126 32.288 -81.9046 32.288C-85.2966 32.288 -87.9366 31.504 -89.8246 29.936ZM-87.0886 19.52C-88.3046 20.56 -88.9126 21.92 -88.9126 23.6C-88.9126 25.28 -88.3046 26.64 -87.0886 27.68C-85.8566 28.72 -84.1286 29.24 -81.9046 29.24C-79.6806 29.24 -77.9526 28.72 -76.7206 27.68C-75.4886 26.64 -74.8726 25.28 -74.8726 23.6C-74.8726 21.92 -75.4886 20.56 -76.7206 19.52C-77.9526 18.48 -79.6806 17.96 -81.9046 17.96C-84.1286 17.96 -85.8566 18.48 -87.0886 19.52ZM-50.7442 15.2V32H-54.4882V25.616H-59.3842L-65.0002 32H-69.7522L-63.5602 25.568C-65.2722 25.44 -66.6242 24.968 -67.6162 24.152C-68.5922 23.32 -69.0802 22.112 -69.0802 20.528C-69.0802 18.784 -68.4802 17.464 -67.2802 16.568C-66.0642 15.656 -64.4882 15.2 -62.5522 15.2H-50.7442ZM-62.3602 22.784H-54.4882V18.2H-62.3602C-63.2562 18.2 -63.9762 18.408 -64.5202 18.824C-65.0642 19.224 -65.3362 19.792 -65.3362 20.528C-65.3362 21.248 -65.0722 21.808 -64.5442 22.208C-64.0002 22.592 -63.2722 22.784 -62.3602 22.784ZM-20.2154 15.2H-13.6634L-13.6874 32H-17.2874V17.096L-23.8154 32H-28.9034L-35.4074 17.12V32H-39.0074V15.2H-32.4554L-26.3114 29.96L-20.2154 15.2ZM-9.28866 32V15.2H-5.54466V32H-9.28866ZM14.3247 26.048L17.9487 26.24C17.6287 28.16 16.6527 29.648 15.0207 30.704C13.4047 31.76 11.1887 32.288 8.37272 32.288C5.01272 32.288 2.40472 31.512 0.548719 29.96C-1.29128 28.392 -2.21128 26.272 -2.21128 23.6C-2.21128 20.944 -1.30728 18.832 0.500719 17.264C2.30872 15.696 4.84472 14.912 8.10872 14.912C10.7487 14.912 12.9087 15.432 14.5887 16.472C16.2847 17.496 17.3087 18.888 17.6607 20.648L14.0607 20.888C13.8047 20.008 13.1247 19.304 12.0207 18.776C10.9327 18.232 9.62872 17.96 8.10872 17.96C6.01272 17.96 4.38872 18.48 3.23672 19.52C2.10072 20.56 1.53272 21.92 1.53272 23.6C1.53272 25.28 2.12472 26.64 3.30872 27.68C4.49272 28.72 6.18072 29.24 8.37272 29.24C10.0207 29.24 11.3567 28.944 12.3807 28.352C13.4207 27.744 14.0687 26.976 14.3247 26.048ZM20.9926 32V15.2H24.7366V32H20.9926ZM46.334 15.2V32H42.59V25.616H37.694L32.078 32H27.326L33.518 25.568C31.806 25.44 30.454 24.968 29.462 24.152C28.486 23.32 27.998 22.112 27.998 20.528C27.998 18.784 28.598 17.464 29.798 16.568C31.014 15.656 32.59 15.2 34.526 15.2H46.334ZM34.718 22.784H42.59V18.2H34.718C33.822 18.2 33.102 18.408 32.558 18.824C32.014 19.224 31.742 19.792 31.742 20.528C31.742 21.248 32.006 21.808 32.534 22.208C33.078 22.592 33.806 22.784 34.718 22.784Z" fill="black"/>
<path d="M566.449 60.2H573.001L572.977 77H569.377V62.096L562.849 77H557.761L551.257 62.12V77H547.657V60.2H554.209L560.353 74.96L566.449 60.2ZM579.175 74.936C577.287 73.368 576.343 71.256 576.343 68.6C576.343 65.944 577.287 63.832 579.175 62.264C581.063 60.696 583.703 59.912 587.095 59.912C590.487 59.912 593.127 60.696 595.015 62.264C596.919 63.832 597.871 65.944 597.871 68.6C597.871 71.256 596.919 73.368 595.015 74.936C593.127 76.504 590.487 77.288 587.095 77.288C583.703 77.288 581.063 76.504 579.175 74.936ZM581.911 64.52C580.695 65.56 580.087 66.92 580.087 68.6C580.087 70.28 580.695 71.64 581.911 72.68C583.143 73.72 584.871 74.24 587.095 74.24C589.319 74.24 591.047 73.72 592.279 72.68C593.511 71.64 594.127 70.28 594.127 68.6C594.127 66.92 593.511 65.56 592.279 64.52C591.047 63.48 589.319 62.96 587.095 62.96C584.871 62.96 583.143 63.48 581.911 64.52ZM618.256 60.2V77H614.512V70.616H609.616L604 77H599.248L605.44 70.568C603.728 70.44 602.376 69.968 601.384 69.152C600.408 68.32 599.92 67.112 599.92 65.528C599.92 63.784 600.52 62.464 601.72 61.568C602.936 60.656 604.512 60.2 606.448 60.2H618.256ZM606.64 67.784H614.512V63.2H606.64C605.744 63.2 605.024 63.408 604.48 63.824C603.936 64.224 603.664 64.792 603.664 65.528C603.664 66.248 603.928 66.808 604.456 67.208C605 67.592 605.728 67.784 606.64 67.784ZM648.785 60.2H655.337L655.313 77H651.713V62.096L645.185 77H640.097L633.593 62.12V77H629.993V60.2H636.545L642.689 74.96L648.785 60.2ZM659.711 77V60.2H663.455V77H659.711ZM683.325 71.048L686.949 71.24C686.629 73.16 685.653 74.648 684.021 75.704C682.405 76.76 680.189 77.288 677.373 77.288C674.013 77.288 671.405 76.512 669.549 74.96C667.709 73.392 666.789 71.272 666.789 68.6C666.789 65.944 667.693 63.832 669.501 62.264C671.309 60.696 673.845 59.912 677.109 59.912C679.749 59.912 681.909 60.432 683.589 61.472C685.285 62.496 686.309 63.888 686.661 65.648L683.061 65.888C682.805 65.008 682.125 64.304 681.021 63.776C679.933 63.232 678.629 62.96 677.109 62.96C675.013 62.96 673.389 63.48 672.237 64.52C671.101 65.56 670.533 66.92 670.533 68.6C670.533 70.28 671.125 71.64 672.309 72.68C673.493 73.72 675.181 74.24 677.373 74.24C679.021 74.24 680.357 73.944 681.381 73.352C682.421 72.744 683.069 71.976 683.325 71.048ZM689.993 77V60.2H693.737V77H689.993ZM715.334 60.2V77H711.59V70.616H706.694L701.078 77H696.326L702.518 70.568C700.806 70.44 699.454 69.968 698.462 69.152C697.486 68.32 696.998 67.112 696.998 65.528C696.998 63.784 697.598 62.464 698.798 61.568C700.014 60.656 701.59 60.2 703.526 60.2H715.334ZM703.718 67.784H711.59V63.2H703.718C702.822 63.2 702.102 63.408 701.558 63.824C701.014 64.224 700.742 64.792 700.742 65.528C700.742 66.248 701.006 66.808 701.534 67.208C702.078 67.592 702.806 67.784 703.718 67.784Z" fill="black"/>
<path d="M194.449 195.2H201.001L200.977 212H197.377V197.096L190.849 212H185.761L179.257 197.12V212H175.657V195.2H182.209L188.353 209.96L194.449 195.2ZM207.175 209.936C205.287 208.368 204.343 206.256 204.343 203.6C204.343 200.944 205.287 198.832 207.175 197.264C209.063 195.696 211.703 194.912 215.095 194.912C218.487 194.912 221.127 195.696 223.015 197.264C224.919 198.832 225.871 200.944 225.871 203.6C225.871 206.256 224.919 208.368 223.015 209.936C221.127 211.504 218.487 212.288 215.095 212.288C211.703 212.288 209.063 211.504 207.175 209.936ZM209.911 199.52C208.695 200.56 208.087 201.92 208.087 203.6C208.087 205.28 208.695 206.64 209.911 207.68C211.143 208.72 212.871 209.24 215.095 209.24C217.319 209.24 219.047 208.72 220.279 207.68C221.511 206.64 222.127 205.28 222.127 203.6C222.127 201.92 221.511 200.56 220.279 199.52C219.047 198.48 217.319 197.96 215.095 197.96C212.871 197.96 211.143 198.48 209.911 199.52ZM246.256 195.2V212H242.512V205.616H237.616L232 212H227.248L233.44 205.568C231.728 205.44 230.376 204.968 229.384 204.152C228.408 203.32 227.92 202.112 227.92 200.528C227.92 198.784 228.52 197.464 229.72 196.568C230.936 195.656 232.512 195.2 234.448 195.2H246.256ZM234.64 202.784H242.512V198.2H234.64C233.744 198.2 233.024 198.408 232.48 198.824C231.936 199.224 231.664 199.792 231.664 200.528C231.664 201.248 231.928 201.808 232.456 202.208C233 202.592 233.728 202.784 234.64 202.784ZM276.785 195.2H283.337L283.313 212H279.713V197.096L273.185 212H268.097L261.593 197.12V212H257.993V195.2H264.545L270.689 209.96L276.785 195.2ZM287.711 212V195.2H291.455V212H287.711ZM311.325 206.048L314.949 206.24C314.629 208.16 313.653 209.648 312.021 210.704C310.405 211.76 308.189 212.288 305.373 212.288C302.013 212.288 299.405 211.512 297.549 209.96C295.709 208.392 294.789 206.272 294.789 203.6C294.789 200.944 295.693 198.832 297.501 197.264C299.309 195.696 301.845 194.912 305.109 194.912C307.749 194.912 309.909 195.432 311.589 196.472C313.285 197.496 314.309 198.888 314.661 200.648L311.061 200.888C310.805 200.008 310.125 199.304 309.021 198.776C307.933 198.232 306.629 197.96 305.109 197.96C303.013 197.96 301.389 198.48 300.237 199.52C299.101 200.56 298.533 201.92 298.533 203.6C298.533 205.28 299.125 206.64 300.309 207.68C301.493 208.72 303.181 209.24 305.373 209.24C307.021 209.24 308.357 208.944 309.381 208.352C310.421 207.744 311.069 206.976 311.325 206.048ZM317.993 212V195.2H321.737V212H317.993ZM343.334 195.2V212H339.59V205.616H334.694L329.078 212H324.326L330.518 205.568C328.806 205.44 327.454 204.968 326.462 204.152C325.486 203.32 324.998 202.112 324.998 200.528C324.998 198.784 325.598 197.464 326.798 196.568C328.014 195.656 329.59 195.2 331.526 195.2H343.334ZM331.718 202.784H339.59V198.2H331.718C330.822 198.2 330.102 198.408 329.558 198.824C329.014 199.224 328.742 199.792 328.742 200.528C328.742 201.248 329.006 201.808 329.534 202.208C330.078 202.592 330.806 202.784 331.718 202.784Z" fill="black"/>
<path d="M291.449 240.2H298.001L297.977 257H294.377V242.096L287.849 257H282.761L276.257 242.12V257H272.657V240.2H279.209L285.353 254.96L291.449 240.2ZM304.175 254.936C302.287 253.368 301.343 251.256 301.343 248.6C301.343 245.944 302.287 243.832 304.175 242.264C306.063 240.696 308.703 239.912 312.095 239.912C315.487 239.912 318.127 240.696 320.015 242.264C321.919 243.832 322.871 245.944 322.871 248.6C322.871 251.256 321.919 253.368 320.015 254.936C318.127 256.504 315.487 257.288 312.095 257.288C308.703 257.288 306.063 256.504 304.175 254.936ZM306.911 244.52C305.695 245.56 305.087 246.92 305.087 248.6C305.087 250.28 305.695 251.64 306.911 252.68C308.143 253.72 309.871 254.24 312.095 254.24C314.319 254.24 316.047 253.72 317.279 252.68C318.511 251.64 319.127 250.28 319.127 248.6C319.127 246.92 318.511 245.56 317.279 244.52C316.047 243.48 314.319 242.96 312.095 242.96C309.871 242.96 308.143 243.48 306.911 244.52ZM343.256 240.2V257H339.512V250.616H334.616L329 257H324.248L330.44 250.568C328.728 250.44 327.376 249.968 326.384 249.152C325.408 248.32 324.92 247.112 324.92 245.528C324.92 243.784 325.52 242.464 326.72 241.568C327.936 240.656 329.512 240.2 331.448 240.2H343.256ZM331.64 247.784H339.512V243.2H331.64C330.744 243.2 330.024 243.408 329.48 243.824C328.936 244.224 328.664 244.792 328.664 245.528C328.664 246.248 328.928 246.808 329.456 247.208C330 247.592 330.728 247.784 331.64 247.784ZM373.785 240.2H380.337L380.313 257H376.713V242.096L370.185 257H365.097L358.593 242.12V257H354.993V240.2H361.545L367.689 254.96L373.785 240.2ZM384.711 257V240.2H388.455V257H384.711ZM408.325 251.048L411.949 251.24C411.629 253.16 410.653 254.648 409.021 255.704C407.405 256.76 405.189 257.288 402.373 257.288C399.013 257.288 396.405 256.512 394.549 254.96C392.709 253.392 391.789 251.272 391.789 248.6C391.789 245.944 392.693 243.832 394.501 242.264C396.309 240.696 398.845 239.912 402.109 239.912C404.749 239.912 406.909 240.432 408.589 241.472C410.285 242.496 411.309 243.888 411.661 245.648L408.061 245.888C407.805 245.008 407.125 244.304 406.021 243.776C404.933 243.232 403.629 242.96 402.109 242.96C400.013 242.96 398.389 243.48 397.237 244.52C396.101 245.56 395.533 246.92 395.533 248.6C395.533 250.28 396.125 251.64 397.309 252.68C398.493 253.72 400.181 254.24 402.373 254.24C404.021 254.24 405.357 253.944 406.381 253.352C407.421 252.744 408.069 251.976 408.325 251.048ZM414.993 257V240.2H418.737V257H414.993ZM440.334 240.2V257H436.59V250.616H431.694L426.078 257H421.326L427.518 250.568C425.806 250.44 424.454 249.968 423.462 249.152C422.486 248.32 421.998 247.112 421.998 245.528C421.998 243.784 422.598 242.464 423.798 241.568C425.014 240.656 426.59 240.2 428.526 240.2H440.334ZM428.718 247.784H436.59V243.2H428.718C427.822 243.2 427.102 243.408 426.558 243.824C426.014 244.224 425.742 244.792 425.742 245.528C425.742 246.248 426.006 246.808 426.534 247.208C427.078 247.592 427.806 247.784 428.718 247.784Z" fill="black"/>
<path d="M294.449 15.2H301.001L300.977 32H297.377V17.096L290.849 32H285.761L279.257 17.12V32H275.657V15.2H282.209L288.353 29.96L294.449 15.2ZM307.175 29.936C305.287 28.368 304.343 26.256 304.343 23.6C304.343 20.944 305.287 18.832 307.175 17.264C309.063 15.696 311.703 14.912 315.095 14.912C318.487 14.912 321.127 15.696 323.015 17.264C324.919 18.832 325.871 20.944 325.871 23.6C325.871 26.256 324.919 28.368 323.015 29.936C321.127 31.504 318.487 32.288 315.095 32.288C311.703 32.288 309.063 31.504 307.175 29.936ZM309.911 19.52C308.695 20.56 308.087 21.92 308.087 23.6C308.087 25.28 308.695 26.64 309.911 27.68C311.143 28.72 312.871 29.24 315.095 29.24C317.319 29.24 319.047 28.72 320.279 27.68C321.511 26.64 322.127 25.28 322.127 23.6C322.127 21.92 321.511 20.56 320.279 19.52C319.047 18.48 317.319 17.96 315.095 17.96C312.871 17.96 311.143 18.48 309.911 19.52ZM346.256 15.2V32H342.512V25.616H337.616L332 32H327.248L333.44 25.568C331.728 25.44 330.376 24.968 329.384 24.152C328.408 23.32 327.92 22.112 327.92 20.528C327.92 18.784 328.52 17.464 329.72 16.568C330.936 15.656 332.512 15.2 334.448 15.2H346.256ZM334.64 22.784H342.512V18.2H334.64C333.744 18.2 333.024 18.408 332.48 18.824C331.936 19.224 331.664 19.792 331.664 20.528C331.664 21.248 331.928 21.808 332.456 22.208C333 22.592 333.728 22.784 334.64 22.784ZM376.785 15.2H383.337L383.313 32H379.713V17.096L373.185 32H368.097L361.593 17.12V32H357.993V15.2H364.545L370.689 29.96L376.785 15.2ZM387.711 32V15.2H391.455V32H387.711ZM411.325 26.048L414.949 26.24C414.629 28.16 413.653 29.648 412.021 30.704C410.405 31.76 408.189 32.288 405.373 32.288C402.013 32.288 399.405 31.512 397.549 29.96C395.709 28.392 394.789 26.272 394.789 23.6C394.789 20.944 395.693 18.832 397.501 17.264C399.309 15.696 401.845 14.912 405.109 14.912C407.749 14.912 409.909 15.432 411.589 16.472C413.285 17.496 414.309 18.888 414.661 20.648L411.061 20.888C410.805 20.008 410.125 19.304 409.021 18.776C407.933 18.232 406.629 17.96 405.109 17.96C403.013 17.96 401.389 18.48 400.237 19.52C399.101 20.56 398.533 21.92 398.533 23.6C398.533 25.28 399.125 26.64 400.309 27.68C401.493 28.72 403.181 29.24 405.373 29.24C407.021 29.24 408.357 28.944 409.381 28.352C410.421 27.744 411.069 26.976 411.325 26.048ZM417.993 32V15.2H421.737V32H417.993ZM443.334 15.2V32H439.59V25.616H434.694L429.078 32H424.326L430.518 25.568C428.806 25.44 427.454 24.968 426.462 24.152C425.486 23.32 424.998 22.112 424.998 20.528C424.998 18.784 425.598 17.464 426.798 16.568C428.014 15.656 429.59 15.2 431.526 15.2H443.334ZM431.718 22.784H439.59V18.2H431.718C430.822 18.2 430.102 18.408 429.558 18.824C429.014 19.224 428.742 19.792 428.742 20.528C428.742 21.248 429.006 21.808 429.534 22.208C430.078 22.592 430.806 22.784 431.718 22.784Z" fill="black"/>
<path d="M759.449 60.2H766.001L765.977 77H762.377V62.096L755.849 77H750.761L744.257 62.12V77H740.657V60.2H747.209L753.353 74.96L759.449 60.2ZM772.175 74.936C770.287 73.368 769.343 71.256 769.343 68.6C769.343 65.944 770.287 63.832 772.175 62.264C774.063 60.696 776.703 59.912 780.095 59.912C783.487 59.912 786.127 60.696 788.015 62.264C789.919 63.832 790.871 65.944 790.871 68.6C790.871 71.256 789.919 73.368 788.015 74.936C786.127 76.504 783.487 77.288 780.095 77.288C776.703 77.288 774.063 76.504 772.175 74.936ZM774.911 64.52C773.695 65.56 773.087 66.92 773.087 68.6C773.087 70.28 773.695 71.64 774.911 72.68C776.143 73.72 777.871 74.24 780.095 74.24C782.319 74.24 784.047 73.72 785.279 72.68C786.511 71.64 787.127 70.28 787.127 68.6C787.127 66.92 786.511 65.56 785.279 64.52C784.047 63.48 782.319 62.96 780.095 62.96C777.871 62.96 776.143 63.48 774.911 64.52ZM811.256 60.2V77H807.512V70.616H802.616L797 77H792.248L798.44 70.568C796.728 70.44 795.376 69.968 794.384 69.152C793.408 68.32 792.92 67.112 792.92 65.528C792.92 63.784 793.52 62.464 794.72 61.568C795.936 60.656 797.512 60.2 799.448 60.2H811.256ZM799.64 67.784H807.512V63.2H799.64C798.744 63.2 798.024 63.408 797.48 63.824C796.936 64.224 796.664 64.792 796.664 65.528C796.664 66.248 796.928 66.808 797.456 67.208C798 67.592 798.728 67.784 799.64 67.784ZM841.785 60.2H848.337L848.313 77H844.713V62.096L838.185 77H833.097L826.593 62.12V77H822.993V60.2H829.545L835.689 74.96L841.785 60.2ZM852.711 77V60.2H856.455V77H852.711ZM876.325 71.048L879.949 71.24C879.629 73.16 878.653 74.648 877.021 75.704C875.405 76.76 873.189 77.288 870.373 77.288C867.013 77.288 864.405 76.512 862.549 74.96C860.709 73.392 859.789 71.272 859.789 68.6C859.789 65.944 860.693 63.832 862.501 62.264C864.309 60.696 866.845 59.912 870.109 59.912C872.749 59.912 874.909 60.432 876.589 61.472C878.285 62.496 879.309 63.888 879.661 65.648L876.061 65.888C875.805 65.008 875.125 64.304 874.021 63.776C872.933 63.232 871.629 62.96 870.109 62.96C868.013 62.96 866.389 63.48 865.237 64.52C864.101 65.56 863.533 66.92 863.533 68.6C863.533 70.28 864.125 71.64 865.309 72.68C866.493 73.72 868.181 74.24 870.373 74.24C872.021 74.24 873.357 73.944 874.381 73.352C875.421 72.744 876.069 71.976 876.325 71.048ZM882.993 77V60.2H886.737V77H882.993ZM908.334 60.2V77H904.59V70.616H899.694L894.078 77H889.326L895.518 70.568C893.806 70.44 892.454 69.968 891.462 69.152C890.486 68.32 889.998 67.112 889.998 65.528C889.998 63.784 890.598 62.464 891.798 61.568C893.014 60.656 894.59 60.2 896.526 60.2H908.334ZM896.718 67.784H904.59V63.2H896.718C895.822 63.2 895.102 63.408 894.558 63.824C894.014 64.224 893.742 64.792 893.742 65.528C893.742 66.248 894.006 66.808 894.534 67.208C895.078 67.592 895.806 67.784 896.718 67.784Z" fill="black"/>
<path d="M387.449 195.2H394.001L393.977 212H390.377V197.096L383.849 212H378.761L372.257 197.12V212H368.657V195.2H375.209L381.353 209.96L387.449 195.2ZM400.175 209.936C398.287 208.368 397.343 206.256 397.343 203.6C397.343 200.944 398.287 198.832 400.175 197.264C402.063 195.696 404.703 194.912 408.095 194.912C411.487 194.912 414.127 195.696 416.015 197.264C417.919 198.832 418.871 200.944 418.871 203.6C418.871 206.256 417.919 208.368 416.015 209.936C414.127 211.504 411.487 212.288 408.095 212.288C404.703 212.288 402.063 211.504 400.175 209.936ZM402.911 199.52C401.695 200.56 401.087 201.92 401.087 203.6C401.087 205.28 401.695 206.64 402.911 207.68C404.143 208.72 405.871 209.24 408.095 209.24C410.319 209.24 412.047 208.72 413.279 207.68C414.511 206.64 415.127 205.28 415.127 203.6C415.127 201.92 414.511 200.56 413.279 199.52C412.047 198.48 410.319 197.96 408.095 197.96C405.871 197.96 404.143 198.48 402.911 199.52ZM439.256 195.2V212H435.512V205.616H430.616L425 212H420.248L426.44 205.568C424.728 205.44 423.376 204.968 422.384 204.152C421.408 203.32 420.92 202.112 420.92 200.528C420.92 198.784 421.52 197.464 422.72 196.568C423.936 195.656 425.512 195.2 427.448 195.2H439.256ZM427.64 202.784H435.512V198.2H427.64C426.744 198.2 426.024 198.408 425.48 198.824C424.936 199.224 424.664 199.792 424.664 200.528C424.664 201.248 424.928 201.808 425.456 202.208C426 202.592 426.728 202.784 427.64 202.784ZM469.785 195.2H476.337L476.313 212H472.713V197.096L466.185 212H461.097L454.593 197.12V212H450.993V195.2H457.545L463.689 209.96L469.785 195.2ZM480.711 212V195.2H484.455V212H480.711ZM504.325 206.048L507.949 206.24C507.629 208.16 506.653 209.648 505.021 210.704C503.405 211.76 501.189 212.288 498.373 212.288C495.013 212.288 492.405 211.512 490.549 209.96C488.709 208.392 487.789 206.272 487.789 203.6C487.789 200.944 488.693 198.832 490.501 197.264C492.309 195.696 494.845 194.912 498.109 194.912C500.749 194.912 502.909 195.432 504.589 196.472C506.285 197.496 507.309 198.888 507.661 200.648L504.061 200.888C503.805 200.008 503.125 199.304 502.021 198.776C500.933 198.232 499.629 197.96 498.109 197.96C496.013 197.96 494.389 198.48 493.237 199.52C492.101 200.56 491.533 201.92 491.533 203.6C491.533 205.28 492.125 206.64 493.309 207.68C494.493 208.72 496.181 209.24 498.373 209.24C500.021 209.24 501.357 208.944 502.381 208.352C503.421 207.744 504.069 206.976 504.325 206.048ZM510.993 212V195.2H514.737V212H510.993ZM536.334 195.2V212H532.59V205.616H527.694L522.078 212H517.326L523.518 205.568C521.806 205.44 520.454 204.968 519.462 204.152C518.486 203.32 517.998 202.112 517.998 200.528C517.998 198.784 518.598 197.464 519.798 196.568C521.014 195.656 522.59 195.2 524.526 195.2H536.334ZM524.718 202.784H532.59V198.2H524.718C523.822 198.2 523.102 198.408 522.558 198.824C522.014 199.224 521.742 199.792 521.742 200.528C521.742 201.248 522.006 201.808 522.534 202.208C523.078 202.592 523.806 202.784 524.718 202.784Z" fill="black"/>
<path d="M484.449 240.2H491.001L490.977 257H487.377V242.096L480.849 257H475.761L469.257 242.12V257H465.657V240.2H472.209L478.353 254.96L484.449 240.2ZM497.175 254.936C495.287 253.368 494.343 251.256 494.343 248.6C494.343 245.944 495.287 243.832 497.175 242.264C499.063 240.696 501.703 239.912 505.095 239.912C508.487 239.912 511.127 240.696 513.015 242.264C514.919 243.832 515.871 245.944 515.871 248.6C515.871 251.256 514.919 253.368 513.015 254.936C511.127 256.504 508.487 257.288 505.095 257.288C501.703 257.288 499.063 256.504 497.175 254.936ZM499.911 244.52C498.695 245.56 498.087 246.92 498.087 248.6C498.087 250.28 498.695 251.64 499.911 252.68C501.143 253.72 502.871 254.24 505.095 254.24C507.319 254.24 509.047 253.72 510.279 252.68C511.511 251.64 512.127 250.28 512.127 248.6C512.127 246.92 511.511 245.56 510.279 244.52C509.047 243.48 507.319 242.96 505.095 242.96C502.871 242.96 501.143 243.48 499.911 244.52ZM536.256 240.2V257H532.512V250.616H527.616L522 257H517.248L523.44 250.568C521.728 250.44 520.376 249.968 519.384 249.152C518.408 248.32 517.92 247.112 517.92 245.528C517.92 243.784 518.52 242.464 519.72 241.568C520.936 240.656 522.512 240.2 524.448 240.2H536.256ZM524.64 247.784H532.512V243.2H524.64C523.744 243.2 523.024 243.408 522.48 243.824C521.936 244.224 521.664 244.792 521.664 245.528C521.664 246.248 521.928 246.808 522.456 247.208C523 247.592 523.728 247.784 524.64 247.784ZM566.785 240.2H573.337L573.313 257H569.713V242.096L563.185 257H558.097L551.593 242.12V257H547.993V240.2H554.545L560.689 254.96L566.785 240.2ZM577.711 257V240.2H581.455V257H577.711ZM601.325 251.048L604.949 251.24C604.629 253.16 603.653 254.648 602.021 255.704C600.405 256.76 598.189 257.288 595.373 257.288C592.013 257.288 589.405 256.512 587.549 254.96C585.709 253.392 584.789 251.272 584.789 248.6C584.789 245.944 585.693 243.832 587.501 242.264C589.309 240.696 591.845 239.912 595.109 239.912C597.749 239.912 599.909 240.432 601.589 241.472C603.285 242.496 604.309 243.888 604.661 245.648L601.061 245.888C600.805 245.008 600.125 244.304 599.021 243.776C597.933 243.232 596.629 242.96 595.109 242.96C593.013 242.96 591.389 243.48 590.237 244.52C589.101 245.56 588.533 246.92 588.533 248.6C588.533 250.28 589.125 251.64 590.309 252.68C591.493 253.72 593.181 254.24 595.373 254.24C597.021 254.24 598.357 253.944 599.381 253.352C600.421 252.744 601.069 251.976 601.325 251.048ZM607.993 257V240.2H611.737V257H607.993ZM633.334 240.2V257H629.59V250.616H624.694L619.078 257H614.326L620.518 250.568C618.806 250.44 617.454 249.968 616.462 249.152C615.486 248.32 614.998 247.112 614.998 245.528C614.998 243.784 615.598 242.464 616.798 241.568C618.014 240.656 619.59 240.2 621.526 240.2H633.334ZM621.718 247.784H629.59V243.2H621.718C620.822 243.2 620.102 243.408 619.558 243.824C619.014 244.224 618.742 244.792 618.742 245.528C618.742 246.248 619.006 246.808 619.534 247.208C620.078 247.592 620.806 247.784 621.718 247.784Z" fill="black"/>
<path d="M487.449 15.2H494.001L493.977 32H490.377V17.096L483.849 32H478.761L472.257 17.12V32H468.657V15.2H475.209L481.353 29.96L487.449 15.2ZM500.175 29.936C498.287 28.368 497.343 26.256 497.343 23.6C497.343 20.944 498.287 18.832 500.175 17.264C502.063 15.696 504.703 14.912 508.095 14.912C511.487 14.912 514.127 15.696 516.015 17.264C517.919 18.832 518.871 20.944 518.871 23.6C518.871 26.256 517.919 28.368 516.015 29.936C514.127 31.504 511.487 32.288 508.095 32.288C504.703 32.288 502.063 31.504 500.175 29.936ZM502.911 19.52C501.695 20.56 501.087 21.92 501.087 23.6C501.087 25.28 501.695 26.64 502.911 27.68C504.143 28.72 505.871 29.24 508.095 29.24C510.319 29.24 512.047 28.72 513.279 27.68C514.511 26.64 515.127 25.28 515.127 23.6C515.127 21.92 514.511 20.56 513.279 19.52C512.047 18.48 510.319 17.96 508.095 17.96C505.871 17.96 504.143 18.48 502.911 19.52ZM539.256 15.2V32H535.512V25.616H530.616L525 32H520.248L526.44 25.568C524.728 25.44 523.376 24.968 522.384 24.152C521.408 23.32 520.92 22.112 520.92 20.528C520.92 18.784 521.52 17.464 522.72 16.568C523.936 15.656 525.512 15.2 527.448 15.2H539.256ZM527.64 22.784H535.512V18.2H527.64C526.744 18.2 526.024 18.408 525.48 18.824C524.936 19.224 524.664 19.792 524.664 20.528C524.664 21.248 524.928 21.808 525.456 22.208C526 22.592 526.728 22.784 527.64 22.784ZM569.785 15.2H576.337L576.313 32H572.713V17.096L566.185 32H561.097L554.593 17.12V32H550.993V15.2H557.545L563.689 29.96L569.785 15.2ZM580.711 32V15.2H584.455V32H580.711ZM604.325 26.048L607.949 26.24C607.629 28.16 606.653 29.648 605.021 30.704C603.405 31.76 601.189 32.288 598.373 32.288C595.013 32.288 592.405 31.512 590.549 29.96C588.709 28.392 587.789 26.272 587.789 23.6C587.789 20.944 588.693 18.832 590.501 17.264C592.309 15.696 594.845 14.912 598.109 14.912C600.749 14.912 602.909 15.432 604.589 16.472C606.285 17.496 607.309 18.888 607.661 20.648L604.061 20.888C603.805 20.008 603.125 19.304 602.021 18.776C600.933 18.232 599.629 17.96 598.109 17.96C596.013 17.96 594.389 18.48 593.237 19.52C592.101 20.56 591.533 21.92 591.533 23.6C591.533 25.28 592.125 26.64 593.309 27.68C594.493 28.72 596.181 29.24 598.373 29.24C600.021 29.24 601.357 28.944 602.381 28.352C603.421 27.744 604.069 26.976 604.325 26.048ZM610.993 32V15.2H614.737V32H610.993ZM636.334 15.2V32H632.59V25.616H627.694L622.078 32H617.326L623.518 25.568C621.806 25.44 620.454 24.968 619.462 24.152C618.486 23.32 617.998 22.112 617.998 20.528C617.998 18.784 618.598 17.464 619.798 16.568C621.014 15.656 622.59 15.2 624.526 15.2H636.334ZM624.718 22.784H632.59V18.2H624.718C623.822 18.2 623.102 18.408 622.558 18.824C622.014 19.224 621.742 19.792 621.742 20.528C621.742 21.248 622.006 21.808 622.534 22.208C623.078 22.592 623.806 22.784 624.718 22.784Z" fill="black"/>
<path d="M952.449 60.2H959.001L958.977 77H955.377V62.096L948.849 77H943.761L937.257 62.12V77H933.657V60.2H940.209L946.353 74.96L952.449 60.2ZM965.175 74.936C963.287 73.368 962.343 71.256 962.343 68.6C962.343 65.944 963.287 63.832 965.175 62.264C967.063 60.696 969.703 59.912 973.095 59.912C976.487 59.912 979.127 60.696 981.015 62.264C982.919 63.832 983.871 65.944 983.871 68.6C983.871 71.256 982.919 73.368 981.015 74.936C979.127 76.504 976.487 77.288 973.095 77.288C969.703 77.288 967.063 76.504 965.175 74.936ZM967.911 64.52C966.695 65.56 966.087 66.92 966.087 68.6C966.087 70.28 966.695 71.64 967.911 72.68C969.143 73.72 970.871 74.24 973.095 74.24C975.319 74.24 977.047 73.72 978.279 72.68C979.511 71.64 980.127 70.28 980.127 68.6C980.127 66.92 979.511 65.56 978.279 64.52C977.047 63.48 975.319 62.96 973.095 62.96C970.871 62.96 969.143 63.48 967.911 64.52ZM1004.26 60.2V77H1000.51V70.616H995.616L990 77H985.248L991.44 70.568C989.728 70.44 988.376 69.968 987.384 69.152C986.408 68.32 985.92 67.112 985.92 65.528C985.92 63.784 986.52 62.464 987.72 61.568C988.936 60.656 990.512 60.2 992.448 60.2H1004.26ZM992.64 67.784H1000.51V63.2H992.64C991.744 63.2 991.024 63.408 990.48 63.824C989.936 64.224 989.664 64.792 989.664 65.528C989.664 66.248 989.928 66.808 990.456 67.208C991 67.592 991.728 67.784 992.64 67.784ZM1034.78 60.2H1041.34L1041.31 77H1037.71V62.096L1031.18 77H1026.1L1019.59 62.12V77H1015.99V60.2H1022.54L1028.69 74.96L1034.78 60.2ZM1045.71 77V60.2H1049.46V77H1045.71ZM1069.32 71.048L1072.95 71.24C1072.63 73.16 1071.65 74.648 1070.02 75.704C1068.4 76.76 1066.19 77.288 1063.37 77.288C1060.01 77.288 1057.4 76.512 1055.55 74.96C1053.71 73.392 1052.79 71.272 1052.79 68.6C1052.79 65.944 1053.69 63.832 1055.5 62.264C1057.31 60.696 1059.84 59.912 1063.11 59.912C1065.75 59.912 1067.91 60.432 1069.59 61.472C1071.28 62.496 1072.31 63.888 1072.66 65.648L1069.06 65.888C1068.8 65.008 1068.12 64.304 1067.02 63.776C1065.93 63.232 1064.63 62.96 1063.11 62.96C1061.01 62.96 1059.39 63.48 1058.24 64.52C1057.1 65.56 1056.53 66.92 1056.53 68.6C1056.53 70.28 1057.12 71.64 1058.31 72.68C1059.49 73.72 1061.18 74.24 1063.37 74.24C1065.02 74.24 1066.36 73.944 1067.38 73.352C1068.42 72.744 1069.07 71.976 1069.32 71.048ZM1075.99 77V60.2H1079.74V77H1075.99ZM1101.33 60.2V77H1097.59V70.616H1092.69L1087.08 77H1082.33L1088.52 70.568C1086.81 70.44 1085.45 69.968 1084.46 69.152C1083.49 68.32 1083 67.112 1083 65.528C1083 63.784 1083.6 62.464 1084.8 61.568C1086.01 60.656 1087.59 60.2 1089.53 60.2H1101.33ZM1089.72 67.784H1097.59V63.2H1089.72C1088.82 63.2 1088.1 63.408 1087.56 63.824C1087.01 64.224 1086.74 64.792 1086.74 65.528C1086.74 66.248 1087.01 66.808 1087.53 67.208C1088.08 67.592 1088.81 67.784 1089.72 67.784Z" fill="black"/>
<path d="M580.449 195.2H587.001L586.977 212H583.377V197.096L576.849 212H571.761L565.257 197.12V212H561.657V195.2H568.209L574.353 209.96L580.449 195.2ZM593.175 209.936C591.287 208.368 590.343 206.256 590.343 203.6C590.343 200.944 591.287 198.832 593.175 197.264C595.063 195.696 597.703 194.912 601.095 194.912C604.487 194.912 607.127 195.696 609.015 197.264C610.919 198.832 611.871 200.944 611.871 203.6C611.871 206.256 610.919 208.368 609.015 209.936C607.127 211.504 604.487 212.288 601.095 212.288C597.703 212.288 595.063 211.504 593.175 209.936ZM595.911 199.52C594.695 200.56 594.087 201.92 594.087 203.6C594.087 205.28 594.695 206.64 595.911 207.68C597.143 208.72 598.871 209.24 601.095 209.24C603.319 209.24 605.047 208.72 606.279 207.68C607.511 206.64 608.127 205.28 608.127 203.6C608.127 201.92 607.511 200.56 606.279 199.52C605.047 198.48 603.319 197.96 601.095 197.96C598.871 197.96 597.143 198.48 595.911 199.52ZM632.256 195.2V212H628.512V205.616H623.616L618 212H613.248L619.44 205.568C617.728 205.44 616.376 204.968 615.384 204.152C614.408 203.32 613.92 202.112 613.92 200.528C613.92 198.784 614.52 197.464 615.72 196.568C616.936 195.656 618.512 195.2 620.448 195.2H632.256ZM620.64 202.784H628.512V198.2H620.64C619.744 198.2 619.024 198.408 618.48 198.824C617.936 199.224 617.664 199.792 617.664 200.528C617.664 201.248 617.928 201.808 618.456 202.208C619 202.592 619.728 202.784 620.64 202.784ZM662.785 195.2H669.337L669.313 212H665.713V197.096L659.185 212H654.097L647.593 197.12V212H643.993V195.2H650.545L656.689 209.96L662.785 195.2ZM673.711 212V195.2H677.455V212H673.711ZM697.325 206.048L700.949 206.24C700.629 208.16 699.653 209.648 698.021 210.704C696.405 211.76 694.189 212.288 691.373 212.288C688.013 212.288 685.405 211.512 683.549 209.96C681.709 208.392 680.789 206.272 680.789 203.6C680.789 200.944 681.693 198.832 683.501 197.264C685.309 195.696 687.845 194.912 691.109 194.912C693.749 194.912 695.909 195.432 697.589 196.472C699.285 197.496 700.309 198.888 700.661 200.648L697.061 200.888C696.805 200.008 696.125 199.304 695.021 198.776C693.933 198.232 692.629 197.96 691.109 197.96C689.013 197.96 687.389 198.48 686.237 199.52C685.101 200.56 684.533 201.92 684.533 203.6C684.533 205.28 685.125 206.64 686.309 207.68C687.493 208.72 689.181 209.24 691.373 209.24C693.021 209.24 694.357 208.944 695.381 208.352C696.421 207.744 697.069 206.976 697.325 206.048ZM703.993 212V195.2H707.737V212H703.993ZM729.334 195.2V212H725.59V205.616H720.694L715.078 212H710.326L716.518 205.568C714.806 205.44 713.454 204.968 712.462 204.152C711.486 203.32 710.998 202.112 710.998 200.528C710.998 198.784 711.598 197.464 712.798 196.568C714.014 195.656 715.59 195.2 717.526 195.2H729.334ZM717.718 202.784H725.59V198.2H717.718C716.822 198.2 716.102 198.408 715.558 198.824C715.014 199.224 714.742 199.792 714.742 200.528C714.742 201.248 715.006 201.808 715.534 202.208C716.078 202.592 716.806 202.784 717.718 202.784Z" fill="black"/>
<path d="M677.449 240.2H684.001L683.977 257H680.377V242.096L673.849 257H668.761L662.257 242.12V257H658.657V240.2H665.209L671.353 254.96L677.449 240.2ZM690.175 254.936C688.287 253.368 687.343 251.256 687.343 248.6C687.343 245.944 688.287 243.832 690.175 242.264C692.063 240.696 694.703 239.912 698.095 239.912C701.487 239.912 704.127 240.696 706.015 242.264C707.919 243.832 708.871 245.944 708.871 248.6C708.871 251.256 707.919 253.368 706.015 254.936C704.127 256.504 701.487 257.288 698.095 257.288C694.703 257.288 692.063 256.504 690.175 254.936ZM692.911 244.52C691.695 245.56 691.087 246.92 691.087 248.6C691.087 250.28 691.695 251.64 692.911 252.68C694.143 253.72 695.871 254.24 698.095 254.24C700.319 254.24 702.047 253.72 703.279 252.68C704.511 251.64 705.127 250.28 705.127 248.6C705.127 246.92 704.511 245.56 703.279 244.52C702.047 243.48 700.319 242.96 698.095 242.96C695.871 242.96 694.143 243.48 692.911 244.52ZM729.256 240.2V257H725.512V250.616H720.616L715 257H710.248L716.44 250.568C714.728 250.44 713.376 249.968 712.384 249.152C711.408 248.32 710.92 247.112 710.92 245.528C710.92 243.784 711.52 242.464 712.72 241.568C713.936 240.656 715.512 240.2 717.448 240.2H729.256ZM717.64 247.784H725.512V243.2H717.64C716.744 243.2 716.024 243.408 715.48 243.824C714.936 244.224 714.664 244.792 714.664 245.528C714.664 246.248 714.928 246.808 715.456 247.208C716 247.592 716.728 247.784 717.64 247.784ZM759.785 240.2H766.337L766.313 257H762.713V242.096L756.185 257H751.097L744.593 242.12V257H740.993V240.2H747.545L753.689 254.96L759.785 240.2ZM770.711 257V240.2H774.455V257H770.711ZM794.325 251.048L797.949 251.24C797.629 253.16 796.653 254.648 795.021 255.704C793.405 256.76 791.189 257.288 788.373 257.288C785.013 257.288 782.405 256.512 780.549 254.96C778.709 253.392 777.789 251.272 777.789 248.6C777.789 245.944 778.693 243.832 780.501 242.264C782.309 240.696 784.845 239.912 788.109 239.912C790.749 239.912 792.909 240.432 794.589 241.472C796.285 242.496 797.309 243.888 797.661 245.648L794.061 245.888C793.805 245.008 793.125 244.304 792.021 243.776C790.933 243.232 789.629 242.96 788.109 242.96C786.013 242.96 784.389 243.48 783.237 244.52C782.101 245.56 781.533 246.92 781.533 248.6C781.533 250.28 782.125 251.64 783.309 252.68C784.493 253.72 786.181 254.24 788.373 254.24C790.021 254.24 791.357 253.944 792.381 253.352C793.421 252.744 794.069 251.976 794.325 251.048ZM800.993 257V240.2H804.737V257H800.993ZM826.334 240.2V257H822.59V250.616H817.694L812.078 257H807.326L813.518 250.568C811.806 250.44 810.454 249.968 809.462 249.152C808.486 248.32 807.998 247.112 807.998 245.528C807.998 243.784 808.598 242.464 809.798 241.568C811.014 240.656 812.59 240.2 814.526 240.2H826.334ZM814.718 247.784H822.59V243.2H814.718C813.822 243.2 813.102 243.408 812.558 243.824C812.014 244.224 811.742 244.792 811.742 245.528C811.742 246.248 812.006 246.808 812.534 247.208C813.078 247.592 813.806 247.784 814.718 247.784Z" fill="black"/>
<path d="M680.449 15.2H687.001L686.977 32H683.377V17.096L676.849 32H671.761L665.257 17.12V32H661.657V15.2H668.209L674.353 29.96L680.449 15.2ZM693.175 29.936C691.287 28.368 690.343 26.256 690.343 23.6C690.343 20.944 691.287 18.832 693.175 17.264C695.063 15.696 697.703 14.912 701.095 14.912C704.487 14.912 707.127 15.696 709.015 17.264C710.919 18.832 711.871 20.944 711.871 23.6C711.871 26.256 710.919 28.368 709.015 29.936C707.127 31.504 704.487 32.288 701.095 32.288C697.703 32.288 695.063 31.504 693.175 29.936ZM695.911 19.52C694.695 20.56 694.087 21.92 694.087 23.6C694.087 25.28 694.695 26.64 695.911 27.68C697.143 28.72 698.871 29.24 701.095 29.24C703.319 29.24 705.047 28.72 706.279 27.68C707.511 26.64 708.127 25.28 708.127 23.6C708.127 21.92 707.511 20.56 706.279 19.52C705.047 18.48 703.319 17.96 701.095 17.96C698.871 17.96 697.143 18.48 695.911 19.52ZM732.256 15.2V32H728.512V25.616H723.616L718 32H713.248L719.44 25.568C717.728 25.44 716.376 24.968 715.384 24.152C714.408 23.32 713.92 22.112 713.92 20.528C713.92 18.784 714.52 17.464 715.72 16.568C716.936 15.656 718.512 15.2 720.448 15.2H732.256ZM720.64 22.784H728.512V18.2H720.64C719.744 18.2 719.024 18.408 718.48 18.824C717.936 19.224 717.664 19.792 717.664 20.528C717.664 21.248 717.928 21.808 718.456 22.208C719 22.592 719.728 22.784 720.64 22.784ZM762.785 15.2H769.337L769.313 32H765.713V17.096L759.185 32H754.097L747.593 17.12V32H743.993V15.2H750.545L756.689 29.96L762.785 15.2ZM773.711 32V15.2H777.455V32H773.711ZM797.325 26.048L800.949 26.24C800.629 28.16 799.653 29.648 798.021 30.704C796.405 31.76 794.189 32.288 791.373 32.288C788.013 32.288 785.405 31.512 783.549 29.96C781.709 28.392 780.789 26.272 780.789 23.6C780.789 20.944 781.693 18.832 783.501 17.264C785.309 15.696 787.845 14.912 791.109 14.912C793.749 14.912 795.909 15.432 797.589 16.472C799.285 17.496 800.309 18.888 800.661 20.648L797.061 20.888C796.805 20.008 796.125 19.304 795.021 18.776C793.933 18.232 792.629 17.96 791.109 17.96C789.013 17.96 787.389 18.48 786.237 19.52C785.101 20.56 784.533 21.92 784.533 23.6C784.533 25.28 785.125 26.64 786.309 27.68C787.493 28.72 789.181 29.24 791.373 29.24C793.021 29.24 794.357 28.944 795.381 28.352C796.421 27.744 797.069 26.976 797.325 26.048ZM803.993 32V15.2H807.737V32H803.993ZM829.334 15.2V32H825.59V25.616H820.694L815.078 32H810.326L816.518 25.568C814.806 25.44 813.454 24.968 812.462 24.152C811.486 23.32 810.998 22.112 810.998 20.528C810.998 18.784 811.598 17.464 812.798 16.568C814.014 15.656 815.59 15.2 817.526 15.2H829.334ZM817.718 22.784H825.59V18.2H817.718C816.822 18.2 816.102 18.408 815.558 18.824C815.014 19.224 814.742 19.792 814.742 20.528C814.742 21.248 815.006 21.808 815.534 22.208C816.078 22.592 816.806 22.784 817.718 22.784Z" fill="black"/>
<path d="M1145.45 60.2H1152L1151.98 77H1148.38V62.096L1141.85 77H1136.76L1130.26 62.12V77H1126.66V60.2H1133.21L1139.35 74.96L1145.45 60.2ZM1158.18 74.936C1156.29 73.368 1155.34 71.256 1155.34 68.6C1155.34 65.944 1156.29 63.832 1158.18 62.264C1160.06 60.696 1162.7 59.912 1166.1 59.912C1169.49 59.912 1172.13 60.696 1174.02 62.264C1175.92 63.832 1176.87 65.944 1176.87 68.6C1176.87 71.256 1175.92 73.368 1174.02 74.936C1172.13 76.504 1169.49 77.288 1166.1 77.288C1162.7 77.288 1160.06 76.504 1158.18 74.936ZM1160.91 64.52C1159.7 65.56 1159.09 66.92 1159.09 68.6C1159.09 70.28 1159.7 71.64 1160.91 72.68C1162.14 73.72 1163.87 74.24 1166.1 74.24C1168.32 74.24 1170.05 73.72 1171.28 72.68C1172.51 71.64 1173.13 70.28 1173.13 68.6C1173.13 66.92 1172.51 65.56 1171.28 64.52C1170.05 63.48 1168.32 62.96 1166.1 62.96C1163.87 62.96 1162.14 63.48 1160.91 64.52ZM1197.26 60.2V77H1193.51V70.616H1188.62L1183 77H1178.25L1184.44 70.568C1182.73 70.44 1181.38 69.968 1180.38 69.152C1179.41 68.32 1178.92 67.112 1178.92 65.528C1178.92 63.784 1179.52 62.464 1180.72 61.568C1181.94 60.656 1183.51 60.2 1185.45 60.2H1197.26ZM1185.64 67.784H1193.51V63.2H1185.64C1184.74 63.2 1184.02 63.408 1183.48 63.824C1182.94 64.224 1182.66 64.792 1182.66 65.528C1182.66 66.248 1182.93 66.808 1183.46 67.208C1184 67.592 1184.73 67.784 1185.64 67.784ZM1227.78 60.2H1234.34L1234.31 77H1230.71V62.096L1224.18 77H1219.1L1212.59 62.12V77H1208.99V60.2H1215.54L1221.69 74.96L1227.78 60.2ZM1238.71 77V60.2H1242.46V77H1238.71ZM1262.32 71.048L1265.95 71.24C1265.63 73.16 1264.65 74.648 1263.02 75.704C1261.4 76.76 1259.19 77.288 1256.37 77.288C1253.01 77.288 1250.4 76.512 1248.55 74.96C1246.71 73.392 1245.79 71.272 1245.79 68.6C1245.79 65.944 1246.69 63.832 1248.5 62.264C1250.31 60.696 1252.84 59.912 1256.11 59.912C1258.75 59.912 1260.91 60.432 1262.59 61.472C1264.28 62.496 1265.31 63.888 1265.66 65.648L1262.06 65.888C1261.8 65.008 1261.12 64.304 1260.02 63.776C1258.93 63.232 1257.63 62.96 1256.11 62.96C1254.01 62.96 1252.39 63.48 1251.24 64.52C1250.1 65.56 1249.53 66.92 1249.53 68.6C1249.53 70.28 1250.12 71.64 1251.31 72.68C1252.49 73.72 1254.18 74.24 1256.37 74.24C1258.02 74.24 1259.36 73.944 1260.38 73.352C1261.42 72.744 1262.07 71.976 1262.32 71.048ZM1268.99 77V60.2H1272.74V77H1268.99ZM1294.33 60.2V77H1290.59V70.616H1285.69L1280.08 77H1275.33L1281.52 70.568C1279.81 70.44 1278.45 69.968 1277.46 69.152C1276.49 68.32 1276 67.112 1276 65.528C1276 63.784 1276.6 62.464 1277.8 61.568C1279.01 60.656 1280.59 60.2 1282.53 60.2H1294.33ZM1282.72 67.784H1290.59V63.2H1282.72C1281.82 63.2 1281.1 63.408 1280.56 63.824C1280.01 64.224 1279.74 64.792 1279.74 65.528C1279.74 66.248 1280.01 66.808 1280.53 67.208C1281.08 67.592 1281.81 67.784 1282.72 67.784Z" fill="black"/>
<path d="M773.449 195.2H780.001L779.977 212H776.377V197.096L769.849 212H764.761L758.257 197.12V212H754.657V195.2H761.209L767.353 209.96L773.449 195.2ZM786.175 209.936C784.287 208.368 783.343 206.256 783.343 203.6C783.343 200.944 784.287 198.832 786.175 197.264C788.063 195.696 790.703 194.912 794.095 194.912C797.487 194.912 800.127 195.696 802.015 197.264C803.919 198.832 804.871 200.944 804.871 203.6C804.871 206.256 803.919 208.368 802.015 209.936C800.127 211.504 797.487 212.288 794.095 212.288C790.703 212.288 788.063 211.504 786.175 209.936ZM788.911 199.52C787.695 200.56 787.087 201.92 787.087 203.6C787.087 205.28 787.695 206.64 788.911 207.68C790.143 208.72 791.871 209.24 794.095 209.24C796.319 209.24 798.047 208.72 799.279 207.68C800.511 206.64 801.127 205.28 801.127 203.6C801.127 201.92 800.511 200.56 799.279 199.52C798.047 198.48 796.319 197.96 794.095 197.96C791.871 197.96 790.143 198.48 788.911 199.52ZM825.256 195.2V212H821.512V205.616H816.616L811 212H806.248L812.44 205.568C810.728 205.44 809.376 204.968 808.384 204.152C807.408 203.32 806.92 202.112 806.92 200.528C806.92 198.784 807.52 197.464 808.72 196.568C809.936 195.656 811.512 195.2 813.448 195.2H825.256ZM813.64 202.784H821.512V198.2H813.64C812.744 198.2 812.024 198.408 811.48 198.824C810.936 199.224 810.664 199.792 810.664 200.528C810.664 201.248 810.928 201.808 811.456 202.208C812 202.592 812.728 202.784 813.64 202.784ZM855.785 195.2H862.337L862.313 212H858.713V197.096L852.185 212H847.097L840.593 197.12V212H836.993V195.2H843.545L849.689 209.96L855.785 195.2ZM866.711 212V195.2H870.455V212H866.711ZM890.325 206.048L893.949 206.24C893.629 208.16 892.653 209.648 891.021 210.704C889.405 211.76 887.189 212.288 884.373 212.288C881.013 212.288 878.405 211.512 876.549 209.96C874.709 208.392 873.789 206.272 873.789 203.6C873.789 200.944 874.693 198.832 876.501 197.264C878.309 195.696 880.845 194.912 884.109 194.912C886.749 194.912 888.909 195.432 890.589 196.472C892.285 197.496 893.309 198.888 893.661 200.648L890.061 200.888C889.805 200.008 889.125 199.304 888.021 198.776C886.933 198.232 885.629 197.96 884.109 197.96C882.013 197.96 880.389 198.48 879.237 199.52C878.101 200.56 877.533 201.92 877.533 203.6C877.533 205.28 878.125 206.64 879.309 207.68C880.493 208.72 882.181 209.24 884.373 209.24C886.021 209.24 887.357 208.944 888.381 208.352C889.421 207.744 890.069 206.976 890.325 206.048ZM896.993 212V195.2H900.737V212H896.993ZM922.334 195.2V212H918.59V205.616H913.694L908.078 212H903.326L909.518 205.568C907.806 205.44 906.454 204.968 905.462 204.152C904.486 203.32 903.998 202.112 903.998 200.528C903.998 198.784 904.598 197.464 905.798 196.568C907.014 195.656 908.59 195.2 910.526 195.2H922.334ZM910.718 202.784H918.59V198.2H910.718C909.822 198.2 909.102 198.408 908.558 198.824C908.014 199.224 907.742 199.792 907.742 200.528C907.742 201.248 908.006 201.808 908.534 202.208C909.078 202.592 909.806 202.784 910.718 202.784Z" fill="black"/>
<path d="M870.449 240.2H877.001L876.977 257H873.377V242.096L866.849 257H861.761L855.257 242.12V257H851.657V240.2H858.209L864.353 254.96L870.449 240.2ZM883.175 254.936C881.287 253.368 880.343 251.256 880.343 248.6C880.343 245.944 881.287 243.832 883.175 242.264C885.063 240.696 887.703 239.912 891.095 239.912C894.487 239.912 897.127 240.696 899.015 242.264C900.919 243.832 901.871 245.944 901.871 248.6C901.871 251.256 900.919 253.368 899.015 254.936C897.127 256.504 894.487 257.288 891.095 257.288C887.703 257.288 885.063 256.504 883.175 254.936ZM885.911 244.52C884.695 245.56 884.087 246.92 884.087 248.6C884.087 250.28 884.695 251.64 885.911 252.68C887.143 253.72 888.871 254.24 891.095 254.24C893.319 254.24 895.047 253.72 896.279 252.68C897.511 251.64 898.127 250.28 898.127 248.6C898.127 246.92 897.511 245.56 896.279 244.52C895.047 243.48 893.319 242.96 891.095 242.96C888.871 242.96 887.143 243.48 885.911 244.52ZM922.256 240.2V257H918.512V250.616H913.616L908 257H903.248L909.44 250.568C907.728 250.44 906.376 249.968 905.384 249.152C904.408 248.32 903.92 247.112 903.92 245.528C903.92 243.784 904.52 242.464 905.72 241.568C906.936 240.656 908.512 240.2 910.448 240.2H922.256ZM910.64 247.784H918.512V243.2H910.64C909.744 243.2 909.024 243.408 908.48 243.824C907.936 244.224 907.664 244.792 907.664 245.528C907.664 246.248 907.928 246.808 908.456 247.208C909 247.592 909.728 247.784 910.64 247.784ZM952.785 240.2H959.337L959.313 257H955.713V242.096L949.185 257H944.097L937.593 242.12V257H933.993V240.2H940.545L946.689 254.96L952.785 240.2ZM963.711 257V240.2H967.455V257H963.711ZM987.325 251.048L990.949 251.24C990.629 253.16 989.653 254.648 988.021 255.704C986.405 256.76 984.189 257.288 981.373 257.288C978.013 257.288 975.405 256.512 973.549 254.96C971.709 253.392 970.789 251.272 970.789 248.6C970.789 245.944 971.693 243.832 973.501 242.264C975.309 240.696 977.845 239.912 981.109 239.912C983.749 239.912 985.909 240.432 987.589 241.472C989.285 242.496 990.309 243.888 990.661 245.648L987.061 245.888C986.805 245.008 986.125 244.304 985.021 243.776C983.933 243.232 982.629 242.96 981.109 242.96C979.013 242.96 977.389 243.48 976.237 244.52C975.101 245.56 974.533 246.92 974.533 248.6C974.533 250.28 975.125 251.64 976.309 252.68C977.493 253.72 979.181 254.24 981.373 254.24C983.021 254.24 984.357 253.944 985.381 253.352C986.421 252.744 987.069 251.976 987.325 251.048ZM993.993 257V240.2H997.737V257H993.993ZM1019.33 240.2V257H1015.59V250.616H1010.69L1005.08 257H1000.33L1006.52 250.568C1004.81 250.44 1003.45 249.968 1002.46 249.152C1001.49 248.32 1001 247.112 1001 245.528C1001 243.784 1001.6 242.464 1002.8 241.568C1004.01 240.656 1005.59 240.2 1007.53 240.2H1019.33ZM1007.72 247.784H1015.59V243.2H1007.72C1006.82 243.2 1006.1 243.408 1005.56 243.824C1005.01 244.224 1004.74 244.792 1004.74 245.528C1004.74 246.248 1005.01 246.808 1005.53 247.208C1006.08 247.592 1006.81 247.784 1007.72 247.784Z" fill="black"/>
<path d="M873.449 15.2H880.001L879.977 32H876.377V17.096L869.849 32H864.761L858.257 17.12V32H854.657V15.2H861.209L867.353 29.96L873.449 15.2ZM886.175 29.936C884.287 28.368 883.343 26.256 883.343 23.6C883.343 20.944 884.287 18.832 886.175 17.264C888.063 15.696 890.703 14.912 894.095 14.912C897.487 14.912 900.127 15.696 902.015 17.264C903.919 18.832 904.871 20.944 904.871 23.6C904.871 26.256 903.919 28.368 902.015 29.936C900.127 31.504 897.487 32.288 894.095 32.288C890.703 32.288 888.063 31.504 886.175 29.936ZM888.911 19.52C887.695 20.56 887.087 21.92 887.087 23.6C887.087 25.28 887.695 26.64 888.911 27.68C890.143 28.72 891.871 29.24 894.095 29.24C896.319 29.24 898.047 28.72 899.279 27.68C900.511 26.64 901.127 25.28 901.127 23.6C901.127 21.92 900.511 20.56 899.279 19.52C898.047 18.48 896.319 17.96 894.095 17.96C891.871 17.96 890.143 18.48 888.911 19.52ZM925.256 15.2V32H921.512V25.616H916.616L911 32H906.248L912.44 25.568C910.728 25.44 909.376 24.968 908.384 24.152C907.408 23.32 906.92 22.112 906.92 20.528C906.92 18.784 907.52 17.464 908.72 16.568C909.936 15.656 911.512 15.2 913.448 15.2H925.256ZM913.64 22.784H921.512V18.2H913.64C912.744 18.2 912.024 18.408 911.48 18.824C910.936 19.224 910.664 19.792 910.664 20.528C910.664 21.248 910.928 21.808 911.456 22.208C912 22.592 912.728 22.784 913.64 22.784ZM955.785 15.2H962.337L962.313 32H958.713V17.096L952.185 32H947.097L940.593 17.12V32H936.993V15.2H943.545L949.689 29.96L955.785 15.2ZM966.711 32V15.2H970.455V32H966.711ZM990.325 26.048L993.949 26.24C993.629 28.16 992.653 29.648 991.021 30.704C989.405 31.76 987.189 32.288 984.373 32.288C981.013 32.288 978.405 31.512 976.549 29.96C974.709 28.392 973.789 26.272 973.789 23.6C973.789 20.944 974.693 18.832 976.501 17.264C978.309 15.696 980.845 14.912 984.109 14.912C986.749 14.912 988.909 15.432 990.589 16.472C992.285 17.496 993.309 18.888 993.661 20.648L990.061 20.888C989.805 20.008 989.125 19.304 988.021 18.776C986.933 18.232 985.629 17.96 984.109 17.96C982.013 17.96 980.389 18.48 979.237 19.52C978.101 20.56 977.533 21.92 977.533 23.6C977.533 25.28 978.125 26.64 979.309 27.68C980.493 28.72 982.181 29.24 984.373 29.24C986.021 29.24 987.357 28.944 988.381 28.352C989.421 27.744 990.069 26.976 990.325 26.048ZM996.993 32V15.2H1000.74V32H996.993ZM1022.33 15.2V32H1018.59V25.616H1013.69L1008.08 32H1003.33L1009.52 25.568C1007.81 25.44 1006.45 24.968 1005.46 24.152C1004.49 23.32 1004 22.112 1004 20.528C1004 18.784 1004.6 17.464 1005.8 16.568C1007.01 15.656 1008.59 15.2 1010.53 15.2H1022.33ZM1010.72 22.784H1018.59V18.2H1010.72C1009.82 18.2 1009.1 18.408 1008.56 18.824C1008.01 19.224 1007.74 19.792 1007.74 20.528C1007.74 21.248 1008.01 21.808 1008.53 22.208C1009.08 22.592 1009.81 22.784 1010.72 22.784Z" fill="black"/>
<path d="M1338.45 60.2H1345L1344.98 77H1341.38V62.096L1334.85 77H1329.76L1323.26 62.12V77H1319.66V60.2H1326.21L1332.35 74.96L1338.45 60.2ZM1351.18 74.936C1349.29 73.368 1348.34 71.256 1348.34 68.6C1348.34 65.944 1349.29 63.832 1351.18 62.264C1353.06 60.696 1355.7 59.912 1359.1 59.912C1362.49 59.912 1365.13 60.696 1367.02 62.264C1368.92 63.832 1369.87 65.944 1369.87 68.6C1369.87 71.256 1368.92 73.368 1367.02 74.936C1365.13 76.504 1362.49 77.288 1359.1 77.288C1355.7 77.288 1353.06 76.504 1351.18 74.936ZM1353.91 64.52C1352.7 65.56 1352.09 66.92 1352.09 68.6C1352.09 70.28 1352.7 71.64 1353.91 72.68C1355.14 73.72 1356.87 74.24 1359.1 74.24C1361.32 74.24 1363.05 73.72 1364.28 72.68C1365.51 71.64 1366.13 70.28 1366.13 68.6C1366.13 66.92 1365.51 65.56 1364.28 64.52C1363.05 63.48 1361.32 62.96 1359.1 62.96C1356.87 62.96 1355.14 63.48 1353.91 64.52ZM1390.26 60.2V77H1386.51V70.616H1381.62L1376 77H1371.25L1377.44 70.568C1375.73 70.44 1374.38 69.968 1373.38 69.152C1372.41 68.32 1371.92 67.112 1371.92 65.528C1371.92 63.784 1372.52 62.464 1373.72 61.568C1374.94 60.656 1376.51 60.2 1378.45 60.2H1390.26ZM1378.64 67.784H1386.51V63.2H1378.64C1377.74 63.2 1377.02 63.408 1376.48 63.824C1375.94 64.224 1375.66 64.792 1375.66 65.528C1375.66 66.248 1375.93 66.808 1376.46 67.208C1377 67.592 1377.73 67.784 1378.64 67.784ZM1420.78 60.2H1427.34L1427.31 77H1423.71V62.096L1417.18 77H1412.1L1405.59 62.12V77H1401.99V60.2H1408.54L1414.69 74.96L1420.78 60.2ZM1431.71 77V60.2H1435.46V77H1431.71ZM1455.32 71.048L1458.95 71.24C1458.63 73.16 1457.65 74.648 1456.02 75.704C1454.4 76.76 1452.19 77.288 1449.37 77.288C1446.01 77.288 1443.4 76.512 1441.55 74.96C1439.71 73.392 1438.79 71.272 1438.79 68.6C1438.79 65.944 1439.69 63.832 1441.5 62.264C1443.31 60.696 1445.84 59.912 1449.11 59.912C1451.75 59.912 1453.91 60.432 1455.59 61.472C1457.28 62.496 1458.31 63.888 1458.66 65.648L1455.06 65.888C1454.8 65.008 1454.12 64.304 1453.02 63.776C1451.93 63.232 1450.63 62.96 1449.11 62.96C1447.01 62.96 1445.39 63.48 1444.24 64.52C1443.1 65.56 1442.53 66.92 1442.53 68.6C1442.53 70.28 1443.12 71.64 1444.31 72.68C1445.49 73.72 1447.18 74.24 1449.37 74.24C1451.02 74.24 1452.36 73.944 1453.38 73.352C1454.42 72.744 1455.07 71.976 1455.32 71.048ZM1461.99 77V60.2H1465.74V77H1461.99ZM1487.33 60.2V77H1483.59V70.616H1478.69L1473.08 77H1468.33L1474.52 70.568C1472.81 70.44 1471.45 69.968 1470.46 69.152C1469.49 68.32 1469 67.112 1469 65.528C1469 63.784 1469.6 62.464 1470.8 61.568C1472.01 60.656 1473.59 60.2 1475.53 60.2H1487.33ZM1475.72 67.784H1483.59V63.2H1475.72C1474.82 63.2 1474.1 63.408 1473.56 63.824C1473.01 64.224 1472.74 64.792 1472.74 65.528C1472.74 66.248 1473.01 66.808 1473.53 67.208C1474.08 67.592 1474.81 67.784 1475.72 67.784Z" fill="black"/>
<path d="M966.449 195.2H973.001L972.977 212H969.377V197.096L962.849 212H957.761L951.257 197.12V212H947.657V195.2H954.209L960.353 209.96L966.449 195.2ZM979.175 209.936C977.287 208.368 976.343 206.256 976.343 203.6C976.343 200.944 977.287 198.832 979.175 197.264C981.063 195.696 983.703 194.912 987.095 194.912C990.487 194.912 993.127 195.696 995.015 197.264C996.919 198.832 997.871 200.944 997.871 203.6C997.871 206.256 996.919 208.368 995.015 209.936C993.127 211.504 990.487 212.288 987.095 212.288C983.703 212.288 981.063 211.504 979.175 209.936ZM981.911 199.52C980.695 200.56 980.087 201.92 980.087 203.6C980.087 205.28 980.695 206.64 981.911 207.68C983.143 208.72 984.871 209.24 987.095 209.24C989.319 209.24 991.047 208.72 992.279 207.68C993.511 206.64 994.127 205.28 994.127 203.6C994.127 201.92 993.511 200.56 992.279 199.52C991.047 198.48 989.319 197.96 987.095 197.96C984.871 197.96 983.143 198.48 981.911 199.52ZM1018.26 195.2V212H1014.51V205.616H1009.62L1004 212H999.248L1005.44 205.568C1003.73 205.44 1002.38 204.968 1001.38 204.152C1000.41 203.32 999.92 202.112 999.92 200.528C999.92 198.784 1000.52 197.464 1001.72 196.568C1002.94 195.656 1004.51 195.2 1006.45 195.2H1018.26ZM1006.64 202.784H1014.51V198.2H1006.64C1005.74 198.2 1005.02 198.408 1004.48 198.824C1003.94 199.224 1003.66 199.792 1003.66 200.528C1003.66 201.248 1003.93 201.808 1004.46 202.208C1005 202.592 1005.73 202.784 1006.64 202.784ZM1048.78 195.2H1055.34L1055.31 212H1051.71V197.096L1045.18 212H1040.1L1033.59 197.12V212H1029.99V195.2H1036.54L1042.69 209.96L1048.78 195.2ZM1059.71 212V195.2H1063.46V212H1059.71ZM1083.32 206.048L1086.95 206.24C1086.63 208.16 1085.65 209.648 1084.02 210.704C1082.4 211.76 1080.19 212.288 1077.37 212.288C1074.01 212.288 1071.4 211.512 1069.55 209.96C1067.71 208.392 1066.79 206.272 1066.79 203.6C1066.79 200.944 1067.69 198.832 1069.5 197.264C1071.31 195.696 1073.84 194.912 1077.11 194.912C1079.75 194.912 1081.91 195.432 1083.59 196.472C1085.28 197.496 1086.31 198.888 1086.66 200.648L1083.06 200.888C1082.8 200.008 1082.12 199.304 1081.02 198.776C1079.93 198.232 1078.63 197.96 1077.11 197.96C1075.01 197.96 1073.39 198.48 1072.24 199.52C1071.1 200.56 1070.53 201.92 1070.53 203.6C1070.53 205.28 1071.12 206.64 1072.31 207.68C1073.49 208.72 1075.18 209.24 1077.37 209.24C1079.02 209.24 1080.36 208.944 1081.38 208.352C1082.42 207.744 1083.07 206.976 1083.32 206.048ZM1089.99 212V195.2H1093.74V212H1089.99ZM1115.33 195.2V212H1111.59V205.616H1106.69L1101.08 212H1096.33L1102.52 205.568C1100.81 205.44 1099.45 204.968 1098.46 204.152C1097.49 203.32 1097 202.112 1097 200.528C1097 198.784 1097.6 197.464 1098.8 196.568C1100.01 195.656 1101.59 195.2 1103.53 195.2H1115.33ZM1103.72 202.784H1111.59V198.2H1103.72C1102.82 198.2 1102.1 198.408 1101.56 198.824C1101.01 199.224 1100.74 199.792 1100.74 200.528C1100.74 201.248 1101.01 201.808 1101.53 202.208C1102.08 202.592 1102.81 202.784 1103.72 202.784Z" fill="black"/>
<path d="M1165.45 195.2H1172L1171.98 212H1168.38V197.096L1161.85 212H1156.76L1150.26 197.12V212H1146.66V195.2H1153.21L1159.35 209.96L1165.45 195.2ZM1178.18 209.936C1176.29 208.368 1175.34 206.256 1175.34 203.6C1175.34 200.944 1176.29 198.832 1178.18 197.264C1180.06 195.696 1182.7 194.912 1186.1 194.912C1189.49 194.912 1192.13 195.696 1194.02 197.264C1195.92 198.832 1196.87 200.944 1196.87 203.6C1196.87 206.256 1195.92 208.368 1194.02 209.936C1192.13 211.504 1189.49 212.288 1186.1 212.288C1182.7 212.288 1180.06 211.504 1178.18 209.936ZM1180.91 199.52C1179.7 200.56 1179.09 201.92 1179.09 203.6C1179.09 205.28 1179.7 206.64 1180.91 207.68C1182.14 208.72 1183.87 209.24 1186.1 209.24C1188.32 209.24 1190.05 208.72 1191.28 207.68C1192.51 206.64 1193.13 205.28 1193.13 203.6C1193.13 201.92 1192.51 200.56 1191.28 199.52C1190.05 198.48 1188.32 197.96 1186.1 197.96C1183.87 197.96 1182.14 198.48 1180.91 199.52ZM1217.26 195.2V212H1213.51V205.616H1208.62L1203 212H1198.25L1204.44 205.568C1202.73 205.44 1201.38 204.968 1200.38 204.152C1199.41 203.32 1198.92 202.112 1198.92 200.528C1198.92 198.784 1199.52 197.464 1200.72 196.568C1201.94 195.656 1203.51 195.2 1205.45 195.2H1217.26ZM1205.64 202.784H1213.51V198.2H1205.64C1204.74 198.2 1204.02 198.408 1203.48 198.824C1202.94 199.224 1202.66 199.792 1202.66 200.528C1202.66 201.248 1202.93 201.808 1203.46 202.208C1204 202.592 1204.73 202.784 1205.64 202.784ZM1247.78 195.2H1254.34L1254.31 212H1250.71V197.096L1244.18 212H1239.1L1232.59 197.12V212H1228.99V195.2H1235.54L1241.69 209.96L1247.78 195.2ZM1258.71 212V195.2H1262.46V212H1258.71ZM1282.32 206.048L1285.95 206.24C1285.63 208.16 1284.65 209.648 1283.02 210.704C1281.4 211.76 1279.19 212.288 1276.37 212.288C1273.01 212.288 1270.4 211.512 1268.55 209.96C1266.71 208.392 1265.79 206.272 1265.79 203.6C1265.79 200.944 1266.69 198.832 1268.5 197.264C1270.31 195.696 1272.84 194.912 1276.11 194.912C1278.75 194.912 1280.91 195.432 1282.59 196.472C1284.28 197.496 1285.31 198.888 1285.66 200.648L1282.06 200.888C1281.8 200.008 1281.12 199.304 1280.02 198.776C1278.93 198.232 1277.63 197.96 1276.11 197.96C1274.01 197.96 1272.39 198.48 1271.24 199.52C1270.1 200.56 1269.53 201.92 1269.53 203.6C1269.53 205.28 1270.12 206.64 1271.31 207.68C1272.49 208.72 1274.18 209.24 1276.37 209.24C1278.02 209.24 1279.36 208.944 1280.38 208.352C1281.42 207.744 1282.07 206.976 1282.32 206.048ZM1288.99 212V195.2H1292.74V212H1288.99ZM1314.33 195.2V212H1310.59V205.616H1305.69L1300.08 212H1295.33L1301.52 205.568C1299.81 205.44 1298.45 204.968 1297.46 204.152C1296.49 203.32 1296 202.112 1296 200.528C1296 198.784 1296.6 197.464 1297.8 196.568C1299.01 195.656 1300.59 195.2 1302.53 195.2H1314.33ZM1302.72 202.784H1310.59V198.2H1302.72C1301.82 198.2 1301.1 198.408 1300.56 198.824C1300.01 199.224 1299.74 199.792 1299.74 200.528C1299.74 201.248 1300.01 201.808 1300.53 202.208C1301.08 202.592 1301.81 202.784 1302.72 202.784Z" fill="black"/>
<path d="M1348.45 105.2H1355L1354.98 122H1351.38V107.096L1344.85 122H1339.76L1333.26 107.12V122H1329.66V105.2H1336.21L1342.35 119.96L1348.45 105.2ZM1361.18 119.936C1359.29 118.368 1358.34 116.256 1358.34 113.6C1358.34 110.944 1359.29 108.832 1361.18 107.264C1363.06 105.696 1365.7 104.912 1369.1 104.912C1372.49 104.912 1375.13 105.696 1377.02 107.264C1378.92 108.832 1379.87 110.944 1379.87 113.6C1379.87 116.256 1378.92 118.368 1377.02 119.936C1375.13 121.504 1372.49 122.288 1369.1 122.288C1365.7 122.288 1363.06 121.504 1361.18 119.936ZM1363.91 109.52C1362.7 110.56 1362.09 111.92 1362.09 113.6C1362.09 115.28 1362.7 116.64 1363.91 117.68C1365.14 118.72 1366.87 119.24 1369.1 119.24C1371.32 119.24 1373.05 118.72 1374.28 117.68C1375.51 116.64 1376.13 115.28 1376.13 113.6C1376.13 111.92 1375.51 110.56 1374.28 109.52C1373.05 108.48 1371.32 107.96 1369.1 107.96C1366.87 107.96 1365.14 108.48 1363.91 109.52ZM1400.26 105.2V122H1396.51V115.616H1391.62L1386 122H1381.25L1387.44 115.568C1385.73 115.44 1384.38 114.968 1383.38 114.152C1382.41 113.32 1381.92 112.112 1381.92 110.528C1381.92 108.784 1382.52 107.464 1383.72 106.568C1384.94 105.656 1386.51 105.2 1388.45 105.2H1400.26ZM1388.64 112.784H1396.51V108.2H1388.64C1387.74 108.2 1387.02 108.408 1386.48 108.824C1385.94 109.224 1385.66 109.792 1385.66 110.528C1385.66 111.248 1385.93 111.808 1386.46 112.208C1387 112.592 1387.73 112.784 1388.64 112.784ZM1430.78 105.2H1437.34L1437.31 122H1433.71V107.096L1427.18 122H1422.1L1415.59 107.12V122H1411.99V105.2H1418.54L1424.69 119.96L1430.78 105.2ZM1441.71 122V105.2H1445.46V122H1441.71ZM1465.32 116.048L1468.95 116.24C1468.63 118.16 1467.65 119.648 1466.02 120.704C1464.4 121.76 1462.19 122.288 1459.37 122.288C1456.01 122.288 1453.4 121.512 1451.55 119.96C1449.71 118.392 1448.79 116.272 1448.79 113.6C1448.79 110.944 1449.69 108.832 1451.5 107.264C1453.31 105.696 1455.84 104.912 1459.11 104.912C1461.75 104.912 1463.91 105.432 1465.59 106.472C1467.28 107.496 1468.31 108.888 1468.66 110.648L1465.06 110.888C1464.8 110.008 1464.12 109.304 1463.02 108.776C1461.93 108.232 1460.63 107.96 1459.11 107.96C1457.01 107.96 1455.39 108.48 1454.24 109.52C1453.1 110.56 1452.53 111.92 1452.53 113.6C1452.53 115.28 1453.12 116.64 1454.31 117.68C1455.49 118.72 1457.18 119.24 1459.37 119.24C1461.02 119.24 1462.36 118.944 1463.38 118.352C1464.42 117.744 1465.07 116.976 1465.32 116.048ZM1471.99 122V105.2H1475.74V122H1471.99ZM1497.33 105.2V122H1493.59V115.616H1488.69L1483.08 122H1478.33L1484.52 115.568C1482.81 115.44 1481.45 114.968 1480.46 114.152C1479.49 113.32 1479 112.112 1479 110.528C1479 108.784 1479.6 107.464 1480.8 106.568C1482.01 105.656 1483.59 105.2 1485.53 105.2H1497.33ZM1485.72 112.784H1493.59V108.2H1485.72C1484.82 108.2 1484.1 108.408 1483.56 108.824C1483.01 109.224 1482.74 109.792 1482.74 110.528C1482.74 111.248 1483.01 111.808 1483.53 112.208C1484.08 112.592 1484.81 112.784 1485.72 112.784Z" fill="black"/>
<path d="M1318.45 150.2H1325L1324.98 167H1321.38V152.096L1314.85 167H1309.76L1303.26 152.12V167H1299.66V150.2H1306.21L1312.35 164.96L1318.45 150.2ZM1331.18 164.936C1329.29 163.368 1328.34 161.256 1328.34 158.6C1328.34 155.944 1329.29 153.832 1331.18 152.264C1333.06 150.696 1335.7 149.912 1339.1 149.912C1342.49 149.912 1345.13 150.696 1347.02 152.264C1348.92 153.832 1349.87 155.944 1349.87 158.6C1349.87 161.256 1348.92 163.368 1347.02 164.936C1345.13 166.504 1342.49 167.288 1339.1 167.288C1335.7 167.288 1333.06 166.504 1331.18 164.936ZM1333.91 154.52C1332.7 155.56 1332.09 156.92 1332.09 158.6C1332.09 160.28 1332.7 161.64 1333.91 162.68C1335.14 163.72 1336.87 164.24 1339.1 164.24C1341.32 164.24 1343.05 163.72 1344.28 162.68C1345.51 161.64 1346.13 160.28 1346.13 158.6C1346.13 156.92 1345.51 155.56 1344.28 154.52C1343.05 153.48 1341.32 152.96 1339.1 152.96C1336.87 152.96 1335.14 153.48 1333.91 154.52ZM1370.26 150.2V167H1366.51V160.616H1361.62L1356 167H1351.25L1357.44 160.568C1355.73 160.44 1354.38 159.968 1353.38 159.152C1352.41 158.32 1351.92 157.112 1351.92 155.528C1351.92 153.784 1352.52 152.464 1353.72 151.568C1354.94 150.656 1356.51 150.2 1358.45 150.2H1370.26ZM1358.64 157.784H1366.51V153.2H1358.64C1357.74 153.2 1357.02 153.408 1356.48 153.824C1355.94 154.224 1355.66 154.792 1355.66 155.528C1355.66 156.248 1355.93 156.808 1356.46 157.208C1357 157.592 1357.73 157.784 1358.64 157.784ZM1400.78 150.2H1407.34L1407.31 167H1403.71V152.096L1397.18 167H1392.1L1385.59 152.12V167H1381.99V150.2H1388.54L1394.69 164.96L1400.78 150.2ZM1411.71 167V150.2H1415.46V167H1411.71ZM1435.32 161.048L1438.95 161.24C1438.63 163.16 1437.65 164.648 1436.02 165.704C1434.4 166.76 1432.19 167.288 1429.37 167.288C1426.01 167.288 1423.4 166.512 1421.55 164.96C1419.71 163.392 1418.79 161.272 1418.79 158.6C1418.79 155.944 1419.69 153.832 1421.5 152.264C1423.31 150.696 1425.84 149.912 1429.11 149.912C1431.75 149.912 1433.91 150.432 1435.59 151.472C1437.28 152.496 1438.31 153.888 1438.66 155.648L1435.06 155.888C1434.8 155.008 1434.12 154.304 1433.02 153.776C1431.93 153.232 1430.63 152.96 1429.11 152.96C1427.01 152.96 1425.39 153.48 1424.24 154.52C1423.1 155.56 1422.53 156.92 1422.53 158.6C1422.53 160.28 1423.12 161.64 1424.31 162.68C1425.49 163.72 1427.18 164.24 1429.37 164.24C1431.02 164.24 1432.36 163.944 1433.38 163.352C1434.42 162.744 1435.07 161.976 1435.32 161.048ZM1441.99 167V150.2H1445.74V167H1441.99ZM1467.33 150.2V167H1463.59V160.616H1458.69L1453.08 167H1448.33L1454.52 160.568C1452.81 160.44 1451.45 159.968 1450.46 159.152C1449.49 158.32 1449 157.112 1449 155.528C1449 153.784 1449.6 152.464 1450.8 151.568C1452.01 150.656 1453.59 150.2 1455.53 150.2H1467.33ZM1455.72 157.784H1463.59V153.2H1455.72C1454.82 153.2 1454.1 153.408 1453.56 153.824C1453.01 154.224 1452.74 154.792 1452.74 155.528C1452.74 156.248 1453.01 156.808 1453.53 157.208C1454.08 157.592 1454.81 157.784 1455.72 157.784Z" fill="black"/>
<path d="M1364.45 195.2H1371L1370.98 212H1367.38V197.096L1360.85 212H1355.76L1349.26 197.12V212H1345.66V195.2H1352.21L1358.35 209.96L1364.45 195.2ZM1377.18 209.936C1375.29 208.368 1374.34 206.256 1374.34 203.6C1374.34 200.944 1375.29 198.832 1377.18 197.264C1379.06 195.696 1381.7 194.912 1385.1 194.912C1388.49 194.912 1391.13 195.696 1393.02 197.264C1394.92 198.832 1395.87 200.944 1395.87 203.6C1395.87 206.256 1394.92 208.368 1393.02 209.936C1391.13 211.504 1388.49 212.288 1385.1 212.288C1381.7 212.288 1379.06 211.504 1377.18 209.936ZM1379.91 199.52C1378.7 200.56 1378.09 201.92 1378.09 203.6C1378.09 205.28 1378.7 206.64 1379.91 207.68C1381.14 208.72 1382.87 209.24 1385.1 209.24C1387.32 209.24 1389.05 208.72 1390.28 207.68C1391.51 206.64 1392.13 205.28 1392.13 203.6C1392.13 201.92 1391.51 200.56 1390.28 199.52C1389.05 198.48 1387.32 197.96 1385.1 197.96C1382.87 197.96 1381.14 198.48 1379.91 199.52ZM1416.26 195.2V212H1412.51V205.616H1407.62L1402 212H1397.25L1403.44 205.568C1401.73 205.44 1400.38 204.968 1399.38 204.152C1398.41 203.32 1397.92 202.112 1397.92 200.528C1397.92 198.784 1398.52 197.464 1399.72 196.568C1400.94 195.656 1402.51 195.2 1404.45 195.2H1416.26ZM1404.64 202.784H1412.51V198.2H1404.64C1403.74 198.2 1403.02 198.408 1402.48 198.824C1401.94 199.224 1401.66 199.792 1401.66 200.528C1401.66 201.248 1401.93 201.808 1402.46 202.208C1403 202.592 1403.73 202.784 1404.64 202.784ZM1446.78 195.2H1453.34L1453.31 212H1449.71V197.096L1443.18 212H1438.1L1431.59 197.12V212H1427.99V195.2H1434.54L1440.69 209.96L1446.78 195.2ZM1457.71 212V195.2H1461.46V212H1457.71ZM1481.32 206.048L1484.95 206.24C1484.63 208.16 1483.65 209.648 1482.02 210.704C1480.4 211.76 1478.19 212.288 1475.37 212.288C1472.01 212.288 1469.4 211.512 1467.55 209.96C1465.71 208.392 1464.79 206.272 1464.79 203.6C1464.79 200.944 1465.69 198.832 1467.5 197.264C1469.31 195.696 1471.84 194.912 1475.11 194.912C1477.75 194.912 1479.91 195.432 1481.59 196.472C1483.28 197.496 1484.31 198.888 1484.66 200.648L1481.06 200.888C1480.8 200.008 1480.12 199.304 1479.02 198.776C1477.93 198.232 1476.63 197.96 1475.11 197.96C1473.01 197.96 1471.39 198.48 1470.24 199.52C1469.1 200.56 1468.53 201.92 1468.53 203.6C1468.53 205.28 1469.12 206.64 1470.31 207.68C1471.49 208.72 1473.18 209.24 1475.37 209.24C1477.02 209.24 1478.36 208.944 1479.38 208.352C1480.42 207.744 1481.07 206.976 1481.32 206.048ZM1487.99 212V195.2H1491.74V212H1487.99ZM1513.33 195.2V212H1509.59V205.616H1504.69L1499.08 212H1494.33L1500.52 205.568C1498.81 205.44 1497.45 204.968 1496.46 204.152C1495.49 203.32 1495 202.112 1495 200.528C1495 198.784 1495.6 197.464 1496.8 196.568C1498.01 195.656 1499.59 195.2 1501.53 195.2H1513.33ZM1501.72 202.784H1509.59V198.2H1501.72C1500.82 198.2 1500.1 198.408 1499.56 198.824C1499.01 199.224 1498.74 199.792 1498.74 200.528C1498.74 201.248 1499.01 201.808 1499.53 202.208C1500.08 202.592 1500.81 202.784 1501.72 202.784Z" fill="black"/>
<path d="M1063.45 240.2H1070L1069.98 257H1066.38V242.096L1059.85 257H1054.76L1048.26 242.12V257H1044.66V240.2H1051.21L1057.35 254.96L1063.45 240.2ZM1076.18 254.936C1074.29 253.368 1073.34 251.256 1073.34 248.6C1073.34 245.944 1074.29 243.832 1076.18 242.264C1078.06 240.696 1080.7 239.912 1084.1 239.912C1087.49 239.912 1090.13 240.696 1092.02 242.264C1093.92 243.832 1094.87 245.944 1094.87 248.6C1094.87 251.256 1093.92 253.368 1092.02 254.936C1090.13 256.504 1087.49 257.288 1084.1 257.288C1080.7 257.288 1078.06 256.504 1076.18 254.936ZM1078.91 244.52C1077.7 245.56 1077.09 246.92 1077.09 248.6C1077.09 250.28 1077.7 251.64 1078.91 252.68C1080.14 253.72 1081.87 254.24 1084.1 254.24C1086.32 254.24 1088.05 253.72 1089.28 252.68C1090.51 251.64 1091.13 250.28 1091.13 248.6C1091.13 246.92 1090.51 245.56 1089.28 244.52C1088.05 243.48 1086.32 242.96 1084.1 242.96C1081.87 242.96 1080.14 243.48 1078.91 244.52ZM1115.26 240.2V257H1111.51V250.616H1106.62L1101 257H1096.25L1102.44 250.568C1100.73 250.44 1099.38 249.968 1098.38 249.152C1097.41 248.32 1096.92 247.112 1096.92 245.528C1096.92 243.784 1097.52 242.464 1098.72 241.568C1099.94 240.656 1101.51 240.2 1103.45 240.2H1115.26ZM1103.64 247.784H1111.51V243.2H1103.64C1102.74 243.2 1102.02 243.408 1101.48 243.824C1100.94 244.224 1100.66 244.792 1100.66 245.528C1100.66 246.248 1100.93 246.808 1101.46 247.208C1102 247.592 1102.73 247.784 1103.64 247.784ZM1145.78 240.2H1152.34L1152.31 257H1148.71V242.096L1142.18 257H1137.1L1130.59 242.12V257H1126.99V240.2H1133.54L1139.69 254.96L1145.78 240.2ZM1156.71 257V240.2H1160.46V257H1156.71ZM1180.32 251.048L1183.95 251.24C1183.63 253.16 1182.65 254.648 1181.02 255.704C1179.4 256.76 1177.19 257.288 1174.37 257.288C1171.01 257.288 1168.4 256.512 1166.55 254.96C1164.71 253.392 1163.79 251.272 1163.79 248.6C1163.79 245.944 1164.69 243.832 1166.5 242.264C1168.31 240.696 1170.84 239.912 1174.11 239.912C1176.75 239.912 1178.91 240.432 1180.59 241.472C1182.28 242.496 1183.31 243.888 1183.66 245.648L1180.06 245.888C1179.8 245.008 1179.12 244.304 1178.02 243.776C1176.93 243.232 1175.63 242.96 1174.11 242.96C1172.01 242.96 1170.39 243.48 1169.24 244.52C1168.1 245.56 1167.53 246.92 1167.53 248.6C1167.53 250.28 1168.12 251.64 1169.31 252.68C1170.49 253.72 1172.18 254.24 1174.37 254.24C1176.02 254.24 1177.36 253.944 1178.38 253.352C1179.42 252.744 1180.07 251.976 1180.32 251.048ZM1186.99 257V240.2H1190.74V257H1186.99ZM1212.33 240.2V257H1208.59V250.616H1203.69L1198.08 257H1193.33L1199.52 250.568C1197.81 250.44 1196.45 249.968 1195.46 249.152C1194.49 248.32 1194 247.112 1194 245.528C1194 243.784 1194.6 242.464 1195.8 241.568C1197.01 240.656 1198.59 240.2 1200.53 240.2H1212.33ZM1200.72 247.784H1208.59V243.2H1200.72C1199.82 243.2 1199.1 243.408 1198.56 243.824C1198.01 244.224 1197.74 244.792 1197.74 245.528C1197.74 246.248 1198.01 246.808 1198.53 247.208C1199.08 247.592 1199.81 247.784 1200.72 247.784Z" fill="black"/>
<path d="M1066.45 15.2H1073L1072.98 32H1069.38V17.096L1062.85 32H1057.76L1051.26 17.12V32H1047.66V15.2H1054.21L1060.35 29.96L1066.45 15.2ZM1079.18 29.936C1077.29 28.368 1076.34 26.256 1076.34 23.6C1076.34 20.944 1077.29 18.832 1079.18 17.264C1081.06 15.696 1083.7 14.912 1087.1 14.912C1090.49 14.912 1093.13 15.696 1095.02 17.264C1096.92 18.832 1097.87 20.944 1097.87 23.6C1097.87 26.256 1096.92 28.368 1095.02 29.936C1093.13 31.504 1090.49 32.288 1087.1 32.288C1083.7 32.288 1081.06 31.504 1079.18 29.936ZM1081.91 19.52C1080.7 20.56 1080.09 21.92 1080.09 23.6C1080.09 25.28 1080.7 26.64 1081.91 27.68C1083.14 28.72 1084.87 29.24 1087.1 29.24C1089.32 29.24 1091.05 28.72 1092.28 27.68C1093.51 26.64 1094.13 25.28 1094.13 23.6C1094.13 21.92 1093.51 20.56 1092.28 19.52C1091.05 18.48 1089.32 17.96 1087.1 17.96C1084.87 17.96 1083.14 18.48 1081.91 19.52ZM1118.26 15.2V32H1114.51V25.616H1109.62L1104 32H1099.25L1105.44 25.568C1103.73 25.44 1102.38 24.968 1101.38 24.152C1100.41 23.32 1099.92 22.112 1099.92 20.528C1099.92 18.784 1100.52 17.464 1101.72 16.568C1102.94 15.656 1104.51 15.2 1106.45 15.2H1118.26ZM1106.64 22.784H1114.51V18.2H1106.64C1105.74 18.2 1105.02 18.408 1104.48 18.824C1103.94 19.224 1103.66 19.792 1103.66 20.528C1103.66 21.248 1103.93 21.808 1104.46 22.208C1105 22.592 1105.73 22.784 1106.64 22.784ZM1148.78 15.2H1155.34L1155.31 32H1151.71V17.096L1145.18 32H1140.1L1133.59 17.12V32H1129.99V15.2H1136.54L1142.69 29.96L1148.78 15.2ZM1159.71 32V15.2H1163.46V32H1159.71ZM1183.32 26.048L1186.95 26.24C1186.63 28.16 1185.65 29.648 1184.02 30.704C1182.4 31.76 1180.19 32.288 1177.37 32.288C1174.01 32.288 1171.4 31.512 1169.55 29.96C1167.71 28.392 1166.79 26.272 1166.79 23.6C1166.79 20.944 1167.69 18.832 1169.5 17.264C1171.31 15.696 1173.84 14.912 1177.11 14.912C1179.75 14.912 1181.91 15.432 1183.59 16.472C1185.28 17.496 1186.31 18.888 1186.66 20.648L1183.06 20.888C1182.8 20.008 1182.12 19.304 1181.02 18.776C1179.93 18.232 1178.63 17.96 1177.11 17.96C1175.01 17.96 1173.39 18.48 1172.24 19.52C1171.1 20.56 1170.53 21.92 1170.53 23.6C1170.53 25.28 1171.12 26.64 1172.31 27.68C1173.49 28.72 1175.18 29.24 1177.37 29.24C1179.02 29.24 1180.36 28.944 1181.38 28.352C1182.42 27.744 1183.07 26.976 1183.32 26.048ZM1189.99 32V15.2H1193.74V32H1189.99ZM1215.33 15.2V32H1211.59V25.616H1206.69L1201.08 32H1196.33L1202.52 25.568C1200.81 25.44 1199.45 24.968 1198.46 24.152C1197.49 23.32 1197 22.112 1197 20.528C1197 18.784 1197.6 17.464 1198.8 16.568C1200.01 15.656 1201.59 15.2 1203.53 15.2H1215.33ZM1203.72 22.784H1211.59V18.2H1203.72C1202.82 18.2 1202.1 18.408 1201.56 18.824C1201.01 19.224 1200.74 19.792 1200.74 20.528C1200.74 21.248 1201.01 21.808 1201.53 22.208C1202.08 22.592 1202.81 22.784 1203.72 22.784Z" fill="black"/>
<path d="M1267.45 240.2H1274L1273.98 257H1270.38V242.096L1263.85 257H1258.76L1252.26 242.12V257H1248.66V240.2H1255.21L1261.35 254.96L1267.45 240.2ZM1280.18 254.936C1278.29 253.368 1277.34 251.256 1277.34 248.6C1277.34 245.944 1278.29 243.832 1280.18 242.264C1282.06 240.696 1284.7 239.912 1288.1 239.912C1291.49 239.912 1294.13 240.696 1296.02 242.264C1297.92 243.832 1298.87 245.944 1298.87 248.6C1298.87 251.256 1297.92 253.368 1296.02 254.936C1294.13 256.504 1291.49 257.288 1288.1 257.288C1284.7 257.288 1282.06 256.504 1280.18 254.936ZM1282.91 244.52C1281.7 245.56 1281.09 246.92 1281.09 248.6C1281.09 250.28 1281.7 251.64 1282.91 252.68C1284.14 253.72 1285.87 254.24 1288.1 254.24C1290.32 254.24 1292.05 253.72 1293.28 252.68C1294.51 251.64 1295.13 250.28 1295.13 248.6C1295.13 246.92 1294.51 245.56 1293.28 244.52C1292.05 243.48 1290.32 242.96 1288.1 242.96C1285.87 242.96 1284.14 243.48 1282.91 244.52ZM1319.26 240.2V257H1315.51V250.616H1310.62L1305 257H1300.25L1306.44 250.568C1304.73 250.44 1303.38 249.968 1302.38 249.152C1301.41 248.32 1300.92 247.112 1300.92 245.528C1300.92 243.784 1301.52 242.464 1302.72 241.568C1303.94 240.656 1305.51 240.2 1307.45 240.2H1319.26ZM1307.64 247.784H1315.51V243.2H1307.64C1306.74 243.2 1306.02 243.408 1305.48 243.824C1304.94 244.224 1304.66 244.792 1304.66 245.528C1304.66 246.248 1304.93 246.808 1305.46 247.208C1306 247.592 1306.73 247.784 1307.64 247.784ZM1349.78 240.2H1356.34L1356.31 257H1352.71V242.096L1346.18 257H1341.1L1334.59 242.12V257H1330.99V240.2H1337.54L1343.69 254.96L1349.78 240.2ZM1360.71 257V240.2H1364.46V257H1360.71ZM1384.32 251.048L1387.95 251.24C1387.63 253.16 1386.65 254.648 1385.02 255.704C1383.4 256.76 1381.19 257.288 1378.37 257.288C1375.01 257.288 1372.4 256.512 1370.55 254.96C1368.71 253.392 1367.79 251.272 1367.79 248.6C1367.79 245.944 1368.69 243.832 1370.5 242.264C1372.31 240.696 1374.84 239.912 1378.11 239.912C1380.75 239.912 1382.91 240.432 1384.59 241.472C1386.28 242.496 1387.31 243.888 1387.66 245.648L1384.06 245.888C1383.8 245.008 1383.12 244.304 1382.02 243.776C1380.93 243.232 1379.63 242.96 1378.11 242.96C1376.01 242.96 1374.39 243.48 1373.24 244.52C1372.1 245.56 1371.53 246.92 1371.53 248.6C1371.53 250.28 1372.12 251.64 1373.31 252.68C1374.49 253.72 1376.18 254.24 1378.37 254.24C1380.02 254.24 1381.36 253.944 1382.38 253.352C1383.42 252.744 1384.07 251.976 1384.32 251.048ZM1390.99 257V240.2H1394.74V257H1390.99ZM1416.33 240.2V257H1412.59V250.616H1407.69L1402.08 257H1397.33L1403.52 250.568C1401.81 250.44 1400.45 249.968 1399.46 249.152C1398.49 248.32 1398 247.112 1398 245.528C1398 243.784 1398.6 242.464 1399.8 241.568C1401.01 240.656 1402.59 240.2 1404.53 240.2H1416.33ZM1404.72 247.784H1412.59V243.2H1404.72C1403.82 243.2 1403.1 243.408 1402.56 243.824C1402.01 244.224 1401.74 244.792 1401.74 245.528C1401.74 246.248 1402.01 246.808 1402.53 247.208C1403.08 247.592 1403.81 247.784 1404.72 247.784Z" fill="black"/>
<path d="M1270.45 15.2H1277L1276.98 32H1273.38V17.096L1266.85 32H1261.76L1255.26 17.12V32H1251.66V15.2H1258.21L1264.35 29.96L1270.45 15.2ZM1283.18 29.936C1281.29 28.368 1280.34 26.256 1280.34 23.6C1280.34 20.944 1281.29 18.832 1283.18 17.264C1285.06 15.696 1287.7 14.912 1291.1 14.912C1294.49 14.912 1297.13 15.696 1299.02 17.264C1300.92 18.832 1301.87 20.944 1301.87 23.6C1301.87 26.256 1300.92 28.368 1299.02 29.936C1297.13 31.504 1294.49 32.288 1291.1 32.288C1287.7 32.288 1285.06 31.504 1283.18 29.936ZM1285.91 19.52C1284.7 20.56 1284.09 21.92 1284.09 23.6C1284.09 25.28 1284.7 26.64 1285.91 27.68C1287.14 28.72 1288.87 29.24 1291.1 29.24C1293.32 29.24 1295.05 28.72 1296.28 27.68C1297.51 26.64 1298.13 25.28 1298.13 23.6C1298.13 21.92 1297.51 20.56 1296.28 19.52C1295.05 18.48 1293.32 17.96 1291.1 17.96C1288.87 17.96 1287.14 18.48 1285.91 19.52ZM1322.26 15.2V32H1318.51V25.616H1313.62L1308 32H1303.25L1309.44 25.568C1307.73 25.44 1306.38 24.968 1305.38 24.152C1304.41 23.32 1303.92 22.112 1303.92 20.528C1303.92 18.784 1304.52 17.464 1305.72 16.568C1306.94 15.656 1308.51 15.2 1310.45 15.2H1322.26ZM1310.64 22.784H1318.51V18.2H1310.64C1309.74 18.2 1309.02 18.408 1308.48 18.824C1307.94 19.224 1307.66 19.792 1307.66 20.528C1307.66 21.248 1307.93 21.808 1308.46 22.208C1309 22.592 1309.73 22.784 1310.64 22.784ZM1352.78 15.2H1359.34L1359.31 32H1355.71V17.096L1349.18 32H1344.1L1337.59 17.12V32H1333.99V15.2H1340.54L1346.69 29.96L1352.78 15.2ZM1363.71 32V15.2H1367.46V32H1363.71ZM1387.32 26.048L1390.95 26.24C1390.63 28.16 1389.65 29.648 1388.02 30.704C1386.4 31.76 1384.19 32.288 1381.37 32.288C1378.01 32.288 1375.4 31.512 1373.55 29.96C1371.71 28.392 1370.79 26.272 1370.79 23.6C1370.79 20.944 1371.69 18.832 1373.5 17.264C1375.31 15.696 1377.84 14.912 1381.11 14.912C1383.75 14.912 1385.91 15.432 1387.59 16.472C1389.28 17.496 1390.31 18.888 1390.66 20.648L1387.06 20.888C1386.8 20.008 1386.12 19.304 1385.02 18.776C1383.93 18.232 1382.63 17.96 1381.11 17.96C1379.01 17.96 1377.39 18.48 1376.24 19.52C1375.1 20.56 1374.53 21.92 1374.53 23.6C1374.53 25.28 1375.12 26.64 1376.31 27.68C1377.49 28.72 1379.18 29.24 1381.37 29.24C1383.02 29.24 1384.36 28.944 1385.38 28.352C1386.42 27.744 1387.07 26.976 1387.32 26.048ZM1393.99 32V15.2H1397.74V32H1393.99ZM1419.33 15.2V32H1415.59V25.616H1410.69L1405.08 32H1400.33L1406.52 25.568C1404.81 25.44 1403.45 24.968 1402.46 24.152C1401.49 23.32 1401 22.112 1401 20.528C1401 18.784 1401.6 17.464 1402.8 16.568C1404.01 15.656 1405.59 15.2 1407.53 15.2H1419.33ZM1407.72 22.784H1415.59V18.2H1407.72C1406.82 18.2 1406.1 18.408 1405.56 18.824C1405.01 19.224 1404.74 19.792 1404.74 20.528C1404.74 21.248 1405.01 21.808 1405.53 22.208C1406.08 22.592 1406.81 22.784 1407.72 22.784Z" fill="black"/>
<path d="M14.4487 147.2H21.0007L20.9767 164H17.3767V149.096L10.8487 164H5.76066L-0.743343 149.12V164H-4.34334V147.2H2.20866L8.35266 161.96L14.4487 147.2ZM27.1754 161.936C25.2874 160.368 24.3434 158.256 24.3434 155.6C24.3434 152.944 25.2874 150.832 27.1754 149.264C29.0634 147.696 31.7034 146.912 35.0954 146.912C38.4874 146.912 41.1274 147.696 43.0154 149.264C44.9194 150.832 45.8714 152.944 45.8714 155.6C45.8714 158.256 44.9194 160.368 43.0154 161.936C41.1274 163.504 38.4874 164.288 35.0954 164.288C31.7034 164.288 29.0634 163.504 27.1754 161.936ZM29.9114 151.52C28.6954 152.56 28.0874 153.92 28.0874 155.6C28.0874 157.28 28.6954 158.64 29.9114 159.68C31.1434 160.72 32.8714 161.24 35.0954 161.24C37.3194 161.24 39.0474 160.72 40.2794 159.68C41.5114 158.64 42.1274 157.28 42.1274 155.6C42.1274 153.92 41.5114 152.56 40.2794 151.52C39.0474 150.48 37.3194 149.96 35.0954 149.96C32.8714 149.96 31.1434 150.48 29.9114 151.52ZM66.2558 147.2V164H62.5118V157.616H57.6158L51.9998 164H47.2478L53.4398 157.568C51.7278 157.44 50.3758 156.968 49.3838 156.152C48.4078 155.32 47.9198 154.112 47.9198 152.528C47.9198 150.784 48.5198 149.464 49.7198 148.568C50.9358 147.656 52.5118 147.2 54.4478 147.2H66.2558ZM54.6398 154.784H62.5118V150.2H54.6398C53.7438 150.2 53.0238 150.408 52.4798 150.824C51.9358 151.224 51.6638 151.792 51.6638 152.528C51.6638 153.248 51.9278 153.808 52.4558 154.208C52.9998 154.592 53.7278 154.784 54.6398 154.784ZM96.7846 147.2H103.337L103.313 164H99.7126V149.096L93.1846 164H88.0966L81.5926 149.12V164H77.9926V147.2H84.5446L90.6886 161.96L96.7846 147.2ZM107.711 164V147.2H111.455V164H107.711ZM131.325 158.048L134.949 158.24C134.629 160.16 133.653 161.648 132.021 162.704C130.405 163.76 128.189 164.288 125.373 164.288C122.013 164.288 119.405 163.512 117.549 161.96C115.709 160.392 114.789 158.272 114.789 155.6C114.789 152.944 115.693 150.832 117.501 149.264C119.309 147.696 121.845 146.912 125.109 146.912C127.749 146.912 129.909 147.432 131.589 148.472C133.285 149.496 134.309 150.888 134.661 152.648L131.061 152.888C130.805 152.008 130.125 151.304 129.021 150.776C127.933 150.232 126.629 149.96 125.109 149.96C123.013 149.96 121.389 150.48 120.237 151.52C119.101 152.56 118.533 153.92 118.533 155.6C118.533 157.28 119.125 158.64 120.309 159.68C121.493 160.72 123.181 161.24 125.373 161.24C127.021 161.24 128.357 160.944 129.381 160.352C130.421 159.744 131.069 158.976 131.325 158.048ZM137.993 164V147.2H141.737V164H137.993ZM163.334 147.2V164H159.59V157.616H154.694L149.078 164H144.326L150.518 157.568C148.806 157.44 147.454 156.968 146.462 156.152C145.486 155.32 144.998 154.112 144.998 152.528C144.998 150.784 145.598 149.464 146.798 148.568C148.014 147.656 149.59 147.2 151.526 147.2H163.334ZM151.718 154.784H159.59V150.2H151.718C150.822 150.2 150.102 150.408 149.558 150.824C149.014 151.224 148.742 151.792 148.742 152.528C148.742 153.248 149.006 153.808 149.534 154.208C150.078 154.592 150.806 154.784 151.718 154.784Z" fill="black"/>
<path d="M-17.5513 105.2H-10.9993L-11.0233 122H-14.6233V107.096L-21.1513 122H-26.2393L-32.7433 107.12V122H-36.3433V105.2H-29.7913L-23.6473 119.96L-17.5513 105.2ZM-4.82459 119.936C-6.71259 118.368 -7.65659 116.256 -7.65659 113.6C-7.65659 110.944 -6.71259 108.832 -4.82459 107.264C-2.93659 105.696 -0.296593 104.912 3.09541 104.912C6.48741 104.912 9.12741 105.696 11.0154 107.264C12.9194 108.832 13.8714 110.944 13.8714 113.6C13.8714 116.256 12.9194 118.368 11.0154 119.936C9.12741 121.504 6.48741 122.288 3.09541 122.288C-0.296593 122.288 -2.93659 121.504 -4.82459 119.936ZM-2.08859 109.52C-3.30459 110.56 -3.91259 111.92 -3.91259 113.6C-3.91259 115.28 -3.30459 116.64 -2.08859 117.68C-0.856593 118.72 0.871407 119.24 3.09541 119.24C5.31941 119.24 7.04741 118.72 8.27941 117.68C9.51141 116.64 10.1274 115.28 10.1274 113.6C10.1274 111.92 9.51141 110.56 8.27941 109.52C7.04741 108.48 5.31941 107.96 3.09541 107.96C0.871407 107.96 -0.856593 108.48 -2.08859 109.52ZM34.2558 105.2V122H30.5118V115.616H25.6158L19.9998 122H15.2478L21.4398 115.568C19.7278 115.44 18.3758 114.968 17.3838 114.152C16.4078 113.32 15.9198 112.112 15.9198 110.528C15.9198 108.784 16.5198 107.464 17.7198 106.568C18.9358 105.656 20.5118 105.2 22.4478 105.2H34.2558ZM22.6398 112.784H30.5118V108.2H22.6398C21.7438 108.2 21.0238 108.408 20.4798 108.824C19.9358 109.224 19.6638 109.792 19.6638 110.528C19.6638 111.248 19.9278 111.808 20.4558 112.208C20.9998 112.592 21.7278 112.784 22.6398 112.784ZM64.7846 105.2H71.3366L71.3126 122H67.7126V107.096L61.1846 122H56.0966L49.5926 107.12V122H45.9926V105.2H52.5446L58.6886 119.96L64.7846 105.2ZM75.7113 122V105.2H79.4553V122H75.7113ZM99.3247 116.048L102.949 116.24C102.629 118.16 101.653 119.648 100.021 120.704C98.4047 121.76 96.1887 122.288 93.3727 122.288C90.0127 122.288 87.4047 121.512 85.5487 119.96C83.7087 118.392 82.7887 116.272 82.7887 113.6C82.7887 110.944 83.6927 108.832 85.5007 107.264C87.3087 105.696 89.8447 104.912 93.1087 104.912C95.7487 104.912 97.9087 105.432 99.5887 106.472C101.285 107.496 102.309 108.888 102.661 110.648L99.0607 110.888C98.8047 110.008 98.1247 109.304 97.0207 108.776C95.9327 108.232 94.6287 107.96 93.1087 107.96C91.0127 107.96 89.3887 108.48 88.2367 109.52C87.1007 110.56 86.5327 111.92 86.5327 113.6C86.5327 115.28 87.1247 116.64 88.3087 117.68C89.4927 118.72 91.1807 119.24 93.3727 119.24C95.0207 119.24 96.3567 118.944 97.3807 118.352C98.4207 117.744 99.0687 116.976 99.3247 116.048ZM105.993 122V105.2H109.737V122H105.993ZM131.334 105.2V122H127.59V115.616H122.694L117.078 122H112.326L118.518 115.568C116.806 115.44 115.454 114.968 114.462 114.152C113.486 113.32 112.998 112.112 112.998 110.528C112.998 108.784 113.598 107.464 114.798 106.568C116.014 105.656 117.59 105.2 119.526 105.2H131.334ZM119.718 112.784H127.59V108.2H119.718C118.822 108.2 118.102 108.408 117.558 108.824C117.014 109.224 116.742 109.792 116.742 110.528C116.742 111.248 117.006 111.808 117.534 112.208C118.078 112.592 118.806 112.784 119.718 112.784Z" fill="black"/>
<path d="M-17.5513 60.2H-10.9993L-11.0233 77H-14.6233V62.096L-21.1513 77H-26.2393L-32.7433 62.12V77H-36.3433V60.2H-29.7913L-23.6473 74.96L-17.5513 60.2ZM-4.82459 74.936C-6.71259 73.368 -7.65659 71.256 -7.65659 68.6C-7.65659 65.944 -6.71259 63.832 -4.82459 62.264C-2.93659 60.696 -0.296593 59.912 3.09541 59.912C6.48741 59.912 9.12741 60.696 11.0154 62.264C12.9194 63.832 13.8714 65.944 13.8714 68.6C13.8714 71.256 12.9194 73.368 11.0154 74.936C9.12741 76.504 6.48741 77.288 3.09541 77.288C-0.296593 77.288 -2.93659 76.504 -4.82459 74.936ZM-2.08859 64.52C-3.30459 65.56 -3.91259 66.92 -3.91259 68.6C-3.91259 70.28 -3.30459 71.64 -2.08859 72.68C-0.856593 73.72 0.871407 74.24 3.09541 74.24C5.31941 74.24 7.04741 73.72 8.27941 72.68C9.51141 71.64 10.1274 70.28 10.1274 68.6C10.1274 66.92 9.51141 65.56 8.27941 64.52C7.04741 63.48 5.31941 62.96 3.09541 62.96C0.871407 62.96 -0.856593 63.48 -2.08859 64.52ZM34.2558 60.2V77H30.5118V70.616H25.6158L19.9998 77H15.2478L21.4398 70.568C19.7278 70.44 18.3758 69.968 17.3838 69.152C16.4078 68.32 15.9198 67.112 15.9198 65.528C15.9198 63.784 16.5198 62.464 17.7198 61.568C18.9358 60.656 20.5118 60.2 22.4478 60.2H34.2558ZM22.6398 67.784H30.5118V63.2H22.6398C21.7438 63.2 21.0238 63.408 20.4798 63.824C19.9358 64.224 19.6638 64.792 19.6638 65.528C19.6638 66.248 19.9278 66.808 20.4558 67.208C20.9998 67.592 21.7278 67.784 22.6398 67.784ZM64.7846 60.2H71.3366L71.3126 77H67.7126V62.096L61.1846 77H56.0966L49.5926 62.12V77H45.9926V60.2H52.5446L58.6886 74.96L64.7846 60.2ZM75.7113 77V60.2H79.4553V77H75.7113ZM99.3247 71.048L102.949 71.24C102.629 73.16 101.653 74.648 100.021 75.704C98.4047 76.76 96.1887 77.288 93.3727 77.288C90.0127 77.288 87.4047 76.512 85.5487 74.96C83.7087 73.392 82.7887 71.272 82.7887 68.6C82.7887 65.944 83.6927 63.832 85.5007 62.264C87.3087 60.696 89.8447 59.912 93.1087 59.912C95.7487 59.912 97.9087 60.432 99.5887 61.472C101.285 62.496 102.309 63.888 102.661 65.648L99.0607 65.888C98.8047 65.008 98.1247 64.304 97.0207 63.776C95.9327 63.232 94.6287 62.96 93.1087 62.96C91.0127 62.96 89.3887 63.48 88.2367 64.52C87.1007 65.56 86.5327 66.92 86.5327 68.6C86.5327 70.28 87.1247 71.64 88.3087 72.68C89.4927 73.72 91.1807 74.24 93.3727 74.24C95.0207 74.24 96.3567 73.944 97.3807 73.352C98.4207 72.744 99.0687 71.976 99.3247 71.048ZM105.993 77V60.2H109.737V77H105.993ZM131.334 60.2V77H127.59V70.616H122.694L117.078 77H112.326L118.518 70.568C116.806 70.44 115.454 69.968 114.462 69.152C113.486 68.32 112.998 67.112 112.998 65.528C112.998 63.784 113.598 62.464 114.798 61.568C116.014 60.656 117.59 60.2 119.526 60.2H131.334ZM119.718 67.784H127.59V63.2H119.718C118.822 63.2 118.102 63.408 117.558 63.824C117.014 64.224 116.742 64.792 116.742 65.528C116.742 66.248 117.006 66.808 117.534 67.208C118.078 67.592 118.806 67.784 119.718 67.784Z" fill="black"/>
</svg>
