<svg width="1440" height="199" viewBox="0 0 1440 199" fill="none" xmlns="http://www.w3.org/2000/svg">
<path d="M697.976 48.2H704.528L704.504 65H700.904V50.096L694.376 65H689.288L682.784 50.12V65H679.184V48.2H685.736L691.88 62.96L697.976 48.2ZM710.703 62.936C708.815 61.368 707.871 59.256 707.871 56.6C707.871 53.944 708.815 51.832 710.703 50.264C712.591 48.696 715.231 47.912 718.623 47.912C722.015 47.912 724.655 48.696 726.543 50.264C728.447 51.832 729.399 53.944 729.399 56.6C729.399 59.256 728.447 61.368 726.543 62.936C724.655 64.504 722.015 65.288 718.623 65.288C715.231 65.288 712.591 64.504 710.703 62.936ZM713.439 52.52C712.223 53.56 711.615 54.92 711.615 56.6C711.615 58.28 712.223 59.64 713.439 60.68C714.671 61.72 716.399 62.24 718.623 62.24C720.847 62.24 722.575 61.72 723.807 60.68C725.039 59.64 725.655 58.28 725.655 56.6C725.655 54.92 725.039 53.56 723.807 52.52C722.575 51.48 720.847 50.96 718.623 50.96C716.399 50.96 714.671 51.48 713.439 52.52ZM749.783 48.2V65H746.039V58.616H741.143L735.527 65H730.775L736.967 58.568C735.255 58.44 733.903 57.968 732.911 57.152C731.935 56.32 731.447 55.112 731.447 53.528C731.447 51.784 732.047 50.464 733.247 49.568C734.463 48.656 736.039 48.2 737.975 48.2H749.783ZM738.167 55.784H746.039V51.2H738.167C737.271 51.2 736.551 51.408 736.007 51.824C735.463 52.224 735.191 52.792 735.191 53.528C735.191 54.248 735.455 54.808 735.983 55.208C736.527 55.592 737.255 55.784 738.167 55.784ZM780.168 48.2V65H776.424V51.272H765.264V65H761.52V48.2H780.168ZM795.792 48.2C797.728 48.2 799.296 48.656 800.496 49.568C801.712 50.48 802.32 51.824 802.32 53.6C802.32 55.392 801.728 56.72 800.544 57.584C799.376 58.432 797.792 58.856 795.792 58.856H788.28V65H784.536V48.2H788.28H795.792ZM795.6 55.952C796.528 55.952 797.256 55.752 797.784 55.352C798.312 54.952 798.576 54.368 798.576 53.6C798.576 52.832 798.312 52.256 797.784 51.872C797.256 51.472 796.528 51.272 795.6 51.272H788.28V55.952H795.6ZM819.096 48.2H824.856V65H821.208V50.672L811.272 65H805.512V48.2H809.16V62.528L819.096 48.2ZM844.735 59.048L848.359 59.24C848.039 61.16 847.063 62.648 845.431 63.704C843.815 64.76 841.599 65.288 838.783 65.288C835.423 65.288 832.815 64.512 830.959 62.96C829.119 61.392 828.199 59.272 828.199 56.6C828.199 53.944 829.103 51.832 830.911 50.264C832.719 48.696 835.255 47.912 838.519 47.912C841.159 47.912 843.319 48.432 844.999 49.472C846.695 50.496 847.719 51.888 848.071 53.648L844.471 53.888C844.215 53.008 843.535 52.304 842.431 51.776C841.343 51.232 840.039 50.96 838.519 50.96C836.423 50.96 834.799 51.48 833.647 52.52C832.511 53.56 831.943 54.92 831.943 56.6C831.943 58.28 832.535 59.64 833.719 60.68C834.903 61.72 836.591 62.24 838.783 62.24C840.431 62.24 841.767 61.944 842.791 61.352C843.831 60.744 844.479 59.976 844.735 59.048ZM849.491 51.272V48.2H867.851V51.272H860.555V65H856.811V51.272H849.491ZM881.924 48.2C883.86 48.2 885.428 48.656 886.628 49.568C887.844 50.48 888.452 51.824 888.452 53.6C888.452 55.392 887.86 56.72 886.676 57.584C885.508 58.432 883.924 58.856 881.924 58.856H874.412V65H870.668V48.2H874.412H881.924ZM881.732 55.952C882.66 55.952 883.388 55.752 883.916 55.352C884.444 54.952 884.708 54.368 884.708 53.6C884.708 52.832 884.444 52.256 883.916 51.872C883.388 51.472 882.66 51.272 881.732 51.272H874.412V55.952H881.732ZM905.333 65L903.581 61.232H892.973L891.221 65H887.501L895.469 48.2H901.205L909.173 65H905.333ZM894.269 58.424H902.285L898.277 49.784L894.269 58.424ZM926.227 59.048L929.851 59.24C929.531 61.16 928.555 62.648 926.923 63.704C925.307 64.76 923.091 65.288 920.275 65.288C916.915 65.288 914.307 64.512 912.451 62.96C910.611 61.392 909.691 59.272 909.691 56.6C909.691 53.944 910.595 51.832 912.403 50.264C914.211 48.696 916.747 47.912 920.011 47.912C922.651 47.912 924.811 48.432 926.491 49.472C928.187 50.496 929.211 51.888 929.563 53.648L925.963 53.888C925.707 53.008 925.027 52.304 923.923 51.776C922.835 51.232 921.531 50.96 920.011 50.96C917.915 50.96 916.291 51.48 915.139 52.52C914.003 53.56 913.435 54.92 913.435 56.6C913.435 58.28 914.027 59.64 915.211 60.68C916.395 61.72 918.083 62.24 920.275 62.24C921.923 62.24 923.259 61.944 924.283 61.352C925.323 60.744 925.971 59.976 926.227 59.048ZM930.983 51.272V48.2H949.343V51.272H942.047V65H938.303V51.272H930.983ZM963.201 54.392C965.169 54.392 966.745 54.84 967.929 55.736C969.113 56.616 969.705 57.944 969.705 59.72C969.705 61.496 969.113 62.824 967.929 63.704C966.761 64.568 965.185 65 963.201 65H953.697H952.161V48.2H955.905V54.392H963.201ZM963.009 61.928C963.921 61.928 964.641 61.736 965.169 61.352C965.697 60.968 965.961 60.4 965.961 59.648C965.961 58.896 965.697 58.328 965.169 57.944C964.641 57.56 963.921 57.368 963.009 57.368H955.905V61.928H963.009Z" fill="black"/>
<path d="M53.976 48.2H60.528L60.504 65H56.904V50.096L50.376 65H45.288L38.784 50.12V65H35.184V48.2H41.736L47.88 62.96L53.976 48.2ZM66.7028 62.936C64.8148 61.368 63.8708 59.256 63.8708 56.6C63.8708 53.944 64.8148 51.832 66.7028 50.264C68.5908 48.696 71.2308 47.912 74.6228 47.912C78.0148 47.912 80.6548 48.696 82.5428 50.264C84.4468 51.832 85.3988 53.944 85.3988 56.6C85.3988 59.256 84.4468 61.368 82.5428 62.936C80.6548 64.504 78.0148 65.288 74.6228 65.288C71.2308 65.288 68.5908 64.504 66.7028 62.936ZM69.4388 52.52C68.2228 53.56 67.6148 54.92 67.6148 56.6C67.6148 58.28 68.2228 59.64 69.4388 60.68C70.6708 61.72 72.3988 62.24 74.6228 62.24C76.8468 62.24 78.5748 61.72 79.8068 60.68C81.0388 59.64 81.6548 58.28 81.6548 56.6C81.6548 54.92 81.0388 53.56 79.8068 52.52C78.5748 51.48 76.8468 50.96 74.6228 50.96C72.3988 50.96 70.6708 51.48 69.4388 52.52ZM105.783 48.2V65H102.039V58.616H97.1432L91.5272 65H86.7752L92.9672 58.568C91.2552 58.44 89.9032 57.968 88.9112 57.152C87.9352 56.32 87.4472 55.112 87.4472 53.528C87.4472 51.784 88.0472 50.464 89.2472 49.568C90.4632 48.656 92.0392 48.2 93.9752 48.2H105.783ZM94.1672 55.784H102.039V51.2H94.1672C93.2712 51.2 92.5512 51.408 92.0072 51.824C91.4632 52.224 91.1912 52.792 91.1912 53.528C91.1912 54.248 91.4552 54.808 91.9832 55.208C92.5272 55.592 93.2552 55.784 94.1672 55.784ZM136.168 48.2V65H132.424V51.272H121.264V65H117.52V48.2H136.168ZM151.792 48.2C153.728 48.2 155.296 48.656 156.496 49.568C157.712 50.48 158.32 51.824 158.32 53.6C158.32 55.392 157.728 56.72 156.544 57.584C155.376 58.432 153.792 58.856 151.792 58.856H144.28V65H140.536V48.2H144.28H151.792ZM151.6 55.952C152.528 55.952 153.256 55.752 153.784 55.352C154.312 54.952 154.576 54.368 154.576 53.6C154.576 52.832 154.312 52.256 153.784 51.872C153.256 51.472 152.528 51.272 151.6 51.272H144.28V55.952H151.6ZM175.096 48.2H180.856V65H177.208V50.672L167.272 65H161.512V48.2H165.16V62.528L175.096 48.2ZM200.735 59.048L204.359 59.24C204.039 61.16 203.063 62.648 201.431 63.704C199.815 64.76 197.599 65.288 194.783 65.288C191.423 65.288 188.815 64.512 186.959 62.96C185.119 61.392 184.199 59.272 184.199 56.6C184.199 53.944 185.103 51.832 186.911 50.264C188.719 48.696 191.255 47.912 194.519 47.912C197.159 47.912 199.319 48.432 200.999 49.472C202.695 50.496 203.719 51.888 204.071 53.648L200.471 53.888C200.215 53.008 199.535 52.304 198.431 51.776C197.343 51.232 196.039 50.96 194.519 50.96C192.423 50.96 190.799 51.48 189.647 52.52C188.511 53.56 187.943 54.92 187.943 56.6C187.943 58.28 188.535 59.64 189.719 60.68C190.903 61.72 192.591 62.24 194.783 62.24C196.431 62.24 197.767 61.944 198.791 61.352C199.831 60.744 200.479 59.976 200.735 59.048ZM205.491 51.272V48.2H223.851V51.272H216.555V65H212.811V51.272H205.491ZM237.924 48.2C239.86 48.2 241.428 48.656 242.628 49.568C243.844 50.48 244.452 51.824 244.452 53.6C244.452 55.392 243.86 56.72 242.676 57.584C241.508 58.432 239.924 58.856 237.924 58.856H230.412V65H226.668V48.2H230.412H237.924ZM237.732 55.952C238.66 55.952 239.388 55.752 239.916 55.352C240.444 54.952 240.708 54.368 240.708 53.6C240.708 52.832 240.444 52.256 239.916 51.872C239.388 51.472 238.66 51.272 237.732 51.272H230.412V55.952H237.732ZM261.333 65L259.581 61.232H248.973L247.221 65H243.501L251.469 48.2H257.205L265.173 65H261.333ZM250.269 58.424H258.285L254.277 49.784L250.269 58.424ZM282.227 59.048L285.851 59.24C285.531 61.16 284.555 62.648 282.923 63.704C281.307 64.76 279.091 65.288 276.275 65.288C272.915 65.288 270.307 64.512 268.451 62.96C266.611 61.392 265.691 59.272 265.691 56.6C265.691 53.944 266.595 51.832 268.403 50.264C270.211 48.696 272.747 47.912 276.011 47.912C278.651 47.912 280.811 48.432 282.491 49.472C284.187 50.496 285.211 51.888 285.563 53.648L281.963 53.888C281.707 53.008 281.027 52.304 279.923 51.776C278.835 51.232 277.531 50.96 276.011 50.96C273.915 50.96 272.291 51.48 271.139 52.52C270.003 53.56 269.435 54.92 269.435 56.6C269.435 58.28 270.027 59.64 271.211 60.68C272.395 61.72 274.083 62.24 276.275 62.24C277.923 62.24 279.259 61.944 280.283 61.352C281.323 60.744 281.971 59.976 282.227 59.048ZM286.983 51.272V48.2H305.343V51.272H298.047V65H294.303V51.272H286.983ZM319.201 54.392C321.169 54.392 322.745 54.84 323.929 55.736C325.113 56.616 325.705 57.944 325.705 59.72C325.705 61.496 325.113 62.824 323.929 63.704C322.761 64.568 321.185 65 319.201 65H309.697H308.161V48.2H311.905V54.392H319.201ZM319.009 61.928C319.921 61.928 320.641 61.736 321.169 61.352C321.697 60.968 321.961 60.4 321.961 59.648C321.961 58.896 321.697 58.328 321.169 57.944C320.641 57.56 319.921 57.368 319.009 57.368H311.905V61.928H319.009Z" fill="black"/>
<path d="M15.976 7.2H22.528L22.504 24H18.904V9.096L12.376 24H7.288L0.784 9.12V24H-2.816V7.2H3.736L9.88 21.96L15.976 7.2ZM28.7028 21.936C26.8148 20.368 25.8708 18.256 25.8708 15.6C25.8708 12.944 26.8148 10.832 28.7028 9.264C30.5908 7.696 33.2308 6.912 36.6228 6.912C40.0148 6.912 42.6548 7.696 44.5428 9.264C46.4468 10.832 47.3988 12.944 47.3988 15.6C47.3988 18.256 46.4468 20.368 44.5428 21.936C42.6548 23.504 40.0148 24.288 36.6228 24.288C33.2308 24.288 30.5908 23.504 28.7028 21.936ZM31.4388 11.52C30.2228 12.56 29.6148 13.92 29.6148 15.6C29.6148 17.28 30.2228 18.64 31.4388 19.68C32.6708 20.72 34.3988 21.24 36.6228 21.24C38.8468 21.24 40.5748 20.72 41.8068 19.68C43.0388 18.64 43.6548 17.28 43.6548 15.6C43.6548 13.92 43.0388 12.56 41.8068 11.52C40.5748 10.48 38.8468 9.96 36.6228 9.96C34.3988 9.96 32.6708 10.48 31.4388 11.52ZM67.7832 7.2V24H64.0392V17.616H59.1432L53.5272 24H48.7752L54.9672 17.568C53.2552 17.44 51.9032 16.968 50.9112 16.152C49.9352 15.32 49.4472 14.112 49.4472 12.528C49.4472 10.784 50.0472 9.464 51.2472 8.568C52.4632 7.656 54.0392 7.2 55.9752 7.2H67.7832ZM56.1672 14.784H64.0392V10.2H56.1672C55.2712 10.2 54.5512 10.408 54.0072 10.824C53.4632 11.224 53.1912 11.792 53.1912 12.528C53.1912 13.248 53.4552 13.808 53.9832 14.208C54.5272 14.592 55.2552 14.784 56.1672 14.784ZM98.1679 7.2V24H94.4239V10.272H83.2639V24H79.5199V7.2H98.1679ZM113.792 7.2C115.728 7.2 117.296 7.656 118.496 8.568C119.712 9.48 120.32 10.824 120.32 12.6C120.32 14.392 119.728 15.72 118.544 16.584C117.376 17.432 115.792 17.856 113.792 17.856H106.28V24H102.536V7.2H106.28H113.792ZM113.6 14.952C114.528 14.952 115.256 14.752 115.784 14.352C116.312 13.952 116.576 13.368 116.576 12.6C116.576 11.832 116.312 11.256 115.784 10.872C115.256 10.472 114.528 10.272 113.6 10.272H106.28V14.952H113.6ZM137.096 7.2H142.856V24H139.208V9.672L129.272 24H123.512V7.2H127.16V21.528L137.096 7.2ZM162.735 18.048L166.359 18.24C166.039 20.16 165.063 21.648 163.431 22.704C161.815 23.76 159.599 24.288 156.783 24.288C153.423 24.288 150.815 23.512 148.959 21.96C147.119 20.392 146.199 18.272 146.199 15.6C146.199 12.944 147.103 10.832 148.911 9.264C150.719 7.696 153.255 6.912 156.519 6.912C159.159 6.912 161.319 7.432 162.999 8.472C164.695 9.496 165.719 10.888 166.071 12.648L162.471 12.888C162.215 12.008 161.535 11.304 160.431 10.776C159.343 10.232 158.039 9.96 156.519 9.96C154.423 9.96 152.799 10.48 151.647 11.52C150.511 12.56 149.943 13.92 149.943 15.6C149.943 17.28 150.535 18.64 151.719 19.68C152.903 20.72 154.591 21.24 156.783 21.24C158.431 21.24 159.767 20.944 160.791 20.352C161.831 19.744 162.479 18.976 162.735 18.048ZM167.491 10.272V7.2H185.851V10.272H178.555V24H174.811V10.272H167.491ZM199.924 7.2C201.86 7.2 203.428 7.656 204.628 8.568C205.844 9.48 206.452 10.824 206.452 12.6C206.452 14.392 205.86 15.72 204.676 16.584C203.508 17.432 201.924 17.856 199.924 17.856H192.412V24H188.668V7.2H192.412H199.924ZM199.732 14.952C200.66 14.952 201.388 14.752 201.916 14.352C202.444 13.952 202.708 13.368 202.708 12.6C202.708 11.832 202.444 11.256 201.916 10.872C201.388 10.472 200.66 10.272 199.732 10.272H192.412V14.952H199.732ZM223.333 24L221.581 20.232H210.973L209.221 24H205.501L213.469 7.2H219.205L227.173 24H223.333ZM212.269 17.424H220.285L216.277 8.784L212.269 17.424ZM244.227 18.048L247.851 18.24C247.531 20.16 246.555 21.648 244.923 22.704C243.307 23.76 241.091 24.288 238.275 24.288C234.915 24.288 232.307 23.512 230.451 21.96C228.611 20.392 227.691 18.272 227.691 15.6C227.691 12.944 228.595 10.832 230.403 9.264C232.211 7.696 234.747 6.912 238.011 6.912C240.651 6.912 242.811 7.432 244.491 8.472C246.187 9.496 247.211 10.888 247.563 12.648L243.963 12.888C243.707 12.008 243.027 11.304 241.923 10.776C240.835 10.232 239.531 9.96 238.011 9.96C235.915 9.96 234.291 10.48 233.139 11.52C232.003 12.56 231.435 13.92 231.435 15.6C231.435 17.28 232.027 18.64 233.211 19.68C234.395 20.72 236.083 21.24 238.275 21.24C239.923 21.24 241.259 20.944 242.283 20.352C243.323 19.744 243.971 18.976 244.227 18.048ZM248.983 10.272V7.2H267.343V10.272H260.047V24H256.303V10.272H248.983ZM281.201 13.392C283.169 13.392 284.745 13.84 285.929 14.736C287.113 15.616 287.705 16.944 287.705 18.72C287.705 20.496 287.113 21.824 285.929 22.704C284.761 23.568 283.185 24 281.201 24H271.697H270.161V7.2H273.905V13.392H281.201ZM281.009 20.928C281.921 20.928 282.641 20.736 283.169 20.352C283.697 19.968 283.961 19.4 283.961 18.648C283.961 17.896 283.697 17.328 283.169 16.944C282.641 16.56 281.921 16.368 281.009 16.368H273.905V20.928H281.009Z" fill="black"/>
<path d="M-18.024 136.2H-11.472L-11.496 153H-15.096V138.096L-21.624 153H-26.712L-33.216 138.12V153H-36.816V136.2H-30.264L-24.12 150.96L-18.024 136.2ZM-5.29725 150.936C-7.18525 149.368 -8.12925 147.256 -8.12925 144.6C-8.12925 141.944 -7.18525 139.832 -5.29725 138.264C-3.40925 136.696 -0.76925 135.912 2.62275 135.912C6.01475 135.912 8.65475 136.696 10.5428 138.264C12.4468 139.832 13.3988 141.944 13.3988 144.6C13.3988 147.256 12.4468 149.368 10.5428 150.936C8.65475 152.504 6.01475 153.288 2.62275 153.288C-0.76925 153.288 -3.40925 152.504 -5.29725 150.936ZM-2.56125 140.52C-3.77725 141.56 -4.38525 142.92 -4.38525 144.6C-4.38525 146.28 -3.77725 147.64 -2.56125 148.68C-1.32925 149.72 0.398751 150.24 2.62275 150.24C4.84675 150.24 6.57475 149.72 7.80675 148.68C9.03875 147.64 9.65475 146.28 9.65475 144.6C9.65475 142.92 9.03875 141.56 7.80675 140.52C6.57475 139.48 4.84675 138.96 2.62275 138.96C0.398751 138.96 -1.32925 139.48 -2.56125 140.52ZM33.7832 136.2V153H30.0392V146.616H25.1432L19.5272 153H14.7752L20.9672 146.568C19.2552 146.44 17.9032 145.968 16.9112 145.152C15.9352 144.32 15.4472 143.112 15.4472 141.528C15.4472 139.784 16.0472 138.464 17.2472 137.568C18.4632 136.656 20.0392 136.2 21.9752 136.2H33.7832ZM22.1672 143.784H30.0392V139.2H22.1672C21.2712 139.2 20.5512 139.408 20.0072 139.824C19.4632 140.224 19.1912 140.792 19.1912 141.528C19.1912 142.248 19.4552 142.808 19.9832 143.208C20.5272 143.592 21.2552 143.784 22.1672 143.784ZM64.1679 136.2V153H60.4239V139.272H49.2639V153H45.5199V136.2H64.1679ZM79.7916 136.2C81.7276 136.2 83.2956 136.656 84.4956 137.568C85.7116 138.48 86.3196 139.824 86.3196 141.6C86.3196 143.392 85.7276 144.72 84.5436 145.584C83.3756 146.432 81.7916 146.856 79.7916 146.856H72.2796V153H68.5356V136.2H72.2796H79.7916ZM79.5996 143.952C80.5276 143.952 81.2556 143.752 81.7836 143.352C82.3116 142.952 82.5756 142.368 82.5756 141.6C82.5756 140.832 82.3116 140.256 81.7836 139.872C81.2556 139.472 80.5276 139.272 79.5996 139.272H72.2796V143.952H79.5996ZM103.096 136.2H108.856V153H105.208V138.672L95.2721 153H89.5121V136.2H93.1601V150.528L103.096 136.2ZM128.735 147.048L132.359 147.24C132.039 149.16 131.063 150.648 129.431 151.704C127.815 152.76 125.599 153.288 122.783 153.288C119.423 153.288 116.815 152.512 114.959 150.96C113.119 149.392 112.199 147.272 112.199 144.6C112.199 141.944 113.103 139.832 114.911 138.264C116.719 136.696 119.255 135.912 122.519 135.912C125.159 135.912 127.319 136.432 128.999 137.472C130.695 138.496 131.719 139.888 132.071 141.648L128.471 141.888C128.215 141.008 127.535 140.304 126.431 139.776C125.343 139.232 124.039 138.96 122.519 138.96C120.423 138.96 118.799 139.48 117.647 140.52C116.511 141.56 115.943 142.92 115.943 144.6C115.943 146.28 116.535 147.64 117.719 148.68C118.903 149.72 120.591 150.24 122.783 150.24C124.431 150.24 125.767 149.944 126.791 149.352C127.831 148.744 128.479 147.976 128.735 147.048ZM133.491 139.272V136.2H151.851V139.272H144.555V153H140.811V139.272H133.491ZM165.924 136.2C167.86 136.2 169.428 136.656 170.628 137.568C171.844 138.48 172.452 139.824 172.452 141.6C172.452 143.392 171.86 144.72 170.676 145.584C169.508 146.432 167.924 146.856 165.924 146.856H158.412V153H154.668V136.2H158.412H165.924ZM165.732 143.952C166.66 143.952 167.388 143.752 167.916 143.352C168.444 142.952 168.708 142.368 168.708 141.6C168.708 140.832 168.444 140.256 167.916 139.872C167.388 139.472 166.66 139.272 165.732 139.272H158.412V143.952H165.732ZM189.333 153L187.581 149.232H176.973L175.221 153H171.501L179.469 136.2H185.205L193.173 153H189.333ZM178.269 146.424H186.285L182.277 137.784L178.269 146.424ZM210.227 147.048L213.851 147.24C213.531 149.16 212.555 150.648 210.923 151.704C209.307 152.76 207.091 153.288 204.275 153.288C200.915 153.288 198.307 152.512 196.451 150.96C194.611 149.392 193.691 147.272 193.691 144.6C193.691 141.944 194.595 139.832 196.403 138.264C198.211 136.696 200.747 135.912 204.011 135.912C206.651 135.912 208.811 136.432 210.491 137.472C212.187 138.496 213.211 139.888 213.563 141.648L209.963 141.888C209.707 141.008 209.027 140.304 207.923 139.776C206.835 139.232 205.531 138.96 204.011 138.96C201.915 138.96 200.291 139.48 199.139 140.52C198.003 141.56 197.435 142.92 197.435 144.6C197.435 146.28 198.027 147.64 199.211 148.68C200.395 149.72 202.083 150.24 204.275 150.24C205.923 150.24 207.259 149.944 208.283 149.352C209.323 148.744 209.971 147.976 210.227 147.048ZM214.983 139.272V136.2H233.343V139.272H226.047V153H222.303V139.272H214.983ZM247.201 142.392C249.169 142.392 250.745 142.84 251.929 143.736C253.113 144.616 253.705 145.944 253.705 147.72C253.705 149.496 253.113 150.824 251.929 151.704C250.761 152.568 249.185 153 247.201 153H237.697H236.161V136.2H239.905V142.392H247.201ZM247.009 149.928C247.921 149.928 248.641 149.736 249.169 149.352C249.697 148.968 249.961 148.4 249.961 147.648C249.961 146.896 249.697 146.328 249.169 145.944C248.641 145.56 247.921 145.368 247.009 145.368H239.905V149.928H247.009Z" fill="black"/>
<path d="M-114.024 177.2H-107.472L-107.496 194H-111.096V179.096L-117.624 194H-122.712L-129.216 179.12V194H-132.816V177.2H-126.264L-120.12 191.96L-114.024 177.2ZM-101.297 191.936C-103.185 190.368 -104.129 188.256 -104.129 185.6C-104.129 182.944 -103.185 180.832 -101.297 179.264C-99.4092 177.696 -96.7692 176.912 -93.3772 176.912C-89.9852 176.912 -87.3452 177.696 -85.4572 179.264C-83.5532 180.832 -82.6012 182.944 -82.6012 185.6C-82.6012 188.256 -83.5532 190.368 -85.4572 191.936C-87.3452 193.504 -89.9852 194.288 -93.3772 194.288C-96.7692 194.288 -99.4092 193.504 -101.297 191.936ZM-98.5612 181.52C-99.7772 182.56 -100.385 183.92 -100.385 185.6C-100.385 187.28 -99.7772 188.64 -98.5612 189.68C-97.3292 190.72 -95.6012 191.24 -93.3772 191.24C-91.1532 191.24 -89.4252 190.72 -88.1932 189.68C-86.9612 188.64 -86.3452 187.28 -86.3452 185.6C-86.3452 183.92 -86.9612 182.56 -88.1932 181.52C-89.4252 180.48 -91.1532 179.96 -93.3772 179.96C-95.6012 179.96 -97.3292 180.48 -98.5612 181.52ZM-62.2168 177.2V194H-65.9608V187.616H-70.8568L-76.4728 194H-81.2248L-75.0328 187.568C-76.7448 187.44 -78.0968 186.968 -79.0888 186.152C-80.0648 185.32 -80.5528 184.112 -80.5528 182.528C-80.5528 180.784 -79.9528 179.464 -78.7528 178.568C-77.5368 177.656 -75.9608 177.2 -74.0248 177.2H-62.2168ZM-73.8328 184.784H-65.9608V180.2H-73.8328C-74.7288 180.2 -75.4488 180.408 -75.9928 180.824C-76.5368 181.224 -76.8088 181.792 -76.8088 182.528C-76.8088 183.248 -76.5448 183.808 -76.0168 184.208C-75.4728 184.592 -74.7448 184.784 -73.8328 184.784ZM-31.8321 177.2V194H-35.5761V180.272H-46.7361V194H-50.4801V177.2H-31.8321ZM-16.2084 177.2C-14.2724 177.2 -12.7044 177.656 -11.5044 178.568C-10.2884 179.48 -9.68044 180.824 -9.68044 182.6C-9.68044 184.392 -10.2724 185.72 -11.4564 186.584C-12.6244 187.432 -14.2084 187.856 -16.2084 187.856H-23.7204V194H-27.4644V177.2H-23.7204H-16.2084ZM-16.4004 184.952C-15.4724 184.952 -14.7444 184.752 -14.2164 184.352C-13.6884 183.952 -13.4244 183.368 -13.4244 182.6C-13.4244 181.832 -13.6884 181.256 -14.2164 180.872C-14.7444 180.472 -15.4724 180.272 -16.4004 180.272H-23.7204V184.952H-16.4004ZM7.09613 177.2H12.8561V194H9.20813V179.672L-0.727874 194H-6.48787V177.2H-2.83987V191.528L7.09613 177.2ZM32.7349 188.048L36.3589 188.24C36.0389 190.16 35.0629 191.648 33.4309 192.704C31.8149 193.76 29.5989 194.288 26.7829 194.288C23.4229 194.288 20.8149 193.512 18.9589 191.96C17.1189 190.392 16.1989 188.272 16.1989 185.6C16.1989 182.944 17.1029 180.832 18.9109 179.264C20.7189 177.696 23.2549 176.912 26.5189 176.912C29.1589 176.912 31.3189 177.432 32.9989 178.472C34.6949 179.496 35.7189 180.888 36.0709 182.648L32.4709 182.888C32.2149 182.008 31.5349 181.304 30.4309 180.776C29.3429 180.232 28.0389 179.96 26.5189 179.96C24.4229 179.96 22.7989 180.48 21.6469 181.52C20.5109 182.56 19.9429 183.92 19.9429 185.6C19.9429 187.28 20.5349 188.64 21.7189 189.68C22.9029 190.72 24.5909 191.24 26.7829 191.24C28.4309 191.24 29.7669 190.944 30.7909 190.352C31.8309 189.744 32.4789 188.976 32.7349 188.048ZM37.4912 180.272V177.2H55.8512V180.272H48.5552V194H44.8112V180.272H37.4912ZM69.9244 177.2C71.8604 177.2 73.4284 177.656 74.6284 178.568C75.8444 179.48 76.4524 180.824 76.4524 182.6C76.4524 184.392 75.8604 185.72 74.6764 186.584C73.5084 187.432 71.9244 187.856 69.9244 187.856H62.4124V194H58.6684V177.2H62.4124H69.9244ZM69.7324 184.952C70.6604 184.952 71.3884 184.752 71.9164 184.352C72.4444 183.952 72.7084 183.368 72.7084 182.6C72.7084 181.832 72.4444 181.256 71.9164 180.872C71.3884 180.472 70.6604 180.272 69.7324 180.272H62.4124V184.952H69.7324ZM93.3332 194L91.5812 190.232H80.9732L79.2212 194H75.5012L83.4692 177.2H89.2052L97.1732 194H93.3332ZM82.2692 187.424H90.2852L86.2772 178.784L82.2692 187.424ZM114.227 188.048L117.851 188.24C117.531 190.16 116.555 191.648 114.923 192.704C113.307 193.76 111.091 194.288 108.275 194.288C104.915 194.288 102.307 193.512 100.451 191.96C98.6111 190.392 97.6911 188.272 97.6911 185.6C97.6911 182.944 98.5951 180.832 100.403 179.264C102.211 177.696 104.747 176.912 108.011 176.912C110.651 176.912 112.811 177.432 114.491 178.472C116.187 179.496 117.211 180.888 117.563 182.648L113.963 182.888C113.707 182.008 113.027 181.304 111.923 180.776C110.835 180.232 109.531 179.96 108.011 179.96C105.915 179.96 104.291 180.48 103.139 181.52C102.003 182.56 101.435 183.92 101.435 185.6C101.435 187.28 102.027 188.64 103.211 189.68C104.395 190.72 106.083 191.24 108.275 191.24C109.923 191.24 111.259 190.944 112.283 190.352C113.323 189.744 113.971 188.976 114.227 188.048ZM118.983 180.272V177.2H137.343V180.272H130.047V194H126.303V180.272H118.983ZM151.201 183.392C153.169 183.392 154.745 183.84 155.929 184.736C157.113 185.616 157.705 186.944 157.705 188.72C157.705 190.496 157.113 191.824 155.929 192.704C154.761 193.568 153.185 194 151.201 194H141.697H140.161V177.2H143.905V183.392H151.201ZM151.009 190.928C151.921 190.928 152.641 190.736 153.169 190.352C153.697 189.968 153.961 189.4 153.961 188.648C153.961 187.896 153.697 187.328 153.169 186.944C152.641 186.56 151.921 186.368 151.009 186.368H143.905V190.928H151.009Z" fill="black"/>
<path d="M338.976 7.2H345.528L345.504 24H341.904V9.096L335.376 24H330.288L323.784 9.12V24H320.184V7.2H326.736L332.88 21.96L338.976 7.2ZM351.703 21.936C349.815 20.368 348.871 18.256 348.871 15.6C348.871 12.944 349.815 10.832 351.703 9.264C353.591 7.696 356.231 6.912 359.623 6.912C363.015 6.912 365.655 7.696 367.543 9.264C369.447 10.832 370.399 12.944 370.399 15.6C370.399 18.256 369.447 20.368 367.543 21.936C365.655 23.504 363.015 24.288 359.623 24.288C356.231 24.288 353.591 23.504 351.703 21.936ZM354.439 11.52C353.223 12.56 352.615 13.92 352.615 15.6C352.615 17.28 353.223 18.64 354.439 19.68C355.671 20.72 357.399 21.24 359.623 21.24C361.847 21.24 363.575 20.72 364.807 19.68C366.039 18.64 366.655 17.28 366.655 15.6C366.655 13.92 366.039 12.56 364.807 11.52C363.575 10.48 361.847 9.96 359.623 9.96C357.399 9.96 355.671 10.48 354.439 11.52ZM390.783 7.2V24H387.039V17.616H382.143L376.527 24H371.775L377.967 17.568C376.255 17.44 374.903 16.968 373.911 16.152C372.935 15.32 372.447 14.112 372.447 12.528C372.447 10.784 373.047 9.464 374.247 8.568C375.463 7.656 377.039 7.2 378.975 7.2H390.783ZM379.167 14.784H387.039V10.2H379.167C378.271 10.2 377.551 10.408 377.007 10.824C376.463 11.224 376.191 11.792 376.191 12.528C376.191 13.248 376.455 13.808 376.983 14.208C377.527 14.592 378.255 14.784 379.167 14.784ZM421.168 7.2V24H417.424V10.272H406.264V24H402.52V7.2H421.168ZM436.792 7.2C438.728 7.2 440.296 7.656 441.496 8.568C442.712 9.48 443.32 10.824 443.32 12.6C443.32 14.392 442.728 15.72 441.544 16.584C440.376 17.432 438.792 17.856 436.792 17.856H429.28V24H425.536V7.2H429.28H436.792ZM436.6 14.952C437.528 14.952 438.256 14.752 438.784 14.352C439.312 13.952 439.576 13.368 439.576 12.6C439.576 11.832 439.312 11.256 438.784 10.872C438.256 10.472 437.528 10.272 436.6 10.272H429.28V14.952H436.6ZM460.096 7.2H465.856V24H462.208V9.672L452.272 24H446.512V7.2H450.16V21.528L460.096 7.2ZM485.735 18.048L489.359 18.24C489.039 20.16 488.063 21.648 486.431 22.704C484.815 23.76 482.599 24.288 479.783 24.288C476.423 24.288 473.815 23.512 471.959 21.96C470.119 20.392 469.199 18.272 469.199 15.6C469.199 12.944 470.103 10.832 471.911 9.264C473.719 7.696 476.255 6.912 479.519 6.912C482.159 6.912 484.319 7.432 485.999 8.472C487.695 9.496 488.719 10.888 489.071 12.648L485.471 12.888C485.215 12.008 484.535 11.304 483.431 10.776C482.343 10.232 481.039 9.96 479.519 9.96C477.423 9.96 475.799 10.48 474.647 11.52C473.511 12.56 472.943 13.92 472.943 15.6C472.943 17.28 473.535 18.64 474.719 19.68C475.903 20.72 477.591 21.24 479.783 21.24C481.431 21.24 482.767 20.944 483.791 20.352C484.831 19.744 485.479 18.976 485.735 18.048ZM490.491 10.272V7.2H508.851V10.272H501.555V24H497.811V10.272H490.491ZM522.924 7.2C524.86 7.2 526.428 7.656 527.628 8.568C528.844 9.48 529.452 10.824 529.452 12.6C529.452 14.392 528.86 15.72 527.676 16.584C526.508 17.432 524.924 17.856 522.924 17.856H515.412V24H511.668V7.2H515.412H522.924ZM522.732 14.952C523.66 14.952 524.388 14.752 524.916 14.352C525.444 13.952 525.708 13.368 525.708 12.6C525.708 11.832 525.444 11.256 524.916 10.872C524.388 10.472 523.66 10.272 522.732 10.272H515.412V14.952H522.732ZM546.333 24L544.581 20.232H533.973L532.221 24H528.501L536.469 7.2H542.205L550.173 24H546.333ZM535.269 17.424H543.285L539.277 8.784L535.269 17.424ZM567.227 18.048L570.851 18.24C570.531 20.16 569.555 21.648 567.923 22.704C566.307 23.76 564.091 24.288 561.275 24.288C557.915 24.288 555.307 23.512 553.451 21.96C551.611 20.392 550.691 18.272 550.691 15.6C550.691 12.944 551.595 10.832 553.403 9.264C555.211 7.696 557.747 6.912 561.011 6.912C563.651 6.912 565.811 7.432 567.491 8.472C569.187 9.496 570.211 10.888 570.563 12.648L566.963 12.888C566.707 12.008 566.027 11.304 564.923 10.776C563.835 10.232 562.531 9.96 561.011 9.96C558.915 9.96 557.291 10.48 556.139 11.52C555.003 12.56 554.435 13.92 554.435 15.6C554.435 17.28 555.027 18.64 556.211 19.68C557.395 20.72 559.083 21.24 561.275 21.24C562.923 21.24 564.259 20.944 565.283 20.352C566.323 19.744 566.971 18.976 567.227 18.048ZM571.983 10.272V7.2H590.343V10.272H583.047V24H579.303V10.272H571.983ZM604.201 13.392C606.169 13.392 607.745 13.84 608.929 14.736C610.113 15.616 610.705 16.944 610.705 18.72C610.705 20.496 610.113 21.824 608.929 22.704C607.761 23.568 606.185 24 604.201 24H594.697H593.161V7.2H596.905V13.392H604.201ZM604.009 20.928C604.921 20.928 605.641 20.736 606.169 20.352C606.697 19.968 606.961 19.4 606.961 18.648C606.961 17.896 606.697 17.328 606.169 16.944C605.641 16.56 604.921 16.368 604.009 16.368H596.905V20.928H604.009Z" fill="black"/>
<path d="M304.976 136.2H311.528L311.504 153H307.904V138.096L301.376 153H296.288L289.784 138.12V153H286.184V136.2H292.736L298.88 150.96L304.976 136.2ZM317.703 150.936C315.815 149.368 314.871 147.256 314.871 144.6C314.871 141.944 315.815 139.832 317.703 138.264C319.591 136.696 322.231 135.912 325.623 135.912C329.015 135.912 331.655 136.696 333.543 138.264C335.447 139.832 336.399 141.944 336.399 144.6C336.399 147.256 335.447 149.368 333.543 150.936C331.655 152.504 329.015 153.288 325.623 153.288C322.231 153.288 319.591 152.504 317.703 150.936ZM320.439 140.52C319.223 141.56 318.615 142.92 318.615 144.6C318.615 146.28 319.223 147.64 320.439 148.68C321.671 149.72 323.399 150.24 325.623 150.24C327.847 150.24 329.575 149.72 330.807 148.68C332.039 147.64 332.655 146.28 332.655 144.6C332.655 142.92 332.039 141.56 330.807 140.52C329.575 139.48 327.847 138.96 325.623 138.96C323.399 138.96 321.671 139.48 320.439 140.52ZM356.783 136.2V153H353.039V146.616H348.143L342.527 153H337.775L343.967 146.568C342.255 146.44 340.903 145.968 339.911 145.152C338.935 144.32 338.447 143.112 338.447 141.528C338.447 139.784 339.047 138.464 340.247 137.568C341.463 136.656 343.039 136.2 344.975 136.2H356.783ZM345.167 143.784H353.039V139.2H345.167C344.271 139.2 343.551 139.408 343.007 139.824C342.463 140.224 342.191 140.792 342.191 141.528C342.191 142.248 342.455 142.808 342.983 143.208C343.527 143.592 344.255 143.784 345.167 143.784ZM387.168 136.2V153H383.424V139.272H372.264V153H368.52V136.2H387.168ZM402.792 136.2C404.728 136.2 406.296 136.656 407.496 137.568C408.712 138.48 409.32 139.824 409.32 141.6C409.32 143.392 408.728 144.72 407.544 145.584C406.376 146.432 404.792 146.856 402.792 146.856H395.28V153H391.536V136.2H395.28H402.792ZM402.6 143.952C403.528 143.952 404.256 143.752 404.784 143.352C405.312 142.952 405.576 142.368 405.576 141.6C405.576 140.832 405.312 140.256 404.784 139.872C404.256 139.472 403.528 139.272 402.6 139.272H395.28V143.952H402.6ZM426.096 136.2H431.856V153H428.208V138.672L418.272 153H412.512V136.2H416.16V150.528L426.096 136.2ZM451.735 147.048L455.359 147.24C455.039 149.16 454.063 150.648 452.431 151.704C450.815 152.76 448.599 153.288 445.783 153.288C442.423 153.288 439.815 152.512 437.959 150.96C436.119 149.392 435.199 147.272 435.199 144.6C435.199 141.944 436.103 139.832 437.911 138.264C439.719 136.696 442.255 135.912 445.519 135.912C448.159 135.912 450.319 136.432 451.999 137.472C453.695 138.496 454.719 139.888 455.071 141.648L451.471 141.888C451.215 141.008 450.535 140.304 449.431 139.776C448.343 139.232 447.039 138.96 445.519 138.96C443.423 138.96 441.799 139.48 440.647 140.52C439.511 141.56 438.943 142.92 438.943 144.6C438.943 146.28 439.535 147.64 440.719 148.68C441.903 149.72 443.591 150.24 445.783 150.24C447.431 150.24 448.767 149.944 449.791 149.352C450.831 148.744 451.479 147.976 451.735 147.048ZM456.491 139.272V136.2H474.851V139.272H467.555V153H463.811V139.272H456.491ZM488.924 136.2C490.86 136.2 492.428 136.656 493.628 137.568C494.844 138.48 495.452 139.824 495.452 141.6C495.452 143.392 494.86 144.72 493.676 145.584C492.508 146.432 490.924 146.856 488.924 146.856H481.412V153H477.668V136.2H481.412H488.924ZM488.732 143.952C489.66 143.952 490.388 143.752 490.916 143.352C491.444 142.952 491.708 142.368 491.708 141.6C491.708 140.832 491.444 140.256 490.916 139.872C490.388 139.472 489.66 139.272 488.732 139.272H481.412V143.952H488.732ZM512.333 153L510.581 149.232H499.973L498.221 153H494.501L502.469 136.2H508.205L516.173 153H512.333ZM501.269 146.424H509.285L505.277 137.784L501.269 146.424ZM533.227 147.048L536.851 147.24C536.531 149.16 535.555 150.648 533.923 151.704C532.307 152.76 530.091 153.288 527.275 153.288C523.915 153.288 521.307 152.512 519.451 150.96C517.611 149.392 516.691 147.272 516.691 144.6C516.691 141.944 517.595 139.832 519.403 138.264C521.211 136.696 523.747 135.912 527.011 135.912C529.651 135.912 531.811 136.432 533.491 137.472C535.187 138.496 536.211 139.888 536.563 141.648L532.963 141.888C532.707 141.008 532.027 140.304 530.923 139.776C529.835 139.232 528.531 138.96 527.011 138.96C524.915 138.96 523.291 139.48 522.139 140.52C521.003 141.56 520.435 142.92 520.435 144.6C520.435 146.28 521.027 147.64 522.211 148.68C523.395 149.72 525.083 150.24 527.275 150.24C528.923 150.24 530.259 149.944 531.283 149.352C532.323 148.744 532.971 147.976 533.227 147.048ZM537.983 139.272V136.2H556.343V139.272H549.047V153H545.303V139.272H537.983ZM570.201 142.392C572.169 142.392 573.745 142.84 574.929 143.736C576.113 144.616 576.705 145.944 576.705 147.72C576.705 149.496 576.113 150.824 574.929 151.704C573.761 152.568 572.185 153 570.201 153H560.697H559.161V136.2H562.905V142.392H570.201ZM570.009 149.928C570.921 149.928 571.641 149.736 572.169 149.352C572.697 148.968 572.961 148.4 572.961 147.648C572.961 146.896 572.697 146.328 572.169 145.944C571.641 145.56 570.921 145.368 570.009 145.368H562.905V149.928H570.009Z" fill="black"/>
<path d="M208.976 177.2H215.528L215.504 194H211.904V179.096L205.376 194H200.288L193.784 179.12V194H190.184V177.2H196.736L202.88 191.96L208.976 177.2ZM221.703 191.936C219.815 190.368 218.871 188.256 218.871 185.6C218.871 182.944 219.815 180.832 221.703 179.264C223.591 177.696 226.231 176.912 229.623 176.912C233.015 176.912 235.655 177.696 237.543 179.264C239.447 180.832 240.399 182.944 240.399 185.6C240.399 188.256 239.447 190.368 237.543 191.936C235.655 193.504 233.015 194.288 229.623 194.288C226.231 194.288 223.591 193.504 221.703 191.936ZM224.439 181.52C223.223 182.56 222.615 183.92 222.615 185.6C222.615 187.28 223.223 188.64 224.439 189.68C225.671 190.72 227.399 191.24 229.623 191.24C231.847 191.24 233.575 190.72 234.807 189.68C236.039 188.64 236.655 187.28 236.655 185.6C236.655 183.92 236.039 182.56 234.807 181.52C233.575 180.48 231.847 179.96 229.623 179.96C227.399 179.96 225.671 180.48 224.439 181.52ZM260.783 177.2V194H257.039V187.616H252.143L246.527 194H241.775L247.967 187.568C246.255 187.44 244.903 186.968 243.911 186.152C242.935 185.32 242.447 184.112 242.447 182.528C242.447 180.784 243.047 179.464 244.247 178.568C245.463 177.656 247.039 177.2 248.975 177.2H260.783ZM249.167 184.784H257.039V180.2H249.167C248.271 180.2 247.551 180.408 247.007 180.824C246.463 181.224 246.191 181.792 246.191 182.528C246.191 183.248 246.455 183.808 246.983 184.208C247.527 184.592 248.255 184.784 249.167 184.784ZM291.168 177.2V194H287.424V180.272H276.264V194H272.52V177.2H291.168ZM306.792 177.2C308.728 177.2 310.296 177.656 311.496 178.568C312.712 179.48 313.32 180.824 313.32 182.6C313.32 184.392 312.728 185.72 311.544 186.584C310.376 187.432 308.792 187.856 306.792 187.856H299.28V194H295.536V177.2H299.28H306.792ZM306.6 184.952C307.528 184.952 308.256 184.752 308.784 184.352C309.312 183.952 309.576 183.368 309.576 182.6C309.576 181.832 309.312 181.256 308.784 180.872C308.256 180.472 307.528 180.272 306.6 180.272H299.28V184.952H306.6ZM330.096 177.2H335.856V194H332.208V179.672L322.272 194H316.512V177.2H320.16V191.528L330.096 177.2ZM355.735 188.048L359.359 188.24C359.039 190.16 358.063 191.648 356.431 192.704C354.815 193.76 352.599 194.288 349.783 194.288C346.423 194.288 343.815 193.512 341.959 191.96C340.119 190.392 339.199 188.272 339.199 185.6C339.199 182.944 340.103 180.832 341.911 179.264C343.719 177.696 346.255 176.912 349.519 176.912C352.159 176.912 354.319 177.432 355.999 178.472C357.695 179.496 358.719 180.888 359.071 182.648L355.471 182.888C355.215 182.008 354.535 181.304 353.431 180.776C352.343 180.232 351.039 179.96 349.519 179.96C347.423 179.96 345.799 180.48 344.647 181.52C343.511 182.56 342.943 183.92 342.943 185.6C342.943 187.28 343.535 188.64 344.719 189.68C345.903 190.72 347.591 191.24 349.783 191.24C351.431 191.24 352.767 190.944 353.791 190.352C354.831 189.744 355.479 188.976 355.735 188.048ZM360.491 180.272V177.2H378.851V180.272H371.555V194H367.811V180.272H360.491ZM392.924 177.2C394.86 177.2 396.428 177.656 397.628 178.568C398.844 179.48 399.452 180.824 399.452 182.6C399.452 184.392 398.86 185.72 397.676 186.584C396.508 187.432 394.924 187.856 392.924 187.856H385.412V194H381.668V177.2H385.412H392.924ZM392.732 184.952C393.66 184.952 394.388 184.752 394.916 184.352C395.444 183.952 395.708 183.368 395.708 182.6C395.708 181.832 395.444 181.256 394.916 180.872C394.388 180.472 393.66 180.272 392.732 180.272H385.412V184.952H392.732ZM416.333 194L414.581 190.232H403.973L402.221 194H398.501L406.469 177.2H412.205L420.173 194H416.333ZM405.269 187.424H413.285L409.277 178.784L405.269 187.424ZM437.227 188.048L440.851 188.24C440.531 190.16 439.555 191.648 437.923 192.704C436.307 193.76 434.091 194.288 431.275 194.288C427.915 194.288 425.307 193.512 423.451 191.96C421.611 190.392 420.691 188.272 420.691 185.6C420.691 182.944 421.595 180.832 423.403 179.264C425.211 177.696 427.747 176.912 431.011 176.912C433.651 176.912 435.811 177.432 437.491 178.472C439.187 179.496 440.211 180.888 440.563 182.648L436.963 182.888C436.707 182.008 436.027 181.304 434.923 180.776C433.835 180.232 432.531 179.96 431.011 179.96C428.915 179.96 427.291 180.48 426.139 181.52C425.003 182.56 424.435 183.92 424.435 185.6C424.435 187.28 425.027 188.64 426.211 189.68C427.395 190.72 429.083 191.24 431.275 191.24C432.923 191.24 434.259 190.944 435.283 190.352C436.323 189.744 436.971 188.976 437.227 188.048ZM441.983 180.272V177.2H460.343V180.272H453.047V194H449.303V180.272H441.983ZM474.201 183.392C476.169 183.392 477.745 183.84 478.929 184.736C480.113 185.616 480.705 186.944 480.705 188.72C480.705 190.496 480.113 191.824 478.929 192.704C477.761 193.568 476.185 194 474.201 194H464.697H463.161V177.2H466.905V183.392H474.201ZM474.009 190.928C474.921 190.928 475.641 190.736 476.169 190.352C476.697 189.968 476.961 189.4 476.961 188.648C476.961 187.896 476.697 187.328 476.169 186.944C475.641 186.56 474.921 186.368 474.009 186.368H466.905V190.928H474.009Z" fill="black"/>
<path d="M53.976 92.2H60.528L60.504 109H56.904V94.096L50.376 109H45.288L38.784 94.12V109H35.184V92.2H41.736L47.88 106.96L53.976 92.2ZM66.7028 106.936C64.8148 105.368 63.8708 103.256 63.8708 100.6C63.8708 97.944 64.8148 95.832 66.7028 94.264C68.5908 92.696 71.2308 91.912 74.6228 91.912C78.0148 91.912 80.6548 92.696 82.5428 94.264C84.4468 95.832 85.3988 97.944 85.3988 100.6C85.3988 103.256 84.4468 105.368 82.5428 106.936C80.6548 108.504 78.0148 109.288 74.6228 109.288C71.2308 109.288 68.5908 108.504 66.7028 106.936ZM69.4388 96.52C68.2228 97.56 67.6148 98.92 67.6148 100.6C67.6148 102.28 68.2228 103.64 69.4388 104.68C70.6708 105.72 72.3988 106.24 74.6228 106.24C76.8468 106.24 78.5748 105.72 79.8068 104.68C81.0388 103.64 81.6548 102.28 81.6548 100.6C81.6548 98.92 81.0388 97.56 79.8068 96.52C78.5748 95.48 76.8468 94.96 74.6228 94.96C72.3988 94.96 70.6708 95.48 69.4388 96.52ZM105.783 92.2V109H102.039V102.616H97.1432L91.5272 109H86.7752L92.9672 102.568C91.2552 102.44 89.9032 101.968 88.9112 101.152C87.9352 100.32 87.4472 99.112 87.4472 97.528C87.4472 95.784 88.0472 94.464 89.2472 93.568C90.4632 92.656 92.0392 92.2 93.9752 92.2H105.783ZM94.1672 99.784H102.039V95.2H94.1672C93.2712 95.2 92.5512 95.408 92.0072 95.824C91.4632 96.224 91.1912 96.792 91.1912 97.528C91.1912 98.248 91.4552 98.808 91.9832 99.208C92.5272 99.592 93.2552 99.784 94.1672 99.784ZM136.168 92.2V109H132.424V95.272H121.264V109H117.52V92.2H136.168ZM151.792 92.2C153.728 92.2 155.296 92.656 156.496 93.568C157.712 94.48 158.32 95.824 158.32 97.6C158.32 99.392 157.728 100.72 156.544 101.584C155.376 102.432 153.792 102.856 151.792 102.856H144.28V109H140.536V92.2H144.28H151.792ZM151.6 99.952C152.528 99.952 153.256 99.752 153.784 99.352C154.312 98.952 154.576 98.368 154.576 97.6C154.576 96.832 154.312 96.256 153.784 95.872C153.256 95.472 152.528 95.272 151.6 95.272H144.28V99.952H151.6ZM175.096 92.2H180.856V109H177.208V94.672L167.272 109H161.512V92.2H165.16V106.528L175.096 92.2ZM200.735 103.048L204.359 103.24C204.039 105.16 203.063 106.648 201.431 107.704C199.815 108.76 197.599 109.288 194.783 109.288C191.423 109.288 188.815 108.512 186.959 106.96C185.119 105.392 184.199 103.272 184.199 100.6C184.199 97.944 185.103 95.832 186.911 94.264C188.719 92.696 191.255 91.912 194.519 91.912C197.159 91.912 199.319 92.432 200.999 93.472C202.695 94.496 203.719 95.888 204.071 97.648L200.471 97.888C200.215 97.008 199.535 96.304 198.431 95.776C197.343 95.232 196.039 94.96 194.519 94.96C192.423 94.96 190.799 95.48 189.647 96.52C188.511 97.56 187.943 98.92 187.943 100.6C187.943 102.28 188.535 103.64 189.719 104.68C190.903 105.72 192.591 106.24 194.783 106.24C196.431 106.24 197.767 105.944 198.791 105.352C199.831 104.744 200.479 103.976 200.735 103.048ZM205.491 95.272V92.2H223.851V95.272H216.555V109H212.811V95.272H205.491ZM237.924 92.2C239.86 92.2 241.428 92.656 242.628 93.568C243.844 94.48 244.452 95.824 244.452 97.6C244.452 99.392 243.86 100.72 242.676 101.584C241.508 102.432 239.924 102.856 237.924 102.856H230.412V109H226.668V92.2H230.412H237.924ZM237.732 99.952C238.66 99.952 239.388 99.752 239.916 99.352C240.444 98.952 240.708 98.368 240.708 97.6C240.708 96.832 240.444 96.256 239.916 95.872C239.388 95.472 238.66 95.272 237.732 95.272H230.412V99.952H237.732ZM261.333 109L259.581 105.232H248.973L247.221 109H243.501L251.469 92.2H257.205L265.173 109H261.333ZM250.269 102.424H258.285L254.277 93.784L250.269 102.424ZM282.227 103.048L285.851 103.24C285.531 105.16 284.555 106.648 282.923 107.704C281.307 108.76 279.091 109.288 276.275 109.288C272.915 109.288 270.307 108.512 268.451 106.96C266.611 105.392 265.691 103.272 265.691 100.6C265.691 97.944 266.595 95.832 268.403 94.264C270.211 92.696 272.747 91.912 276.011 91.912C278.651 91.912 280.811 92.432 282.491 93.472C284.187 94.496 285.211 95.888 285.563 97.648L281.963 97.888C281.707 97.008 281.027 96.304 279.923 95.776C278.835 95.232 277.531 94.96 276.011 94.96C273.915 94.96 272.291 95.48 271.139 96.52C270.003 97.56 269.435 98.92 269.435 100.6C269.435 102.28 270.027 103.64 271.211 104.68C272.395 105.72 274.083 106.24 276.275 106.24C277.923 106.24 279.259 105.944 280.283 105.352C281.323 104.744 281.971 103.976 282.227 103.048ZM286.983 95.272V92.2H305.343V95.272H298.047V109H294.303V95.272H286.983ZM319.201 98.392C321.169 98.392 322.745 98.84 323.929 99.736C325.113 100.616 325.705 101.944 325.705 103.72C325.705 105.496 325.113 106.824 323.929 107.704C322.761 108.568 321.185 109 319.201 109H309.697H308.161V92.2H311.905V98.392H319.201ZM319.009 105.928C319.921 105.928 320.641 105.736 321.169 105.352C321.697 104.968 321.961 104.4 321.961 103.648C321.961 102.896 321.697 102.328 321.169 101.944C320.641 101.56 319.921 101.368 319.009 101.368H311.905V105.928H319.009Z" fill="black"/>
<path d="M1184.98 92.2H1191.53L1191.5 109H1187.9V94.096L1181.38 109H1176.29L1169.78 94.12V109H1166.18V92.2H1172.74L1178.88 106.96L1184.98 92.2ZM1197.7 106.936C1195.81 105.368 1194.87 103.256 1194.87 100.6C1194.87 97.944 1195.81 95.832 1197.7 94.264C1199.59 92.696 1202.23 91.912 1205.62 91.912C1209.01 91.912 1211.65 92.696 1213.54 94.264C1215.45 95.832 1216.4 97.944 1216.4 100.6C1216.4 103.256 1215.45 105.368 1213.54 106.936C1211.65 108.504 1209.01 109.288 1205.62 109.288C1202.23 109.288 1199.59 108.504 1197.7 106.936ZM1200.44 96.52C1199.22 97.56 1198.61 98.92 1198.61 100.6C1198.61 102.28 1199.22 103.64 1200.44 104.68C1201.67 105.72 1203.4 106.24 1205.62 106.24C1207.85 106.24 1209.57 105.72 1210.81 104.68C1212.04 103.64 1212.65 102.28 1212.65 100.6C1212.65 98.92 1212.04 97.56 1210.81 96.52C1209.57 95.48 1207.85 94.96 1205.62 94.96C1203.4 94.96 1201.67 95.48 1200.44 96.52ZM1236.78 92.2V109H1233.04V102.616H1228.14L1222.53 109H1217.78L1223.97 102.568C1222.26 102.44 1220.9 101.968 1219.91 101.152C1218.94 100.32 1218.45 99.112 1218.45 97.528C1218.45 95.784 1219.05 94.464 1220.25 93.568C1221.46 92.656 1223.04 92.2 1224.98 92.2H1236.78ZM1225.17 99.784H1233.04V95.2H1225.17C1224.27 95.2 1223.55 95.408 1223.01 95.824C1222.46 96.224 1222.19 96.792 1222.19 97.528C1222.19 98.248 1222.46 98.808 1222.98 99.208C1223.53 99.592 1224.26 99.784 1225.17 99.784ZM1267.17 92.2V109H1263.42V95.272H1252.26V109H1248.52V92.2H1267.17ZM1282.79 92.2C1284.73 92.2 1286.3 92.656 1287.5 93.568C1288.71 94.48 1289.32 95.824 1289.32 97.6C1289.32 99.392 1288.73 100.72 1287.54 101.584C1286.38 102.432 1284.79 102.856 1282.79 102.856H1275.28V109H1271.54V92.2H1275.28H1282.79ZM1282.6 99.952C1283.53 99.952 1284.26 99.752 1284.78 99.352C1285.31 98.952 1285.58 98.368 1285.58 97.6C1285.58 96.832 1285.31 96.256 1284.78 95.872C1284.26 95.472 1283.53 95.272 1282.6 95.272H1275.28V99.952H1282.6ZM1306.1 92.2H1311.86V109H1308.21V94.672L1298.27 109H1292.51V92.2H1296.16V106.528L1306.1 92.2ZM1331.73 103.048L1335.36 103.24C1335.04 105.16 1334.06 106.648 1332.43 107.704C1330.81 108.76 1328.6 109.288 1325.78 109.288C1322.42 109.288 1319.81 108.512 1317.96 106.96C1316.12 105.392 1315.2 103.272 1315.2 100.6C1315.2 97.944 1316.1 95.832 1317.91 94.264C1319.72 92.696 1322.25 91.912 1325.52 91.912C1328.16 91.912 1330.32 92.432 1332 93.472C1333.69 94.496 1334.72 95.888 1335.07 97.648L1331.47 97.888C1331.21 97.008 1330.53 96.304 1329.43 95.776C1328.34 95.232 1327.04 94.96 1325.52 94.96C1323.42 94.96 1321.8 95.48 1320.65 96.52C1319.51 97.56 1318.94 98.92 1318.94 100.6C1318.94 102.28 1319.53 103.64 1320.72 104.68C1321.9 105.72 1323.59 106.24 1325.78 106.24C1327.43 106.24 1328.77 105.944 1329.79 105.352C1330.83 104.744 1331.48 103.976 1331.73 103.048ZM1336.49 95.272V92.2H1354.85V95.272H1347.56V109H1343.81V95.272H1336.49ZM1368.92 92.2C1370.86 92.2 1372.43 92.656 1373.63 93.568C1374.84 94.48 1375.45 95.824 1375.45 97.6C1375.45 99.392 1374.86 100.72 1373.68 101.584C1372.51 102.432 1370.92 102.856 1368.92 102.856H1361.41V109H1357.67V92.2H1361.41H1368.92ZM1368.73 99.952C1369.66 99.952 1370.39 99.752 1370.92 99.352C1371.44 98.952 1371.71 98.368 1371.71 97.6C1371.71 96.832 1371.44 96.256 1370.92 95.872C1370.39 95.472 1369.66 95.272 1368.73 95.272H1361.41V99.952H1368.73ZM1392.33 109L1390.58 105.232H1379.97L1378.22 109H1374.5L1382.47 92.2H1388.21L1396.17 109H1392.33ZM1381.27 102.424H1389.29L1385.28 93.784L1381.27 102.424ZM1413.23 103.048L1416.85 103.24C1416.53 105.16 1415.56 106.648 1413.92 107.704C1412.31 108.76 1410.09 109.288 1407.28 109.288C1403.92 109.288 1401.31 108.512 1399.45 106.96C1397.61 105.392 1396.69 103.272 1396.69 100.6C1396.69 97.944 1397.6 95.832 1399.4 94.264C1401.21 92.696 1403.75 91.912 1407.01 91.912C1409.65 91.912 1411.81 92.432 1413.49 93.472C1415.19 94.496 1416.21 95.888 1416.56 97.648L1412.96 97.888C1412.71 97.008 1412.03 96.304 1410.92 95.776C1409.84 95.232 1408.53 94.96 1407.01 94.96C1404.92 94.96 1403.29 95.48 1402.14 96.52C1401 97.56 1400.44 98.92 1400.44 100.6C1400.44 102.28 1401.03 103.64 1402.21 104.68C1403.4 105.72 1405.08 106.24 1407.28 106.24C1408.92 106.24 1410.26 105.944 1411.28 105.352C1412.32 104.744 1412.97 103.976 1413.23 103.048ZM1417.98 95.272V92.2H1436.34V95.272H1429.05V109H1425.3V95.272H1417.98ZM1450.2 98.392C1452.17 98.392 1453.74 98.84 1454.93 99.736C1456.11 100.616 1456.7 101.944 1456.7 103.72C1456.7 105.496 1456.11 106.824 1454.93 107.704C1453.76 108.568 1452.18 109 1450.2 109H1440.7H1439.16V92.2H1442.9V98.392H1450.2ZM1450.01 105.928C1450.92 105.928 1451.64 105.736 1452.17 105.352C1452.7 104.968 1452.96 104.4 1452.96 103.648C1452.96 102.896 1452.7 102.328 1452.17 101.944C1451.64 101.56 1450.92 101.368 1450.01 101.368H1442.9V105.928H1450.01Z" fill="black"/>
<path d="M661.976 7.2H668.528L668.504 24H664.904V9.096L658.376 24H653.288L646.784 9.12V24H643.184V7.2H649.736L655.88 21.96L661.976 7.2ZM674.703 21.936C672.815 20.368 671.871 18.256 671.871 15.6C671.871 12.944 672.815 10.832 674.703 9.264C676.591 7.696 679.231 6.912 682.623 6.912C686.015 6.912 688.655 7.696 690.543 9.264C692.447 10.832 693.399 12.944 693.399 15.6C693.399 18.256 692.447 20.368 690.543 21.936C688.655 23.504 686.015 24.288 682.623 24.288C679.231 24.288 676.591 23.504 674.703 21.936ZM677.439 11.52C676.223 12.56 675.615 13.92 675.615 15.6C675.615 17.28 676.223 18.64 677.439 19.68C678.671 20.72 680.399 21.24 682.623 21.24C684.847 21.24 686.575 20.72 687.807 19.68C689.039 18.64 689.655 17.28 689.655 15.6C689.655 13.92 689.039 12.56 687.807 11.52C686.575 10.48 684.847 9.96 682.623 9.96C680.399 9.96 678.671 10.48 677.439 11.52ZM713.783 7.2V24H710.039V17.616H705.143L699.527 24H694.775L700.967 17.568C699.255 17.44 697.903 16.968 696.911 16.152C695.935 15.32 695.447 14.112 695.447 12.528C695.447 10.784 696.047 9.464 697.247 8.568C698.463 7.656 700.039 7.2 701.975 7.2H713.783ZM702.167 14.784H710.039V10.2H702.167C701.271 10.2 700.551 10.408 700.007 10.824C699.463 11.224 699.191 11.792 699.191 12.528C699.191 13.248 699.455 13.808 699.983 14.208C700.527 14.592 701.255 14.784 702.167 14.784ZM744.168 7.2V24H740.424V10.272H729.264V24H725.52V7.2H744.168ZM759.792 7.2C761.728 7.2 763.296 7.656 764.496 8.568C765.712 9.48 766.32 10.824 766.32 12.6C766.32 14.392 765.728 15.72 764.544 16.584C763.376 17.432 761.792 17.856 759.792 17.856H752.28V24H748.536V7.2H752.28H759.792ZM759.6 14.952C760.528 14.952 761.256 14.752 761.784 14.352C762.312 13.952 762.576 13.368 762.576 12.6C762.576 11.832 762.312 11.256 761.784 10.872C761.256 10.472 760.528 10.272 759.6 10.272H752.28V14.952H759.6ZM783.096 7.2H788.856V24H785.208V9.672L775.272 24H769.512V7.2H773.16V21.528L783.096 7.2ZM808.735 18.048L812.359 18.24C812.039 20.16 811.063 21.648 809.431 22.704C807.815 23.76 805.599 24.288 802.783 24.288C799.423 24.288 796.815 23.512 794.959 21.96C793.119 20.392 792.199 18.272 792.199 15.6C792.199 12.944 793.103 10.832 794.911 9.264C796.719 7.696 799.255 6.912 802.519 6.912C805.159 6.912 807.319 7.432 808.999 8.472C810.695 9.496 811.719 10.888 812.071 12.648L808.471 12.888C808.215 12.008 807.535 11.304 806.431 10.776C805.343 10.232 804.039 9.96 802.519 9.96C800.423 9.96 798.799 10.48 797.647 11.52C796.511 12.56 795.943 13.92 795.943 15.6C795.943 17.28 796.535 18.64 797.719 19.68C798.903 20.72 800.591 21.24 802.783 21.24C804.431 21.24 805.767 20.944 806.791 20.352C807.831 19.744 808.479 18.976 808.735 18.048ZM813.491 10.272V7.2H831.851V10.272H824.555V24H820.811V10.272H813.491ZM845.924 7.2C847.86 7.2 849.428 7.656 850.628 8.568C851.844 9.48 852.452 10.824 852.452 12.6C852.452 14.392 851.86 15.72 850.676 16.584C849.508 17.432 847.924 17.856 845.924 17.856H838.412V24H834.668V7.2H838.412H845.924ZM845.732 14.952C846.66 14.952 847.388 14.752 847.916 14.352C848.444 13.952 848.708 13.368 848.708 12.6C848.708 11.832 848.444 11.256 847.916 10.872C847.388 10.472 846.66 10.272 845.732 10.272H838.412V14.952H845.732ZM869.333 24L867.581 20.232H856.973L855.221 24H851.501L859.469 7.2H865.205L873.173 24H869.333ZM858.269 17.424H866.285L862.277 8.784L858.269 17.424ZM890.227 18.048L893.851 18.24C893.531 20.16 892.555 21.648 890.923 22.704C889.307 23.76 887.091 24.288 884.275 24.288C880.915 24.288 878.307 23.512 876.451 21.96C874.611 20.392 873.691 18.272 873.691 15.6C873.691 12.944 874.595 10.832 876.403 9.264C878.211 7.696 880.747 6.912 884.011 6.912C886.651 6.912 888.811 7.432 890.491 8.472C892.187 9.496 893.211 10.888 893.563 12.648L889.963 12.888C889.707 12.008 889.027 11.304 887.923 10.776C886.835 10.232 885.531 9.96 884.011 9.96C881.915 9.96 880.291 10.48 879.139 11.52C878.003 12.56 877.435 13.92 877.435 15.6C877.435 17.28 878.027 18.64 879.211 19.68C880.395 20.72 882.083 21.24 884.275 21.24C885.923 21.24 887.259 20.944 888.283 20.352C889.323 19.744 889.971 18.976 890.227 18.048ZM894.983 10.272V7.2H913.343V10.272H906.047V24H902.303V10.272H894.983ZM927.201 13.392C929.169 13.392 930.745 13.84 931.929 14.736C933.113 15.616 933.705 16.944 933.705 18.72C933.705 20.496 933.113 21.824 931.929 22.704C930.761 23.568 929.185 24 927.201 24H917.697H916.161V7.2H919.905V13.392H927.201ZM927.009 20.928C927.921 20.928 928.641 20.736 929.169 20.352C929.697 19.968 929.961 19.4 929.961 18.648C929.961 17.896 929.697 17.328 929.169 16.944C928.641 16.56 927.921 16.368 927.009 16.368H919.905V20.928H927.009Z" fill="black"/>
<path d="M627.976 136.2H634.528L634.504 153H630.904V138.096L624.376 153H619.288L612.784 138.12V153H609.184V136.2H615.736L621.88 150.96L627.976 136.2ZM640.703 150.936C638.815 149.368 637.871 147.256 637.871 144.6C637.871 141.944 638.815 139.832 640.703 138.264C642.591 136.696 645.231 135.912 648.623 135.912C652.015 135.912 654.655 136.696 656.543 138.264C658.447 139.832 659.399 141.944 659.399 144.6C659.399 147.256 658.447 149.368 656.543 150.936C654.655 152.504 652.015 153.288 648.623 153.288C645.231 153.288 642.591 152.504 640.703 150.936ZM643.439 140.52C642.223 141.56 641.615 142.92 641.615 144.6C641.615 146.28 642.223 147.64 643.439 148.68C644.671 149.72 646.399 150.24 648.623 150.24C650.847 150.24 652.575 149.72 653.807 148.68C655.039 147.64 655.655 146.28 655.655 144.6C655.655 142.92 655.039 141.56 653.807 140.52C652.575 139.48 650.847 138.96 648.623 138.96C646.399 138.96 644.671 139.48 643.439 140.52ZM679.783 136.2V153H676.039V146.616H671.143L665.527 153H660.775L666.967 146.568C665.255 146.44 663.903 145.968 662.911 145.152C661.935 144.32 661.447 143.112 661.447 141.528C661.447 139.784 662.047 138.464 663.247 137.568C664.463 136.656 666.039 136.2 667.975 136.2H679.783ZM668.167 143.784H676.039V139.2H668.167C667.271 139.2 666.551 139.408 666.007 139.824C665.463 140.224 665.191 140.792 665.191 141.528C665.191 142.248 665.455 142.808 665.983 143.208C666.527 143.592 667.255 143.784 668.167 143.784ZM710.168 136.2V153H706.424V139.272H695.264V153H691.52V136.2H710.168ZM725.792 136.2C727.728 136.2 729.296 136.656 730.496 137.568C731.712 138.48 732.32 139.824 732.32 141.6C732.32 143.392 731.728 144.72 730.544 145.584C729.376 146.432 727.792 146.856 725.792 146.856H718.28V153H714.536V136.2H718.28H725.792ZM725.6 143.952C726.528 143.952 727.256 143.752 727.784 143.352C728.312 142.952 728.576 142.368 728.576 141.6C728.576 140.832 728.312 140.256 727.784 139.872C727.256 139.472 726.528 139.272 725.6 139.272H718.28V143.952H725.6ZM749.096 136.2H754.856V153H751.208V138.672L741.272 153H735.512V136.2H739.16V150.528L749.096 136.2ZM774.735 147.048L778.359 147.24C778.039 149.16 777.063 150.648 775.431 151.704C773.815 152.76 771.599 153.288 768.783 153.288C765.423 153.288 762.815 152.512 760.959 150.96C759.119 149.392 758.199 147.272 758.199 144.6C758.199 141.944 759.103 139.832 760.911 138.264C762.719 136.696 765.255 135.912 768.519 135.912C771.159 135.912 773.319 136.432 774.999 137.472C776.695 138.496 777.719 139.888 778.071 141.648L774.471 141.888C774.215 141.008 773.535 140.304 772.431 139.776C771.343 139.232 770.039 138.96 768.519 138.96C766.423 138.96 764.799 139.48 763.647 140.52C762.511 141.56 761.943 142.92 761.943 144.6C761.943 146.28 762.535 147.64 763.719 148.68C764.903 149.72 766.591 150.24 768.783 150.24C770.431 150.24 771.767 149.944 772.791 149.352C773.831 148.744 774.479 147.976 774.735 147.048ZM779.491 139.272V136.2H797.851V139.272H790.555V153H786.811V139.272H779.491ZM811.924 136.2C813.86 136.2 815.428 136.656 816.628 137.568C817.844 138.48 818.452 139.824 818.452 141.6C818.452 143.392 817.86 144.72 816.676 145.584C815.508 146.432 813.924 146.856 811.924 146.856H804.412V153H800.668V136.2H804.412H811.924ZM811.732 143.952C812.66 143.952 813.388 143.752 813.916 143.352C814.444 142.952 814.708 142.368 814.708 141.6C814.708 140.832 814.444 140.256 813.916 139.872C813.388 139.472 812.66 139.272 811.732 139.272H804.412V143.952H811.732ZM835.333 153L833.581 149.232H822.973L821.221 153H817.501L825.469 136.2H831.205L839.173 153H835.333ZM824.269 146.424H832.285L828.277 137.784L824.269 146.424ZM856.227 147.048L859.851 147.24C859.531 149.16 858.555 150.648 856.923 151.704C855.307 152.76 853.091 153.288 850.275 153.288C846.915 153.288 844.307 152.512 842.451 150.96C840.611 149.392 839.691 147.272 839.691 144.6C839.691 141.944 840.595 139.832 842.403 138.264C844.211 136.696 846.747 135.912 850.011 135.912C852.651 135.912 854.811 136.432 856.491 137.472C858.187 138.496 859.211 139.888 859.563 141.648L855.963 141.888C855.707 141.008 855.027 140.304 853.923 139.776C852.835 139.232 851.531 138.96 850.011 138.96C847.915 138.96 846.291 139.48 845.139 140.52C844.003 141.56 843.435 142.92 843.435 144.6C843.435 146.28 844.027 147.64 845.211 148.68C846.395 149.72 848.083 150.24 850.275 150.24C851.923 150.24 853.259 149.944 854.283 149.352C855.323 148.744 855.971 147.976 856.227 147.048ZM860.983 139.272V136.2H879.343V139.272H872.047V153H868.303V139.272H860.983ZM893.201 142.392C895.169 142.392 896.745 142.84 897.929 143.736C899.113 144.616 899.705 145.944 899.705 147.72C899.705 149.496 899.113 150.824 897.929 151.704C896.761 152.568 895.185 153 893.201 153H883.697H882.161V136.2H885.905V142.392H893.201ZM893.009 149.928C893.921 149.928 894.641 149.736 895.169 149.352C895.697 148.968 895.961 148.4 895.961 147.648C895.961 146.896 895.697 146.328 895.169 145.944C894.641 145.56 893.921 145.368 893.009 145.368H885.905V149.928H893.009Z" fill="black"/>
<path d="M531.976 177.2H538.528L538.504 194H534.904V179.096L528.376 194H523.288L516.784 179.12V194H513.184V177.2H519.736L525.88 191.96L531.976 177.2ZM544.703 191.936C542.815 190.368 541.871 188.256 541.871 185.6C541.871 182.944 542.815 180.832 544.703 179.264C546.591 177.696 549.231 176.912 552.623 176.912C556.015 176.912 558.655 177.696 560.543 179.264C562.447 180.832 563.399 182.944 563.399 185.6C563.399 188.256 562.447 190.368 560.543 191.936C558.655 193.504 556.015 194.288 552.623 194.288C549.231 194.288 546.591 193.504 544.703 191.936ZM547.439 181.52C546.223 182.56 545.615 183.92 545.615 185.6C545.615 187.28 546.223 188.64 547.439 189.68C548.671 190.72 550.399 191.24 552.623 191.24C554.847 191.24 556.575 190.72 557.807 189.68C559.039 188.64 559.655 187.28 559.655 185.6C559.655 183.92 559.039 182.56 557.807 181.52C556.575 180.48 554.847 179.96 552.623 179.96C550.399 179.96 548.671 180.48 547.439 181.52ZM583.783 177.2V194H580.039V187.616H575.143L569.527 194H564.775L570.967 187.568C569.255 187.44 567.903 186.968 566.911 186.152C565.935 185.32 565.447 184.112 565.447 182.528C565.447 180.784 566.047 179.464 567.247 178.568C568.463 177.656 570.039 177.2 571.975 177.2H583.783ZM572.167 184.784H580.039V180.2H572.167C571.271 180.2 570.551 180.408 570.007 180.824C569.463 181.224 569.191 181.792 569.191 182.528C569.191 183.248 569.455 183.808 569.983 184.208C570.527 184.592 571.255 184.784 572.167 184.784ZM614.168 177.2V194H610.424V180.272H599.264V194H595.52V177.2H614.168ZM629.792 177.2C631.728 177.2 633.296 177.656 634.496 178.568C635.712 179.48 636.32 180.824 636.32 182.6C636.32 184.392 635.728 185.72 634.544 186.584C633.376 187.432 631.792 187.856 629.792 187.856H622.28V194H618.536V177.2H622.28H629.792ZM629.6 184.952C630.528 184.952 631.256 184.752 631.784 184.352C632.312 183.952 632.576 183.368 632.576 182.6C632.576 181.832 632.312 181.256 631.784 180.872C631.256 180.472 630.528 180.272 629.6 180.272H622.28V184.952H629.6ZM653.096 177.2H658.856V194H655.208V179.672L645.272 194H639.512V177.2H643.16V191.528L653.096 177.2ZM678.735 188.048L682.359 188.24C682.039 190.16 681.063 191.648 679.431 192.704C677.815 193.76 675.599 194.288 672.783 194.288C669.423 194.288 666.815 193.512 664.959 191.96C663.119 190.392 662.199 188.272 662.199 185.6C662.199 182.944 663.103 180.832 664.911 179.264C666.719 177.696 669.255 176.912 672.519 176.912C675.159 176.912 677.319 177.432 678.999 178.472C680.695 179.496 681.719 180.888 682.071 182.648L678.471 182.888C678.215 182.008 677.535 181.304 676.431 180.776C675.343 180.232 674.039 179.96 672.519 179.96C670.423 179.96 668.799 180.48 667.647 181.52C666.511 182.56 665.943 183.92 665.943 185.6C665.943 187.28 666.535 188.64 667.719 189.68C668.903 190.72 670.591 191.24 672.783 191.24C674.431 191.24 675.767 190.944 676.791 190.352C677.831 189.744 678.479 188.976 678.735 188.048ZM683.491 180.272V177.2H701.851V180.272H694.555V194H690.811V180.272H683.491ZM715.924 177.2C717.86 177.2 719.428 177.656 720.628 178.568C721.844 179.48 722.452 180.824 722.452 182.6C722.452 184.392 721.86 185.72 720.676 186.584C719.508 187.432 717.924 187.856 715.924 187.856H708.412V194H704.668V177.2H708.412H715.924ZM715.732 184.952C716.66 184.952 717.388 184.752 717.916 184.352C718.444 183.952 718.708 183.368 718.708 182.6C718.708 181.832 718.444 181.256 717.916 180.872C717.388 180.472 716.66 180.272 715.732 180.272H708.412V184.952H715.732ZM739.333 194L737.581 190.232H726.973L725.221 194H721.501L729.469 177.2H735.205L743.173 194H739.333ZM728.269 187.424H736.285L732.277 178.784L728.269 187.424ZM760.227 188.048L763.851 188.24C763.531 190.16 762.555 191.648 760.923 192.704C759.307 193.76 757.091 194.288 754.275 194.288C750.915 194.288 748.307 193.512 746.451 191.96C744.611 190.392 743.691 188.272 743.691 185.6C743.691 182.944 744.595 180.832 746.403 179.264C748.211 177.696 750.747 176.912 754.011 176.912C756.651 176.912 758.811 177.432 760.491 178.472C762.187 179.496 763.211 180.888 763.563 182.648L759.963 182.888C759.707 182.008 759.027 181.304 757.923 180.776C756.835 180.232 755.531 179.96 754.011 179.96C751.915 179.96 750.291 180.48 749.139 181.52C748.003 182.56 747.435 183.92 747.435 185.6C747.435 187.28 748.027 188.64 749.211 189.68C750.395 190.72 752.083 191.24 754.275 191.24C755.923 191.24 757.259 190.944 758.283 190.352C759.323 189.744 759.971 188.976 760.227 188.048ZM764.983 180.272V177.2H783.343V180.272H776.047V194H772.303V180.272H764.983ZM797.201 183.392C799.169 183.392 800.745 183.84 801.929 184.736C803.113 185.616 803.705 186.944 803.705 188.72C803.705 190.496 803.113 191.824 801.929 192.704C800.761 193.568 799.185 194 797.201 194H787.697H786.161V177.2H789.905V183.392H797.201ZM797.009 190.928C797.921 190.928 798.641 190.736 799.169 190.352C799.697 189.968 799.961 189.4 799.961 188.648C799.961 187.896 799.697 187.328 799.169 186.944C798.641 186.56 797.921 186.368 797.009 186.368H789.905V190.928H797.009Z" fill="black"/>
<path d="M991.976 7.2H998.528L998.504 24H994.904V9.096L988.376 24H983.288L976.784 9.12V24H973.184V7.2H979.736L985.88 21.96L991.976 7.2ZM1004.7 21.936C1002.81 20.368 1001.87 18.256 1001.87 15.6C1001.87 12.944 1002.81 10.832 1004.7 9.264C1006.59 7.696 1009.23 6.912 1012.62 6.912C1016.01 6.912 1018.65 7.696 1020.54 9.264C1022.45 10.832 1023.4 12.944 1023.4 15.6C1023.4 18.256 1022.45 20.368 1020.54 21.936C1018.65 23.504 1016.01 24.288 1012.62 24.288C1009.23 24.288 1006.59 23.504 1004.7 21.936ZM1007.44 11.52C1006.22 12.56 1005.61 13.92 1005.61 15.6C1005.61 17.28 1006.22 18.64 1007.44 19.68C1008.67 20.72 1010.4 21.24 1012.62 21.24C1014.85 21.24 1016.57 20.72 1017.81 19.68C1019.04 18.64 1019.65 17.28 1019.65 15.6C1019.65 13.92 1019.04 12.56 1017.81 11.52C1016.57 10.48 1014.85 9.96 1012.62 9.96C1010.4 9.96 1008.67 10.48 1007.44 11.52ZM1043.78 7.2V24H1040.04V17.616H1035.14L1029.53 24H1024.78L1030.97 17.568C1029.26 17.44 1027.9 16.968 1026.91 16.152C1025.94 15.32 1025.45 14.112 1025.45 12.528C1025.45 10.784 1026.05 9.464 1027.25 8.568C1028.46 7.656 1030.04 7.2 1031.98 7.2H1043.78ZM1032.17 14.784H1040.04V10.2H1032.17C1031.27 10.2 1030.55 10.408 1030.01 10.824C1029.46 11.224 1029.19 11.792 1029.19 12.528C1029.19 13.248 1029.46 13.808 1029.98 14.208C1030.53 14.592 1031.26 14.784 1032.17 14.784ZM1074.17 7.2V24H1070.42V10.272H1059.26V24H1055.52V7.2H1074.17ZM1089.79 7.2C1091.73 7.2 1093.3 7.656 1094.5 8.568C1095.71 9.48 1096.32 10.824 1096.32 12.6C1096.32 14.392 1095.73 15.72 1094.54 16.584C1093.38 17.432 1091.79 17.856 1089.79 17.856H1082.28V24H1078.54V7.2H1082.28H1089.79ZM1089.6 14.952C1090.53 14.952 1091.26 14.752 1091.78 14.352C1092.31 13.952 1092.58 13.368 1092.58 12.6C1092.58 11.832 1092.31 11.256 1091.78 10.872C1091.26 10.472 1090.53 10.272 1089.6 10.272H1082.28V14.952H1089.6ZM1113.1 7.2H1118.86V24H1115.21V9.672L1105.27 24H1099.51V7.2H1103.16V21.528L1113.1 7.2ZM1138.73 18.048L1142.36 18.24C1142.04 20.16 1141.06 21.648 1139.43 22.704C1137.81 23.76 1135.6 24.288 1132.78 24.288C1129.42 24.288 1126.81 23.512 1124.96 21.96C1123.12 20.392 1122.2 18.272 1122.2 15.6C1122.2 12.944 1123.1 10.832 1124.91 9.264C1126.72 7.696 1129.25 6.912 1132.52 6.912C1135.16 6.912 1137.32 7.432 1139 8.472C1140.69 9.496 1141.72 10.888 1142.07 12.648L1138.47 12.888C1138.21 12.008 1137.53 11.304 1136.43 10.776C1135.34 10.232 1134.04 9.96 1132.52 9.96C1130.42 9.96 1128.8 10.48 1127.65 11.52C1126.51 12.56 1125.94 13.92 1125.94 15.6C1125.94 17.28 1126.53 18.64 1127.72 19.68C1128.9 20.72 1130.59 21.24 1132.78 21.24C1134.43 21.24 1135.77 20.944 1136.79 20.352C1137.83 19.744 1138.48 18.976 1138.73 18.048ZM1143.49 10.272V7.2H1161.85V10.272H1154.56V24H1150.81V10.272H1143.49ZM1175.92 7.2C1177.86 7.2 1179.43 7.656 1180.63 8.568C1181.84 9.48 1182.45 10.824 1182.45 12.6C1182.45 14.392 1181.86 15.72 1180.68 16.584C1179.51 17.432 1177.92 17.856 1175.92 17.856H1168.41V24H1164.67V7.2H1168.41H1175.92ZM1175.73 14.952C1176.66 14.952 1177.39 14.752 1177.92 14.352C1178.44 13.952 1178.71 13.368 1178.71 12.6C1178.71 11.832 1178.44 11.256 1177.92 10.872C1177.39 10.472 1176.66 10.272 1175.73 10.272H1168.41V14.952H1175.73ZM1199.33 24L1197.58 20.232H1186.97L1185.22 24H1181.5L1189.47 7.2H1195.21L1203.17 24H1199.33ZM1188.27 17.424H1196.29L1192.28 8.784L1188.27 17.424ZM1220.23 18.048L1223.85 18.24C1223.53 20.16 1222.56 21.648 1220.92 22.704C1219.31 23.76 1217.09 24.288 1214.28 24.288C1210.92 24.288 1208.31 23.512 1206.45 21.96C1204.61 20.392 1203.69 18.272 1203.69 15.6C1203.69 12.944 1204.6 10.832 1206.4 9.264C1208.21 7.696 1210.75 6.912 1214.01 6.912C1216.65 6.912 1218.81 7.432 1220.49 8.472C1222.19 9.496 1223.21 10.888 1223.56 12.648L1219.96 12.888C1219.71 12.008 1219.03 11.304 1217.92 10.776C1216.84 10.232 1215.53 9.96 1214.01 9.96C1211.92 9.96 1210.29 10.48 1209.14 11.52C1208 12.56 1207.44 13.92 1207.44 15.6C1207.44 17.28 1208.03 18.64 1209.21 19.68C1210.4 20.72 1212.08 21.24 1214.28 21.24C1215.92 21.24 1217.26 20.944 1218.28 20.352C1219.32 19.744 1219.97 18.976 1220.23 18.048ZM1224.98 10.272V7.2H1243.34V10.272H1236.05V24H1232.3V10.272H1224.98ZM1257.2 13.392C1259.17 13.392 1260.74 13.84 1261.93 14.736C1263.11 15.616 1263.7 16.944 1263.7 18.72C1263.7 20.496 1263.11 21.824 1261.93 22.704C1260.76 23.568 1259.18 24 1257.2 24H1247.7H1246.16V7.2H1249.9V13.392H1257.2ZM1257.01 20.928C1257.92 20.928 1258.64 20.736 1259.17 20.352C1259.7 19.968 1259.96 19.4 1259.96 18.648C1259.96 17.896 1259.7 17.328 1259.17 16.944C1258.64 16.56 1257.92 16.368 1257.01 16.368H1249.9V20.928H1257.01Z" fill="black"/>
<path d="M957.976 136.2H964.528L964.504 153H960.904V138.096L954.376 153H949.288L942.784 138.12V153H939.184V136.2H945.736L951.88 150.96L957.976 136.2ZM970.703 150.936C968.815 149.368 967.871 147.256 967.871 144.6C967.871 141.944 968.815 139.832 970.703 138.264C972.591 136.696 975.231 135.912 978.623 135.912C982.015 135.912 984.655 136.696 986.543 138.264C988.447 139.832 989.399 141.944 989.399 144.6C989.399 147.256 988.447 149.368 986.543 150.936C984.655 152.504 982.015 153.288 978.623 153.288C975.231 153.288 972.591 152.504 970.703 150.936ZM973.439 140.52C972.223 141.56 971.615 142.92 971.615 144.6C971.615 146.28 972.223 147.64 973.439 148.68C974.671 149.72 976.399 150.24 978.623 150.24C980.847 150.24 982.575 149.72 983.807 148.68C985.039 147.64 985.655 146.28 985.655 144.6C985.655 142.92 985.039 141.56 983.807 140.52C982.575 139.48 980.847 138.96 978.623 138.96C976.399 138.96 974.671 139.48 973.439 140.52ZM1009.78 136.2V153H1006.04V146.616H1001.14L995.527 153H990.775L996.967 146.568C995.255 146.44 993.903 145.968 992.911 145.152C991.935 144.32 991.447 143.112 991.447 141.528C991.447 139.784 992.047 138.464 993.247 137.568C994.463 136.656 996.039 136.2 997.975 136.2H1009.78ZM998.167 143.784H1006.04V139.2H998.167C997.271 139.2 996.551 139.408 996.007 139.824C995.463 140.224 995.191 140.792 995.191 141.528C995.191 142.248 995.455 142.808 995.983 143.208C996.527 143.592 997.255 143.784 998.167 143.784ZM1040.17 136.2V153H1036.42V139.272H1025.26V153H1021.52V136.2H1040.17ZM1055.79 136.2C1057.73 136.2 1059.3 136.656 1060.5 137.568C1061.71 138.48 1062.32 139.824 1062.32 141.6C1062.32 143.392 1061.73 144.72 1060.54 145.584C1059.38 146.432 1057.79 146.856 1055.79 146.856H1048.28V153H1044.54V136.2H1048.28H1055.79ZM1055.6 143.952C1056.53 143.952 1057.26 143.752 1057.78 143.352C1058.31 142.952 1058.58 142.368 1058.58 141.6C1058.58 140.832 1058.31 140.256 1057.78 139.872C1057.26 139.472 1056.53 139.272 1055.6 139.272H1048.28V143.952H1055.6ZM1079.1 136.2H1084.86V153H1081.21V138.672L1071.27 153H1065.51V136.2H1069.16V150.528L1079.1 136.2ZM1104.73 147.048L1108.36 147.24C1108.04 149.16 1107.06 150.648 1105.43 151.704C1103.81 152.76 1101.6 153.288 1098.78 153.288C1095.42 153.288 1092.81 152.512 1090.96 150.96C1089.12 149.392 1088.2 147.272 1088.2 144.6C1088.2 141.944 1089.1 139.832 1090.91 138.264C1092.72 136.696 1095.25 135.912 1098.52 135.912C1101.16 135.912 1103.32 136.432 1105 137.472C1106.69 138.496 1107.72 139.888 1108.07 141.648L1104.47 141.888C1104.21 141.008 1103.53 140.304 1102.43 139.776C1101.34 139.232 1100.04 138.96 1098.52 138.96C1096.42 138.96 1094.8 139.48 1093.65 140.52C1092.51 141.56 1091.94 142.92 1091.94 144.6C1091.94 146.28 1092.53 147.64 1093.72 148.68C1094.9 149.72 1096.59 150.24 1098.78 150.24C1100.43 150.24 1101.77 149.944 1102.79 149.352C1103.83 148.744 1104.48 147.976 1104.73 147.048ZM1109.49 139.272V136.2H1127.85V139.272H1120.56V153H1116.81V139.272H1109.49ZM1141.92 136.2C1143.86 136.2 1145.43 136.656 1146.63 137.568C1147.84 138.48 1148.45 139.824 1148.45 141.6C1148.45 143.392 1147.86 144.72 1146.68 145.584C1145.51 146.432 1143.92 146.856 1141.92 146.856H1134.41V153H1130.67V136.2H1134.41H1141.92ZM1141.73 143.952C1142.66 143.952 1143.39 143.752 1143.92 143.352C1144.44 142.952 1144.71 142.368 1144.71 141.6C1144.71 140.832 1144.44 140.256 1143.92 139.872C1143.39 139.472 1142.66 139.272 1141.73 139.272H1134.41V143.952H1141.73ZM1165.33 153L1163.58 149.232H1152.97L1151.22 153H1147.5L1155.47 136.2H1161.21L1169.17 153H1165.33ZM1154.27 146.424H1162.29L1158.28 137.784L1154.27 146.424ZM1186.23 147.048L1189.85 147.24C1189.53 149.16 1188.56 150.648 1186.92 151.704C1185.31 152.76 1183.09 153.288 1180.28 153.288C1176.92 153.288 1174.31 152.512 1172.45 150.96C1170.61 149.392 1169.69 147.272 1169.69 144.6C1169.69 141.944 1170.6 139.832 1172.4 138.264C1174.21 136.696 1176.75 135.912 1180.01 135.912C1182.65 135.912 1184.81 136.432 1186.49 137.472C1188.19 138.496 1189.21 139.888 1189.56 141.648L1185.96 141.888C1185.71 141.008 1185.03 140.304 1183.92 139.776C1182.84 139.232 1181.53 138.96 1180.01 138.96C1177.92 138.96 1176.29 139.48 1175.14 140.52C1174 141.56 1173.44 142.92 1173.44 144.6C1173.44 146.28 1174.03 147.64 1175.21 148.68C1176.4 149.72 1178.08 150.24 1180.28 150.24C1181.92 150.24 1183.26 149.944 1184.28 149.352C1185.32 148.744 1185.97 147.976 1186.23 147.048ZM1190.98 139.272V136.2H1209.34V139.272H1202.05V153H1198.3V139.272H1190.98ZM1223.2 142.392C1225.17 142.392 1226.74 142.84 1227.93 143.736C1229.11 144.616 1229.7 145.944 1229.7 147.72C1229.7 149.496 1229.11 150.824 1227.93 151.704C1226.76 152.568 1225.18 153 1223.2 153H1213.7H1212.16V136.2H1215.9V142.392H1223.2ZM1223.01 149.928C1223.92 149.928 1224.64 149.736 1225.17 149.352C1225.7 148.968 1225.96 148.4 1225.96 147.648C1225.96 146.896 1225.7 146.328 1225.17 145.944C1224.64 145.56 1223.92 145.368 1223.01 145.368H1215.9V149.928H1223.01Z" fill="black"/>
<path d="M861.976 177.2H868.528L868.504 194H864.904V179.096L858.376 194H853.288L846.784 179.12V194H843.184V177.2H849.736L855.88 191.96L861.976 177.2ZM874.703 191.936C872.815 190.368 871.871 188.256 871.871 185.6C871.871 182.944 872.815 180.832 874.703 179.264C876.591 177.696 879.231 176.912 882.623 176.912C886.015 176.912 888.655 177.696 890.543 179.264C892.447 180.832 893.399 182.944 893.399 185.6C893.399 188.256 892.447 190.368 890.543 191.936C888.655 193.504 886.015 194.288 882.623 194.288C879.231 194.288 876.591 193.504 874.703 191.936ZM877.439 181.52C876.223 182.56 875.615 183.92 875.615 185.6C875.615 187.28 876.223 188.64 877.439 189.68C878.671 190.72 880.399 191.24 882.623 191.24C884.847 191.24 886.575 190.72 887.807 189.68C889.039 188.64 889.655 187.28 889.655 185.6C889.655 183.92 889.039 182.56 887.807 181.52C886.575 180.48 884.847 179.96 882.623 179.96C880.399 179.96 878.671 180.48 877.439 181.52ZM913.783 177.2V194H910.039V187.616H905.143L899.527 194H894.775L900.967 187.568C899.255 187.44 897.903 186.968 896.911 186.152C895.935 185.32 895.447 184.112 895.447 182.528C895.447 180.784 896.047 179.464 897.247 178.568C898.463 177.656 900.039 177.2 901.975 177.2H913.783ZM902.167 184.784H910.039V180.2H902.167C901.271 180.2 900.551 180.408 900.007 180.824C899.463 181.224 899.191 181.792 899.191 182.528C899.191 183.248 899.455 183.808 899.983 184.208C900.527 184.592 901.255 184.784 902.167 184.784ZM944.168 177.2V194H940.424V180.272H929.264V194H925.52V177.2H944.168ZM959.792 177.2C961.728 177.2 963.296 177.656 964.496 178.568C965.712 179.48 966.32 180.824 966.32 182.6C966.32 184.392 965.728 185.72 964.544 186.584C963.376 187.432 961.792 187.856 959.792 187.856H952.28V194H948.536V177.2H952.28H959.792ZM959.6 184.952C960.528 184.952 961.256 184.752 961.784 184.352C962.312 183.952 962.576 183.368 962.576 182.6C962.576 181.832 962.312 181.256 961.784 180.872C961.256 180.472 960.528 180.272 959.6 180.272H952.28V184.952H959.6ZM983.096 177.2H988.856V194H985.208V179.672L975.272 194H969.512V177.2H973.16V191.528L983.096 177.2ZM1008.73 188.048L1012.36 188.24C1012.04 190.16 1011.06 191.648 1009.43 192.704C1007.81 193.76 1005.6 194.288 1002.78 194.288C999.423 194.288 996.815 193.512 994.959 191.96C993.119 190.392 992.199 188.272 992.199 185.6C992.199 182.944 993.103 180.832 994.911 179.264C996.719 177.696 999.255 176.912 1002.52 176.912C1005.16 176.912 1007.32 177.432 1009 178.472C1010.69 179.496 1011.72 180.888 1012.07 182.648L1008.47 182.888C1008.21 182.008 1007.53 181.304 1006.43 180.776C1005.34 180.232 1004.04 179.96 1002.52 179.96C1000.42 179.96 998.799 180.48 997.647 181.52C996.511 182.56 995.943 183.92 995.943 185.6C995.943 187.28 996.535 188.64 997.719 189.68C998.903 190.72 1000.59 191.24 1002.78 191.24C1004.43 191.24 1005.77 190.944 1006.79 190.352C1007.83 189.744 1008.48 188.976 1008.73 188.048ZM1013.49 180.272V177.2H1031.85V180.272H1024.56V194H1020.81V180.272H1013.49ZM1045.92 177.2C1047.86 177.2 1049.43 177.656 1050.63 178.568C1051.84 179.48 1052.45 180.824 1052.45 182.6C1052.45 184.392 1051.86 185.72 1050.68 186.584C1049.51 187.432 1047.92 187.856 1045.92 187.856H1038.41V194H1034.67V177.2H1038.41H1045.92ZM1045.73 184.952C1046.66 184.952 1047.39 184.752 1047.92 184.352C1048.44 183.952 1048.71 183.368 1048.71 182.6C1048.71 181.832 1048.44 181.256 1047.92 180.872C1047.39 180.472 1046.66 180.272 1045.73 180.272H1038.41V184.952H1045.73ZM1069.33 194L1067.58 190.232H1056.97L1055.22 194H1051.5L1059.47 177.2H1065.21L1073.17 194H1069.33ZM1058.27 187.424H1066.29L1062.28 178.784L1058.27 187.424ZM1090.23 188.048L1093.85 188.24C1093.53 190.16 1092.56 191.648 1090.92 192.704C1089.31 193.76 1087.09 194.288 1084.28 194.288C1080.92 194.288 1078.31 193.512 1076.45 191.96C1074.61 190.392 1073.69 188.272 1073.69 185.6C1073.69 182.944 1074.6 180.832 1076.4 179.264C1078.21 177.696 1080.75 176.912 1084.01 176.912C1086.65 176.912 1088.81 177.432 1090.49 178.472C1092.19 179.496 1093.21 180.888 1093.56 182.648L1089.96 182.888C1089.71 182.008 1089.03 181.304 1087.92 180.776C1086.84 180.232 1085.53 179.96 1084.01 179.96C1081.92 179.96 1080.29 180.48 1079.14 181.52C1078 182.56 1077.44 183.92 1077.44 185.6C1077.44 187.28 1078.03 188.64 1079.21 189.68C1080.4 190.72 1082.08 191.24 1084.28 191.24C1085.92 191.24 1087.26 190.944 1088.28 190.352C1089.32 189.744 1089.97 188.976 1090.23 188.048ZM1094.98 180.272V177.2H1113.34V180.272H1106.05V194H1102.3V180.272H1094.98ZM1127.2 183.392C1129.17 183.392 1130.74 183.84 1131.93 184.736C1133.11 185.616 1133.7 186.944 1133.7 188.72C1133.7 190.496 1133.11 191.824 1131.93 192.704C1130.76 193.568 1129.18 194 1127.2 194H1117.7H1116.16V177.2H1119.9V183.392H1127.2ZM1127.01 190.928C1127.92 190.928 1128.64 190.736 1129.17 190.352C1129.7 189.968 1129.96 189.4 1129.96 188.648C1129.96 187.896 1129.7 187.328 1129.17 186.944C1128.64 186.56 1127.92 186.368 1127.01 186.368H1119.9V190.928H1127.01Z" fill="black"/>
<path d="M1314.98 7.2H1321.53L1321.5 24H1317.9V9.096L1311.38 24H1306.29L1299.78 9.12V24H1296.18V7.2H1302.74L1308.88 21.96L1314.98 7.2ZM1327.7 21.936C1325.81 20.368 1324.87 18.256 1324.87 15.6C1324.87 12.944 1325.81 10.832 1327.7 9.264C1329.59 7.696 1332.23 6.912 1335.62 6.912C1339.01 6.912 1341.65 7.696 1343.54 9.264C1345.45 10.832 1346.4 12.944 1346.4 15.6C1346.4 18.256 1345.45 20.368 1343.54 21.936C1341.65 23.504 1339.01 24.288 1335.62 24.288C1332.23 24.288 1329.59 23.504 1327.7 21.936ZM1330.44 11.52C1329.22 12.56 1328.61 13.92 1328.61 15.6C1328.61 17.28 1329.22 18.64 1330.44 19.68C1331.67 20.72 1333.4 21.24 1335.62 21.24C1337.85 21.24 1339.57 20.72 1340.81 19.68C1342.04 18.64 1342.65 17.28 1342.65 15.6C1342.65 13.92 1342.04 12.56 1340.81 11.52C1339.57 10.48 1337.85 9.96 1335.62 9.96C1333.4 9.96 1331.67 10.48 1330.44 11.52ZM1366.78 7.2V24H1363.04V17.616H1358.14L1352.53 24H1347.78L1353.97 17.568C1352.26 17.44 1350.9 16.968 1349.91 16.152C1348.94 15.32 1348.45 14.112 1348.45 12.528C1348.45 10.784 1349.05 9.464 1350.25 8.568C1351.46 7.656 1353.04 7.2 1354.98 7.2H1366.78ZM1355.17 14.784H1363.04V10.2H1355.17C1354.27 10.2 1353.55 10.408 1353.01 10.824C1352.46 11.224 1352.19 11.792 1352.19 12.528C1352.19 13.248 1352.46 13.808 1352.98 14.208C1353.53 14.592 1354.26 14.784 1355.17 14.784ZM1397.17 7.2V24H1393.42V10.272H1382.26V24H1378.52V7.2H1397.17ZM1412.79 7.2C1414.73 7.2 1416.3 7.656 1417.5 8.568C1418.71 9.48 1419.32 10.824 1419.32 12.6C1419.32 14.392 1418.73 15.72 1417.54 16.584C1416.38 17.432 1414.79 17.856 1412.79 17.856H1405.28V24H1401.54V7.2H1405.28H1412.79ZM1412.6 14.952C1413.53 14.952 1414.26 14.752 1414.78 14.352C1415.31 13.952 1415.58 13.368 1415.58 12.6C1415.58 11.832 1415.31 11.256 1414.78 10.872C1414.26 10.472 1413.53 10.272 1412.6 10.272H1405.28V14.952H1412.6ZM1436.1 7.2H1441.86V24H1438.21V9.672L1428.27 24H1422.51V7.2H1426.16V21.528L1436.1 7.2ZM1461.73 18.048L1465.36 18.24C1465.04 20.16 1464.06 21.648 1462.43 22.704C1460.81 23.76 1458.6 24.288 1455.78 24.288C1452.42 24.288 1449.81 23.512 1447.96 21.96C1446.12 20.392 1445.2 18.272 1445.2 15.6C1445.2 12.944 1446.1 10.832 1447.91 9.264C1449.72 7.696 1452.25 6.912 1455.52 6.912C1458.16 6.912 1460.32 7.432 1462 8.472C1463.69 9.496 1464.72 10.888 1465.07 12.648L1461.47 12.888C1461.21 12.008 1460.53 11.304 1459.43 10.776C1458.34 10.232 1457.04 9.96 1455.52 9.96C1453.42 9.96 1451.8 10.48 1450.65 11.52C1449.51 12.56 1448.94 13.92 1448.94 15.6C1448.94 17.28 1449.53 18.64 1450.72 19.68C1451.9 20.72 1453.59 21.24 1455.78 21.24C1457.43 21.24 1458.77 20.944 1459.79 20.352C1460.83 19.744 1461.48 18.976 1461.73 18.048ZM1466.49 10.272V7.2H1484.85V10.272H1477.56V24H1473.81V10.272H1466.49ZM1498.92 7.2C1500.86 7.2 1502.43 7.656 1503.63 8.568C1504.84 9.48 1505.45 10.824 1505.45 12.6C1505.45 14.392 1504.86 15.72 1503.68 16.584C1502.51 17.432 1500.92 17.856 1498.92 17.856H1491.41V24H1487.67V7.2H1491.41H1498.92ZM1498.73 14.952C1499.66 14.952 1500.39 14.752 1500.92 14.352C1501.44 13.952 1501.71 13.368 1501.71 12.6C1501.71 11.832 1501.44 11.256 1500.92 10.872C1500.39 10.472 1499.66 10.272 1498.73 10.272H1491.41V14.952H1498.73ZM1522.33 24L1520.58 20.232H1509.97L1508.22 24H1504.5L1512.47 7.2H1518.21L1526.17 24H1522.33ZM1511.27 17.424H1519.29L1515.28 8.784L1511.27 17.424ZM1543.23 18.048L1546.85 18.24C1546.53 20.16 1545.56 21.648 1543.92 22.704C1542.31 23.76 1540.09 24.288 1537.28 24.288C1533.92 24.288 1531.31 23.512 1529.45 21.96C1527.61 20.392 1526.69 18.272 1526.69 15.6C1526.69 12.944 1527.6 10.832 1529.4 9.264C1531.21 7.696 1533.75 6.912 1537.01 6.912C1539.65 6.912 1541.81 7.432 1543.49 8.472C1545.19 9.496 1546.21 10.888 1546.56 12.648L1542.96 12.888C1542.71 12.008 1542.03 11.304 1540.92 10.776C1539.84 10.232 1538.53 9.96 1537.01 9.96C1534.92 9.96 1533.29 10.48 1532.14 11.52C1531 12.56 1530.44 13.92 1530.44 15.6C1530.44 17.28 1531.03 18.64 1532.21 19.68C1533.4 20.72 1535.08 21.24 1537.28 21.24C1538.92 21.24 1540.26 20.944 1541.28 20.352C1542.32 19.744 1542.97 18.976 1543.23 18.048ZM1547.98 10.272V7.2H1566.34V10.272H1559.05V24H1555.3V10.272H1547.98ZM1580.2 13.392C1582.17 13.392 1583.74 13.84 1584.93 14.736C1586.11 15.616 1586.7 16.944 1586.7 18.72C1586.7 20.496 1586.11 21.824 1584.93 22.704C1583.76 23.568 1582.18 24 1580.2 24H1570.7H1569.16V7.2H1572.9V13.392H1580.2ZM1580.01 20.928C1580.92 20.928 1581.64 20.736 1582.17 20.352C1582.7 19.968 1582.96 19.4 1582.96 18.648C1582.96 17.896 1582.7 17.328 1582.17 16.944C1581.64 16.56 1580.92 16.368 1580.01 16.368H1572.9V20.928H1580.01Z" fill="black"/>
<path d="M1280.98 136.2H1287.53L1287.5 153H1283.9V138.096L1277.38 153H1272.29L1265.78 138.12V153H1262.18V136.2H1268.74L1274.88 150.96L1280.98 136.2ZM1293.7 150.936C1291.81 149.368 1290.87 147.256 1290.87 144.6C1290.87 141.944 1291.81 139.832 1293.7 138.264C1295.59 136.696 1298.23 135.912 1301.62 135.912C1305.01 135.912 1307.65 136.696 1309.54 138.264C1311.45 139.832 1312.4 141.944 1312.4 144.6C1312.4 147.256 1311.45 149.368 1309.54 150.936C1307.65 152.504 1305.01 153.288 1301.62 153.288C1298.23 153.288 1295.59 152.504 1293.7 150.936ZM1296.44 140.52C1295.22 141.56 1294.61 142.92 1294.61 144.6C1294.61 146.28 1295.22 147.64 1296.44 148.68C1297.67 149.72 1299.4 150.24 1301.62 150.24C1303.85 150.24 1305.57 149.72 1306.81 148.68C1308.04 147.64 1308.65 146.28 1308.65 144.6C1308.65 142.92 1308.04 141.56 1306.81 140.52C1305.57 139.48 1303.85 138.96 1301.62 138.96C1299.4 138.96 1297.67 139.48 1296.44 140.52ZM1332.78 136.2V153H1329.04V146.616H1324.14L1318.53 153H1313.78L1319.97 146.568C1318.26 146.44 1316.9 145.968 1315.91 145.152C1314.94 144.32 1314.45 143.112 1314.45 141.528C1314.45 139.784 1315.05 138.464 1316.25 137.568C1317.46 136.656 1319.04 136.2 1320.98 136.2H1332.78ZM1321.17 143.784H1329.04V139.2H1321.17C1320.27 139.2 1319.55 139.408 1319.01 139.824C1318.46 140.224 1318.19 140.792 1318.19 141.528C1318.19 142.248 1318.46 142.808 1318.98 143.208C1319.53 143.592 1320.26 143.784 1321.17 143.784ZM1363.17 136.2V153H1359.42V139.272H1348.26V153H1344.52V136.2H1363.17ZM1378.79 136.2C1380.73 136.2 1382.3 136.656 1383.5 137.568C1384.71 138.48 1385.32 139.824 1385.32 141.6C1385.32 143.392 1384.73 144.72 1383.54 145.584C1382.38 146.432 1380.79 146.856 1378.79 146.856H1371.28V153H1367.54V136.2H1371.28H1378.79ZM1378.6 143.952C1379.53 143.952 1380.26 143.752 1380.78 143.352C1381.31 142.952 1381.58 142.368 1381.58 141.6C1381.58 140.832 1381.31 140.256 1380.78 139.872C1380.26 139.472 1379.53 139.272 1378.6 139.272H1371.28V143.952H1378.6ZM1402.1 136.2H1407.86V153H1404.21V138.672L1394.27 153H1388.51V136.2H1392.16V150.528L1402.1 136.2ZM1427.73 147.048L1431.36 147.24C1431.04 149.16 1430.06 150.648 1428.43 151.704C1426.81 152.76 1424.6 153.288 1421.78 153.288C1418.42 153.288 1415.81 152.512 1413.96 150.96C1412.12 149.392 1411.2 147.272 1411.2 144.6C1411.2 141.944 1412.1 139.832 1413.91 138.264C1415.72 136.696 1418.25 135.912 1421.52 135.912C1424.16 135.912 1426.32 136.432 1428 137.472C1429.69 138.496 1430.72 139.888 1431.07 141.648L1427.47 141.888C1427.21 141.008 1426.53 140.304 1425.43 139.776C1424.34 139.232 1423.04 138.96 1421.52 138.96C1419.42 138.96 1417.8 139.48 1416.65 140.52C1415.51 141.56 1414.94 142.92 1414.94 144.6C1414.94 146.28 1415.53 147.64 1416.72 148.68C1417.9 149.72 1419.59 150.24 1421.78 150.24C1423.43 150.24 1424.77 149.944 1425.79 149.352C1426.83 148.744 1427.48 147.976 1427.73 147.048ZM1432.49 139.272V136.2H1450.85V139.272H1443.56V153H1439.81V139.272H1432.49ZM1464.92 136.2C1466.86 136.2 1468.43 136.656 1469.63 137.568C1470.84 138.48 1471.45 139.824 1471.45 141.6C1471.45 143.392 1470.86 144.72 1469.68 145.584C1468.51 146.432 1466.92 146.856 1464.92 146.856H1457.41V153H1453.67V136.2H1457.41H1464.92ZM1464.73 143.952C1465.66 143.952 1466.39 143.752 1466.92 143.352C1467.44 142.952 1467.71 142.368 1467.71 141.6C1467.71 140.832 1467.44 140.256 1466.92 139.872C1466.39 139.472 1465.66 139.272 1464.73 139.272H1457.41V143.952H1464.73ZM1488.33 153L1486.58 149.232H1475.97L1474.22 153H1470.5L1478.47 136.2H1484.21L1492.17 153H1488.33ZM1477.27 146.424H1485.29L1481.28 137.784L1477.27 146.424ZM1509.23 147.048L1512.85 147.24C1512.53 149.16 1511.56 150.648 1509.92 151.704C1508.31 152.76 1506.09 153.288 1503.28 153.288C1499.92 153.288 1497.31 152.512 1495.45 150.96C1493.61 149.392 1492.69 147.272 1492.69 144.6C1492.69 141.944 1493.6 139.832 1495.4 138.264C1497.21 136.696 1499.75 135.912 1503.01 135.912C1505.65 135.912 1507.81 136.432 1509.49 137.472C1511.19 138.496 1512.21 139.888 1512.56 141.648L1508.96 141.888C1508.71 141.008 1508.03 140.304 1506.92 139.776C1505.84 139.232 1504.53 138.96 1503.01 138.96C1500.92 138.96 1499.29 139.48 1498.14 140.52C1497 141.56 1496.44 142.92 1496.44 144.6C1496.44 146.28 1497.03 147.64 1498.21 148.68C1499.4 149.72 1501.08 150.24 1503.28 150.24C1504.92 150.24 1506.26 149.944 1507.28 149.352C1508.32 148.744 1508.97 147.976 1509.23 147.048ZM1513.98 139.272V136.2H1532.34V139.272H1525.05V153H1521.3V139.272H1513.98ZM1546.2 142.392C1548.17 142.392 1549.74 142.84 1550.93 143.736C1552.11 144.616 1552.7 145.944 1552.7 147.72C1552.7 149.496 1552.11 150.824 1550.93 151.704C1549.76 152.568 1548.18 153 1546.2 153H1536.7H1535.16V136.2H1538.9V142.392H1546.2ZM1546.01 149.928C1546.92 149.928 1547.64 149.736 1548.17 149.352C1548.7 148.968 1548.96 148.4 1548.96 147.648C1548.96 146.896 1548.7 146.328 1548.17 145.944C1547.64 145.56 1546.92 145.368 1546.01 145.368H1538.9V149.928H1546.01Z" fill="black"/>
<path d="M1184.98 177.2H1191.53L1191.5 194H1187.9V179.096L1181.38 194H1176.29L1169.78 179.12V194H1166.18V177.2H1172.74L1178.88 191.96L1184.98 177.2ZM1197.7 191.936C1195.81 190.368 1194.87 188.256 1194.87 185.6C1194.87 182.944 1195.81 180.832 1197.7 179.264C1199.59 177.696 1202.23 176.912 1205.62 176.912C1209.01 176.912 1211.65 177.696 1213.54 179.264C1215.45 180.832 1216.4 182.944 1216.4 185.6C1216.4 188.256 1215.45 190.368 1213.54 191.936C1211.65 193.504 1209.01 194.288 1205.62 194.288C1202.23 194.288 1199.59 193.504 1197.7 191.936ZM1200.44 181.52C1199.22 182.56 1198.61 183.92 1198.61 185.6C1198.61 187.28 1199.22 188.64 1200.44 189.68C1201.67 190.72 1203.4 191.24 1205.62 191.24C1207.85 191.24 1209.57 190.72 1210.81 189.68C1212.04 188.64 1212.65 187.28 1212.65 185.6C1212.65 183.92 1212.04 182.56 1210.81 181.52C1209.57 180.48 1207.85 179.96 1205.62 179.96C1203.4 179.96 1201.67 180.48 1200.44 181.52ZM1236.78 177.2V194H1233.04V187.616H1228.14L1222.53 194H1217.78L1223.97 187.568C1222.26 187.44 1220.9 186.968 1219.91 186.152C1218.94 185.32 1218.45 184.112 1218.45 182.528C1218.45 180.784 1219.05 179.464 1220.25 178.568C1221.46 177.656 1223.04 177.2 1224.98 177.2H1236.78ZM1225.17 184.784H1233.04V180.2H1225.17C1224.27 180.2 1223.55 180.408 1223.01 180.824C1222.46 181.224 1222.19 181.792 1222.19 182.528C1222.19 183.248 1222.46 183.808 1222.98 184.208C1223.53 184.592 1224.26 184.784 1225.17 184.784ZM1267.17 177.2V194H1263.42V180.272H1252.26V194H1248.52V177.2H1267.17ZM1282.79 177.2C1284.73 177.2 1286.3 177.656 1287.5 178.568C1288.71 179.48 1289.32 180.824 1289.32 182.6C1289.32 184.392 1288.73 185.72 1287.54 186.584C1286.38 187.432 1284.79 187.856 1282.79 187.856H1275.28V194H1271.54V177.2H1275.28H1282.79ZM1282.6 184.952C1283.53 184.952 1284.26 184.752 1284.78 184.352C1285.31 183.952 1285.58 183.368 1285.58 182.6C1285.58 181.832 1285.31 181.256 1284.78 180.872C1284.26 180.472 1283.53 180.272 1282.6 180.272H1275.28V184.952H1282.6ZM1306.1 177.2H1311.86V194H1308.21V179.672L1298.27 194H1292.51V177.2H1296.16V191.528L1306.1 177.2ZM1331.73 188.048L1335.36 188.24C1335.04 190.16 1334.06 191.648 1332.43 192.704C1330.81 193.76 1328.6 194.288 1325.78 194.288C1322.42 194.288 1319.81 193.512 1317.96 191.96C1316.12 190.392 1315.2 188.272 1315.2 185.6C1315.2 182.944 1316.1 180.832 1317.91 179.264C1319.72 177.696 1322.25 176.912 1325.52 176.912C1328.16 176.912 1330.32 177.432 1332 178.472C1333.69 179.496 1334.72 180.888 1335.07 182.648L1331.47 182.888C1331.21 182.008 1330.53 181.304 1329.43 180.776C1328.34 180.232 1327.04 179.96 1325.52 179.96C1323.42 179.96 1321.8 180.48 1320.65 181.52C1319.51 182.56 1318.94 183.92 1318.94 185.6C1318.94 187.28 1319.53 188.64 1320.72 189.68C1321.9 190.72 1323.59 191.24 1325.78 191.24C1327.43 191.24 1328.77 190.944 1329.79 190.352C1330.83 189.744 1331.48 188.976 1331.73 188.048ZM1336.49 180.272V177.2H1354.85V180.272H1347.56V194H1343.81V180.272H1336.49ZM1368.92 177.2C1370.86 177.2 1372.43 177.656 1373.63 178.568C1374.84 179.48 1375.45 180.824 1375.45 182.6C1375.45 184.392 1374.86 185.72 1373.68 186.584C1372.51 187.432 1370.92 187.856 1368.92 187.856H1361.41V194H1357.67V177.2H1361.41H1368.92ZM1368.73 184.952C1369.66 184.952 1370.39 184.752 1370.92 184.352C1371.44 183.952 1371.71 183.368 1371.71 182.6C1371.71 181.832 1371.44 181.256 1370.92 180.872C1370.39 180.472 1369.66 180.272 1368.73 180.272H1361.41V184.952H1368.73ZM1392.33 194L1390.58 190.232H1379.97L1378.22 194H1374.5L1382.47 177.2H1388.21L1396.17 194H1392.33ZM1381.27 187.424H1389.29L1385.28 178.784L1381.27 187.424ZM1413.23 188.048L1416.85 188.24C1416.53 190.16 1415.56 191.648 1413.92 192.704C1412.31 193.76 1410.09 194.288 1407.28 194.288C1403.92 194.288 1401.31 193.512 1399.45 191.96C1397.61 190.392 1396.69 188.272 1396.69 185.6C1396.69 182.944 1397.6 180.832 1399.4 179.264C1401.21 177.696 1403.75 176.912 1407.01 176.912C1409.65 176.912 1411.81 177.432 1413.49 178.472C1415.19 179.496 1416.21 180.888 1416.56 182.648L1412.96 182.888C1412.71 182.008 1412.03 181.304 1410.92 180.776C1409.84 180.232 1408.53 179.96 1407.01 179.96C1404.92 179.96 1403.29 180.48 1402.14 181.52C1401 182.56 1400.44 183.92 1400.44 185.6C1400.44 187.28 1401.03 188.64 1402.21 189.68C1403.4 190.72 1405.08 191.24 1407.28 191.24C1408.92 191.24 1410.26 190.944 1411.28 190.352C1412.32 189.744 1412.97 188.976 1413.23 188.048ZM1417.98 180.272V177.2H1436.34V180.272H1429.05V194H1425.3V180.272H1417.98ZM1450.2 183.392C1452.17 183.392 1453.74 183.84 1454.93 184.736C1456.11 185.616 1456.7 186.944 1456.7 188.72C1456.7 190.496 1456.11 191.824 1454.93 192.704C1453.76 193.568 1452.18 194 1450.2 194H1440.7H1439.16V177.2H1442.9V183.392H1450.2ZM1450.01 190.928C1450.92 190.928 1451.64 190.736 1452.17 190.352C1452.7 189.968 1452.96 189.4 1452.96 188.648C1452.96 187.896 1452.7 187.328 1452.17 186.944C1451.64 186.56 1450.92 186.368 1450.01 186.368H1442.9V190.928H1450.01Z" fill="black"/>
<path d="M1019.98 48.2H1026.53L1026.5 65H1022.9V50.096L1016.38 65H1011.29L1004.78 50.12V65H1001.18V48.2H1007.74L1013.88 62.96L1019.98 48.2ZM1032.7 62.936C1030.81 61.368 1029.87 59.256 1029.87 56.6C1029.87 53.944 1030.81 51.832 1032.7 50.264C1034.59 48.696 1037.23 47.912 1040.62 47.912C1044.01 47.912 1046.65 48.696 1048.54 50.264C1050.45 51.832 1051.4 53.944 1051.4 56.6C1051.4 59.256 1050.45 61.368 1048.54 62.936C1046.65 64.504 1044.01 65.288 1040.62 65.288C1037.23 65.288 1034.59 64.504 1032.7 62.936ZM1035.44 52.52C1034.22 53.56 1033.61 54.92 1033.61 56.6C1033.61 58.28 1034.22 59.64 1035.44 60.68C1036.67 61.72 1038.4 62.24 1040.62 62.24C1042.85 62.24 1044.57 61.72 1045.81 60.68C1047.04 59.64 1047.65 58.28 1047.65 56.6C1047.65 54.92 1047.04 53.56 1045.81 52.52C1044.57 51.48 1042.85 50.96 1040.62 50.96C1038.4 50.96 1036.67 51.48 1035.44 52.52ZM1071.78 48.2V65H1068.04V58.616H1063.14L1057.53 65H1052.78L1058.97 58.568C1057.26 58.44 1055.9 57.968 1054.91 57.152C1053.94 56.32 1053.45 55.112 1053.45 53.528C1053.45 51.784 1054.05 50.464 1055.25 49.568C1056.46 48.656 1058.04 48.2 1059.98 48.2H1071.78ZM1060.17 55.784H1068.04V51.2H1060.17C1059.27 51.2 1058.55 51.408 1058.01 51.824C1057.46 52.224 1057.19 52.792 1057.19 53.528C1057.19 54.248 1057.46 54.808 1057.98 55.208C1058.53 55.592 1059.26 55.784 1060.17 55.784ZM1102.17 48.2V65H1098.42V51.272H1087.26V65H1083.52V48.2H1102.17ZM1117.79 48.2C1119.73 48.2 1121.3 48.656 1122.5 49.568C1123.71 50.48 1124.32 51.824 1124.32 53.6C1124.32 55.392 1123.73 56.72 1122.54 57.584C1121.38 58.432 1119.79 58.856 1117.79 58.856H1110.28V65H1106.54V48.2H1110.28H1117.79ZM1117.6 55.952C1118.53 55.952 1119.26 55.752 1119.78 55.352C1120.31 54.952 1120.58 54.368 1120.58 53.6C1120.58 52.832 1120.31 52.256 1119.78 51.872C1119.26 51.472 1118.53 51.272 1117.6 51.272H1110.28V55.952H1117.6ZM1141.1 48.2H1146.86V65H1143.21V50.672L1133.27 65H1127.51V48.2H1131.16V62.528L1141.1 48.2ZM1166.73 59.048L1170.36 59.24C1170.04 61.16 1169.06 62.648 1167.43 63.704C1165.81 64.76 1163.6 65.288 1160.78 65.288C1157.42 65.288 1154.81 64.512 1152.96 62.96C1151.12 61.392 1150.2 59.272 1150.2 56.6C1150.2 53.944 1151.1 51.832 1152.91 50.264C1154.72 48.696 1157.25 47.912 1160.52 47.912C1163.16 47.912 1165.32 48.432 1167 49.472C1168.69 50.496 1169.72 51.888 1170.07 53.648L1166.47 53.888C1166.21 53.008 1165.53 52.304 1164.43 51.776C1163.34 51.232 1162.04 50.96 1160.52 50.96C1158.42 50.96 1156.8 51.48 1155.65 52.52C1154.51 53.56 1153.94 54.92 1153.94 56.6C1153.94 58.28 1154.53 59.64 1155.72 60.68C1156.9 61.72 1158.59 62.24 1160.78 62.24C1162.43 62.24 1163.77 61.944 1164.79 61.352C1165.83 60.744 1166.48 59.976 1166.73 59.048ZM1171.49 51.272V48.2H1189.85V51.272H1182.56V65H1178.81V51.272H1171.49ZM1203.92 48.2C1205.86 48.2 1207.43 48.656 1208.63 49.568C1209.84 50.48 1210.45 51.824 1210.45 53.6C1210.45 55.392 1209.86 56.72 1208.68 57.584C1207.51 58.432 1205.92 58.856 1203.92 58.856H1196.41V65H1192.67V48.2H1196.41H1203.92ZM1203.73 55.952C1204.66 55.952 1205.39 55.752 1205.92 55.352C1206.44 54.952 1206.71 54.368 1206.71 53.6C1206.71 52.832 1206.44 52.256 1205.92 51.872C1205.39 51.472 1204.66 51.272 1203.73 51.272H1196.41V55.952H1203.73ZM1227.33 65L1225.58 61.232H1214.97L1213.22 65H1209.5L1217.47 48.2H1223.21L1231.17 65H1227.33ZM1216.27 58.424H1224.29L1220.28 49.784L1216.27 58.424ZM1248.23 59.048L1251.85 59.24C1251.53 61.16 1250.56 62.648 1248.92 63.704C1247.31 64.76 1245.09 65.288 1242.28 65.288C1238.92 65.288 1236.31 64.512 1234.45 62.96C1232.61 61.392 1231.69 59.272 1231.69 56.6C1231.69 53.944 1232.6 51.832 1234.4 50.264C1236.21 48.696 1238.75 47.912 1242.01 47.912C1244.65 47.912 1246.81 48.432 1248.49 49.472C1250.19 50.496 1251.21 51.888 1251.56 53.648L1247.96 53.888C1247.71 53.008 1247.03 52.304 1245.92 51.776C1244.84 51.232 1243.53 50.96 1242.01 50.96C1239.92 50.96 1238.29 51.48 1237.14 52.52C1236 53.56 1235.44 54.92 1235.44 56.6C1235.44 58.28 1236.03 59.64 1237.21 60.68C1238.4 61.72 1240.08 62.24 1242.28 62.24C1243.92 62.24 1245.26 61.944 1246.28 61.352C1247.32 60.744 1247.97 59.976 1248.23 59.048ZM1252.98 51.272V48.2H1271.34V51.272H1264.05V65H1260.3V51.272H1252.98ZM1285.2 54.392C1287.17 54.392 1288.74 54.84 1289.93 55.736C1291.11 56.616 1291.7 57.944 1291.7 59.72C1291.7 61.496 1291.11 62.824 1289.93 63.704C1288.76 64.568 1287.18 65 1285.2 65H1275.7H1274.16V48.2H1277.9V54.392H1285.2ZM1285.01 61.928C1285.92 61.928 1286.64 61.736 1287.17 61.352C1287.7 60.968 1287.96 60.4 1287.96 59.648C1287.96 58.896 1287.7 58.328 1287.17 57.944C1286.64 57.56 1285.92 57.368 1285.01 57.368H1277.9V61.928H1285.01Z" fill="black"/>
<path d="M1341.98 48.2H1348.53L1348.5 65H1344.9V50.096L1338.38 65H1333.29L1326.78 50.12V65H1323.18V48.2H1329.74L1335.88 62.96L1341.98 48.2ZM1354.7 62.936C1352.81 61.368 1351.87 59.256 1351.87 56.6C1351.87 53.944 1352.81 51.832 1354.7 50.264C1356.59 48.696 1359.23 47.912 1362.62 47.912C1366.01 47.912 1368.65 48.696 1370.54 50.264C1372.45 51.832 1373.4 53.944 1373.4 56.6C1373.4 59.256 1372.45 61.368 1370.54 62.936C1368.65 64.504 1366.01 65.288 1362.62 65.288C1359.23 65.288 1356.59 64.504 1354.7 62.936ZM1357.44 52.52C1356.22 53.56 1355.61 54.92 1355.61 56.6C1355.61 58.28 1356.22 59.64 1357.44 60.68C1358.67 61.72 1360.4 62.24 1362.62 62.24C1364.85 62.24 1366.57 61.72 1367.81 60.68C1369.04 59.64 1369.65 58.28 1369.65 56.6C1369.65 54.92 1369.04 53.56 1367.81 52.52C1366.57 51.48 1364.85 50.96 1362.62 50.96C1360.4 50.96 1358.67 51.48 1357.44 52.52ZM1393.78 48.2V65H1390.04V58.616H1385.14L1379.53 65H1374.78L1380.97 58.568C1379.26 58.44 1377.9 57.968 1376.91 57.152C1375.94 56.32 1375.45 55.112 1375.45 53.528C1375.45 51.784 1376.05 50.464 1377.25 49.568C1378.46 48.656 1380.04 48.2 1381.98 48.2H1393.78ZM1382.17 55.784H1390.04V51.2H1382.17C1381.27 51.2 1380.55 51.408 1380.01 51.824C1379.46 52.224 1379.19 52.792 1379.19 53.528C1379.19 54.248 1379.46 54.808 1379.98 55.208C1380.53 55.592 1381.26 55.784 1382.17 55.784ZM1424.17 48.2V65H1420.42V51.272H1409.26V65H1405.52V48.2H1424.17ZM1439.79 48.2C1441.73 48.2 1443.3 48.656 1444.5 49.568C1445.71 50.48 1446.32 51.824 1446.32 53.6C1446.32 55.392 1445.73 56.72 1444.54 57.584C1443.38 58.432 1441.79 58.856 1439.79 58.856H1432.28V65H1428.54V48.2H1432.28H1439.79ZM1439.6 55.952C1440.53 55.952 1441.26 55.752 1441.78 55.352C1442.31 54.952 1442.58 54.368 1442.58 53.6C1442.58 52.832 1442.31 52.256 1441.78 51.872C1441.26 51.472 1440.53 51.272 1439.6 51.272H1432.28V55.952H1439.6ZM1463.1 48.2H1468.86V65H1465.21V50.672L1455.27 65H1449.51V48.2H1453.16V62.528L1463.1 48.2ZM1488.73 59.048L1492.36 59.24C1492.04 61.16 1491.06 62.648 1489.43 63.704C1487.81 64.76 1485.6 65.288 1482.78 65.288C1479.42 65.288 1476.81 64.512 1474.96 62.96C1473.12 61.392 1472.2 59.272 1472.2 56.6C1472.2 53.944 1473.1 51.832 1474.91 50.264C1476.72 48.696 1479.25 47.912 1482.52 47.912C1485.16 47.912 1487.32 48.432 1489 49.472C1490.69 50.496 1491.72 51.888 1492.07 53.648L1488.47 53.888C1488.21 53.008 1487.53 52.304 1486.43 51.776C1485.34 51.232 1484.04 50.96 1482.52 50.96C1480.42 50.96 1478.8 51.48 1477.65 52.52C1476.51 53.56 1475.94 54.92 1475.94 56.6C1475.94 58.28 1476.53 59.64 1477.72 60.68C1478.9 61.72 1480.59 62.24 1482.78 62.24C1484.43 62.24 1485.77 61.944 1486.79 61.352C1487.83 60.744 1488.48 59.976 1488.73 59.048ZM1493.49 51.272V48.2H1511.85V51.272H1504.56V65H1500.81V51.272H1493.49ZM1525.92 48.2C1527.86 48.2 1529.43 48.656 1530.63 49.568C1531.84 50.48 1532.45 51.824 1532.45 53.6C1532.45 55.392 1531.86 56.72 1530.68 57.584C1529.51 58.432 1527.92 58.856 1525.92 58.856H1518.41V65H1514.67V48.2H1518.41H1525.92ZM1525.73 55.952C1526.66 55.952 1527.39 55.752 1527.92 55.352C1528.44 54.952 1528.71 54.368 1528.71 53.6C1528.71 52.832 1528.44 52.256 1527.92 51.872C1527.39 51.472 1526.66 51.272 1525.73 51.272H1518.41V55.952H1525.73ZM1549.33 65L1547.58 61.232H1536.97L1535.22 65H1531.5L1539.47 48.2H1545.21L1553.17 65H1549.33ZM1538.27 58.424H1546.29L1542.28 49.784L1538.27 58.424ZM1570.23 59.048L1573.85 59.24C1573.53 61.16 1572.56 62.648 1570.92 63.704C1569.31 64.76 1567.09 65.288 1564.28 65.288C1560.92 65.288 1558.31 64.512 1556.45 62.96C1554.61 61.392 1553.69 59.272 1553.69 56.6C1553.69 53.944 1554.6 51.832 1556.4 50.264C1558.21 48.696 1560.75 47.912 1564.01 47.912C1566.65 47.912 1568.81 48.432 1570.49 49.472C1572.19 50.496 1573.21 51.888 1573.56 53.648L1569.96 53.888C1569.71 53.008 1569.03 52.304 1567.92 51.776C1566.84 51.232 1565.53 50.96 1564.01 50.96C1561.92 50.96 1560.29 51.48 1559.14 52.52C1558 53.56 1557.44 54.92 1557.44 56.6C1557.44 58.28 1558.03 59.64 1559.21 60.68C1560.4 61.72 1562.08 62.24 1564.28 62.24C1565.92 62.24 1567.26 61.944 1568.28 61.352C1569.32 60.744 1569.97 59.976 1570.23 59.048ZM1574.98 51.272V48.2H1593.34V51.272H1586.05V65H1582.3V51.272H1574.98ZM1607.2 54.392C1609.17 54.392 1610.74 54.84 1611.93 55.736C1613.11 56.616 1613.7 57.944 1613.7 59.72C1613.7 61.496 1613.11 62.824 1611.93 63.704C1610.76 64.568 1609.18 65 1607.2 65H1597.7H1596.16V48.2H1599.9V54.392H1607.2ZM1607.01 61.928C1607.92 61.928 1608.64 61.736 1609.17 61.352C1609.7 60.968 1609.96 60.4 1609.96 59.648C1609.96 58.896 1609.7 58.328 1609.17 57.944C1608.64 57.56 1607.92 57.368 1607.01 57.368H1599.9V61.928H1607.01Z" fill="black"/>
</svg>
