<svg width="13" height="16" viewBox="0 0 13 16" fill="none" xmlns="http://www.w3.org/2000/svg">
<path d="M4.53571 1C6.48845 1 8.07143 4.13401 8.07143 8M4.53571 1C2.58299 1 1 4.13401 1 8C1 11.866 2.58299 15 4.53571 15M4.53571 1H8.85714C10.5929 1 12 4.13401 12 8M8.07143 8C8.07143 11.866 6.48845 15 4.53571 15M8.07143 8H12M4.53571 15H8.85714C10.5929 15 12 11.866 12 8M11.4707 11.8889H7.47601M11.4707 4.11111H7.47601M4.53571 4.88889C5.1866 4.88889 5.71429 6.28178 5.71429 8C5.71429 9.71819 5.1866 11.1111 4.53571 11.1111C3.8848 11.1111 3.35714 9.71819 3.35714 8C3.35714 6.28178 3.8848 4.88889 4.53571 4.88889Z" stroke="white" stroke-opacity="0.31" stroke-linecap="round" stroke-linejoin="round"/>
</svg>
