<svg width="23" height="23" viewBox="0 0 23 23" fill="none" xmlns="http://www.w3.org/2000/svg">
<path d="M0.439336 20.4394C-0.146445 21.0252 -0.146445 21.9748 0.439336 22.5606C1.02512 23.1464 1.97488 23.1464 2.56066 22.5606L0.439336 20.4394ZM12.5606 12.5606C13.1464 11.9748 13.1464 11.0252 12.5606 10.4394C11.9748 9.85362 11.0252 9.85362 10.4394 10.4394L12.5606 12.5606ZM10.4394 10.4394C9.85362 11.0252 9.85362 11.9748 10.4394 12.5606C11.0252 13.1464 11.9748 13.1464 12.5606 12.5606L10.4394 10.4394ZM22.5606 2.56066C23.1464 1.97488 23.1464 1.02512 22.5606 0.439336C21.9748 -0.146445 21.0252 -0.146445 20.4394 0.439336L22.5606 2.56066ZM12.5606 10.4394C11.9748 9.85362 11.0252 9.85362 10.4394 10.4394C9.85362 11.0252 9.85362 11.9748 10.4394 12.5606L12.5606 10.4394ZM20.4394 22.5606C21.0252 23.1464 21.9748 23.1464 22.5606 22.5606C23.1464 21.9748 23.1464 21.0252 22.5606 20.4394L20.4394 22.5606ZM10.4394 12.5606C11.0252 13.1464 11.9748 13.1464 12.5606 12.5606C13.1464 11.9748 13.1464 11.0252 12.5606 10.4394L10.4394 12.5606ZM2.56066 0.439336C1.97488 -0.146445 1.02512 -0.146445 0.439336 0.439336C-0.146445 1.02512 -0.146445 1.97488 0.439336 2.56066L2.56066 0.439336ZM2.56066 22.5606L12.5606 12.5606L10.4394 10.4394L0.439336 20.4394L2.56066 22.5606ZM12.5606 12.5606L22.5606 2.56066L20.4394 0.439336L10.4394 10.4394L12.5606 12.5606ZM10.4394 12.5606L20.4394 22.5606L22.5606 20.4394L12.5606 10.4394L10.4394 12.5606ZM12.5606 10.4394L2.56066 0.439336L0.439336 2.56066L10.4394 12.5606L12.5606 10.4394Z" fill="white" fill-opacity="0.21"/>
</svg>
