<svg width="468" height="644" viewBox="0 0 468 644" fill="none" xmlns="http://www.w3.org/2000/svg">
<path d="M400.777 356.886C382.507 392.312 309.192 614.307 281.276 634.5C253.36 654.693 291.797 633.91 260.276 634.5C228.756 635.09 225.08 365.14 196.776 346C168.473 326.859 20.7378 317.729 1.77679 283C-17.1842 248.271 120.776 241 169.777 221C190.277 192.5 199.653 172.111 208.777 130.5C217.901 88.8884 238.988 31.4161 260.776 0C282.776 -0.000107288 314.276 135 314.276 169L413.276 216.5C469.311 222.959 487.826 295.142 441.819 327.775L400.777 356.886Z" fill="#F9DA3F" fill-opacity="0.14"/>
</svg>
