<svg width="1084" height="1066" viewBox="0 0 1084 1066" fill="none" xmlns="http://www.w3.org/2000/svg">
<g filter="url(#filter0_f_404_2)">
<path d="M1014.12 358C995.847 393.426 767.666 761.167 739.75 781.36C711.834 801.553 680.859 812.385 649.338 812.975C617.818 813.565 586.641 803.897 558.338 784.756C530.035 765.616 443.078 743.729 424.117 709C405.156 674.271 334.633 664.802 329.117 622C323.602 579.198 273.493 559.611 282.617 518C291.741 476.389 236.328 455.916 258.117 424.5C279.906 393.084 260.879 267.422 290.617 253L548.617 501L1014.12 358Z" fill="#9B4D4D" fill-opacity="0.55"/>
</g>
<defs>
<filter id="filter0_f_404_2" x="0.899994" y="0.899994" width="1265.32" height="1064.2" filterUnits="userSpaceOnUse" color-interpolation-filters="sRGB">
<feFlood flood-opacity="0" result="BackgroundImageFix"/>
<feBlend mode="normal" in="SourceGraphic" in2="BackgroundImageFix" result="shape"/>
<feGaussianBlur stdDeviation="126.05" result="effect1_foregroundBlur_404_2"/>
</filter>
</defs>
</svg>
