<svg width="19" height="19" viewBox="0 0 19 19" fill="none" xmlns="http://www.w3.org/2000/svg">
<path d="M1.76641 11.1479L8.47207 17.4083C8.75039 17.668 9.11777 17.8128 9.5 17.8128C9.88223 17.8128 10.2496 17.668 10.5279 17.4083L17.2336 11.1479C18.3617 10.0977 19 8.62448 19 7.08444V6.8692C19 4.27526 17.126 2.06354 14.5691 1.63678C12.877 1.35475 11.1551 1.90768 9.94531 3.11745L9.5 3.56276L9.05469 3.11745C7.84492 1.90768 6.12305 1.35475 4.43086 1.63678C1.87402 2.06354 0 4.27526 0 6.8692V7.08444C0 8.62448 0.638281 10.0977 1.76641 11.1479Z" fill="white"/>
</svg>
