<svg width="28" height="25" viewBox="0 0 28 25" fill="none" xmlns="http://www.w3.org/2000/svg">
<g clip-path="url(#clip0_524_70)">
<path d="M15.405 0.878906C15.1474 0.341797 14.603 0 14.005 0C13.4071 0 12.8675 0.341797 12.605 0.878906L9.47935 7.33887L2.49879 8.37402C1.91546 8.46191 1.42935 8.87207 1.24949 9.43359C1.06963 9.99512 1.21546 10.6152 1.63352 11.0303L6.69879 16.0645L5.50296 23.1787C5.40574 23.7646 5.64879 24.3604 6.13004 24.707C6.61129 25.0537 7.2481 25.0977 7.7731 24.8193L14.0099 21.4746L20.2467 24.8193C20.7717 25.0977 21.4085 25.0586 21.8898 24.707C22.371 24.3555 22.6141 23.7646 22.5169 23.1787L21.3162 16.0645L26.3814 11.0303C26.7995 10.6152 26.9502 9.99512 26.7655 9.43359C26.5807 8.87207 26.0995 8.46191 25.5162 8.37402L18.5307 7.33887L15.405 0.878906Z" fill="#F9DA3F"/>
</g>
<defs>
<clipPath id="clip0_524_70">
<rect width="28" height="25" fill="white"/>
</clipPath>
</defs>
</svg>
